<?xml version="1.0" encoding="UTF-8"?>
<!DOCTYPE svg PUBLIC "-//W3C//DTD SVG 1.1//EN" "http://www.w3.org/Graphics/SVG/1.1/DTD/svg11.dtd">
<!-- Creator: CorelDRAW 2017 -->
<svg xmlns="http://www.w3.org/2000/svg" xml:space="preserve" width="80mm" height="25mm" version="1.1" style="shape-rendering:geometricPrecision; text-rendering:geometricPrecision; image-rendering:optimizeQuality; fill-rule:evenodd; clip-rule:evenodd"
viewBox="0 0 80 25"
 xmlns:xlink="http://www.w3.org/1999/xlink">
 <defs>
  <style type="text/css">
   <![CDATA[
    .fil0 {fill:#1F6F53;fill-rule:nonzero}
   ]]>
  </style>
 </defs>
 <g id="Layer_x0020_1">
  <metadata id="CorelCorpID_0Corel-Layer"/>
  <path class="fil0" d="M14.9764 18.1062c-0.7168,0.6996 -1.6559,1.0832 -2.6582,1.0832 -1.0438,0 -2.0447,-0.4329 -2.7646,-1.1916l0.7521 -0.7521c0.5214,0.5605 1.2474,0.8795 2.0125,0.8795 0.7075,0 1.3951,-0.2797 1.9058,-0.7713l0.7524 0.7523zm-0.8431 -1.0146c-0.4715,0.4985 -1.1333,0.7843 -1.8151,0.7843 -0.7367,0 -1.4336,-0.3252 -1.9121,-0.8922l-0.0872 -0.1037 -1.1093 1.1093 0.0786 0.0878c0.7716,0.8653 1.8761,1.3614 3.03,1.3614 1.1115,0 2.1498,-0.4426 2.9238,-1.2463l0.0848 -0.0879 -1.1053 -1.1056 -0.0882 0.0929z"/>
  <path class="fil0" d="M8.4496 19.1016c1.0124,1.0505 2.415,1.6507 3.8685,1.6507 1.4178,0 2.7486,-0.5471 3.7612,-1.5432l0.7524 0.7523c-1.2145,1.1971 -2.8125,1.855 -4.5136,1.855 -1.7339,0 -3.4111,-0.7133 -4.6216,-1.9616l0.7531 -0.7532zm3.8685 2.964c1.8096,0 3.5068,-0.7165 4.7785,-2.0174l0.0863 -0.088 -1.1051 -1.1051 -0.088 0.0908c-0.976,1.0041 -2.2799,1.5571 -3.6717,1.5571 -1.4268,0 -2.8025,-0.6068 -3.774,-1.6645l-0.088 -0.0958 -1.107 1.1071 0.0822 0.088c1.2631,1.3523 3.0443,2.1278 4.8868,2.1278z"/>
  <path class="fil0" d="M18.6869 21.8165c-1.7114,1.695 -3.9681,2.6268 -6.3688,2.6268 -2.4234,0 -4.7771,-0.9946 -6.4771,-2.7332l0.752 -0.7518c1.5023,1.5399 3.5815,2.4211 5.7251,2.4211 2.1166,0 4.1062,-0.8214 5.6164,-2.315l0.7524 0.7521zm-0.8414 -1.0158c-1.4734,1.5021 -3.4364,2.3295 -5.5274,2.3295 -2.1182,0 -4.171,-0.888 -5.6326,-2.4354l-0.0881 -0.0932 -1.105 1.1048 0.0837 0.0882c1.7531,1.8417 4.2104,2.898 6.742,2.898 2.5092,0 4.8651,-0.9904 6.6335,-2.7888l0.0867 -0.088 -1.1045 -1.105 -0.0883 0.0899z"/>
  <path class="fil0" d="M6.5673 12.4831c0,0.7075 0.2797,1.3951 0.7714,1.906l-0.7524 0.7524c-0.6993,-0.7165 -1.0834,-1.6561 -1.0834,-2.6584 0,-1.0435 0.4332,-2.0446 1.1918,-2.7647l0.7519 0.7522c-0.5605,0.5214 -0.8793,1.2473 -0.8793,2.0125zm0.0479 -3.0304c-0.865,0.7722 -1.3615,1.8767 -1.3615,3.0304 0,1.1112 0.4429,2.1497 1.2464,2.9238l0.0882 0.085 1.1056 -1.1056 -0.0933 -0.0881c-0.4984,-0.4716 -0.784,-1.1333 -0.784,-1.8151 0,-0.7365 0.3252,-1.4333 0.8922,-1.9118l0.1037 -0.0875 -1.1093 -1.1093 -0.088 0.0782z"/>
  <path class="fil0" d="M4.7311 16.9964c-1.1973,-1.2142 -1.8551,-2.8122 -1.8551,-4.5134 0,-1.7338 0.7134,-3.4111 1.9617,-4.6218l0.7532 0.7534c-1.0508,1.0126 -1.6507,2.4149 -1.6507,3.8684 0,1.4176 0.5468,2.7482 1.5432,3.7612l-0.7523 0.7522zm1.0155 -0.8416c-1.0041,-0.9763 -1.5571,-2.2802 -1.5571,-3.6718 0,-1.4268 0.6068,-2.8025 1.6645,-3.7739l0.096 -0.088 -1.1073 -1.1071 -0.0878 0.0823c-1.3525,1.263 -2.128,3.0442 -2.128,4.8867 0,1.8099 0.7165,3.5068 2.0172,4.7783l0.0882 0.0865 1.1048 -1.1051 -0.0905 -0.0879z"/>
  <path class="fil0" d="M2.8758 18.8517c-1.695,-1.7111 -2.6266,-3.9679 -2.6266,-6.3686 0,-2.4234 0.9944,-4.7771 2.7332,-6.477l0.7517 0.7519c-1.5397,1.502 -2.4207,3.5813 -2.4207,5.7251 0,2.1166 0.8209,4.1062 2.3147,5.6162l-0.7523 0.7524zm-1.3132 -6.3686c0,-2.1181 0.8877,-4.1712 2.4354,-5.6329l0.0932 -0.088 -1.1053 -1.1047 -0.088 0.0837c-1.8417,1.7528 -2.8979,4.2103 -2.8979,6.7419 0,2.5092 0.9904,4.8648 2.7885,6.6335l0.0883 0.0868 1.1048 -1.1049 -0.0897 -0.0882c-1.5019,-1.4734 -2.3293,-3.4363 -2.3293,-5.5272z"/>
  <path class="fil0" d="M14.3166 7.6231c-0.5212,-0.5607 -1.2471,-0.8795 -2.0123,-0.8795 -0.7077,0 -1.3954,0.2797 -1.906,0.7711l-0.7522 -0.7521c0.7163,-0.6996 1.6554,-1.0832 2.6582,-1.0834 1.0435,0.0002 2.0444,0.4331 2.7647,1.1917l-0.7524 0.7522zm1.0178 -0.8314c-0.7721,-0.8653 -1.8764,-1.3615 -3.0301,-1.3617 -1.1117,0.0002 -2.15,0.4429 -2.9241,1.2466l-0.0845 0.0879 1.1054 1.1056 0.0882 -0.093c0.4713,-0.4984 1.1329,-0.7842 1.815,-0.7842 0.7365,0 1.4333,0.3252 1.9118,0.8922l0.0873 0.1037 1.1092 -1.1094 -0.0782 -0.0877z"/>
  <path class="fil0" d="M8.5431 5.6597l-0.7524 -0.7524c1.2145,-1.197 2.8125,-1.855 4.5136,-1.855 1.7339,0 3.4111,0.7133 4.6218,1.9614l-0.7533 0.7533c-1.0124,-1.0504 -2.415,-1.6502 -3.8685,-1.6502 -1.4178,0 -2.7486,0.5467 -3.7612,1.5429zm7.5352 0.3706l0.088 0.0959 1.107 -1.1073 -0.0822 -0.088c-1.2631,-1.3522 -3.0443,-2.1278 -4.8868,-2.1278 -1.8098,0 -3.5068,0.7165 -4.7785,2.0174l-0.0863 0.088 1.1051 1.105 0.088 -0.0904c0.976,-1.0044 2.2799,-1.5572 3.6717,-1.5572 1.4268,0 2.8025,0.6067 3.774,1.6644z"/>
  <path class="fil0" d="M5.9355 3.0522c1.7114,-1.6949 3.9681,-2.6268 6.3689,-2.6268 2.4231,0 4.7768,0.9947 6.4768,2.7332l-0.752 0.7519c-1.5021,-1.5399 -3.5813,-2.4209 -5.7248,-2.4209 -2.1167,0 -4.1062,0.8212 -5.6165,2.3148l-0.7524 -0.7522zm0.8414 1.0158c1.4734,-1.502 3.4365,-2.3292 5.5275,-2.3292 2.1181,0 4.171,0.8878 5.6326,2.4352l0.0882 0.0932 1.1046 -1.1049 -0.0837 -0.0882c-1.7531,-1.8417 -4.2101,-2.8979 -6.7417,-2.8979 -2.5092,0 -4.8651,0.9904 -6.6336,2.7888l-0.0867 0.088 1.1045 1.105 0.0883 -0.09z"/>
  <path class="fil0" d="M19.244 12.3857c0,-1.0744 -0.4378,-2.0922 -1.2084,-2.8341l-0.9284 0.9285c0.5249,0.4965 0.8232,1.1826 0.8232,1.9056 0,0.7736 -0.3415,1.5051 -0.9366,2.007l0.9301 0.9303c0.8397,-0.7491 1.3201,-1.8123 1.3201,-2.9373z"/>
  <path class="fil0" d="M19.8909 7.6962l-0.9285 0.9287c1.017,0.9883 1.595,2.3381 1.595,3.7607 0,1.4734 -0.6194,2.8687 -1.7047,3.8659l0.9299 0.9301c1.3311,-1.2436 2.0882,-2.9717 2.0882,-4.796 0,-1.7732 -0.717,-3.4547 -1.9799,-4.6894z"/>
  <path class="fil0" d="M20.8177 6.7695c1.5096,1.4806 2.3666,3.4943 2.3666,5.6162 0,2.1729 -0.8969,4.2334 -2.4742,5.7233l0.9283 0.9283c1.8234,-1.7355 2.8596,-4.1281 2.8596,-6.6516 0,-2.4728 -0.9961,-4.8182 -2.7514,-6.5448l-0.9289 0.9286z"/>
  <path class="fil0" d="M32.0785 10.2972l-1.6619 0 0 -6.7111 1.6619 0 0 2.6146 2.7588 0 0 -2.6146 1.6618 0 0 6.7111 -1.6618 0 0 -2.6542 -2.7588 0 0 2.6542zm0.2741 -2.3804l2.2108 0 0 2.6545 2.2099 0 0 -7.259 -2.2099 0 0 2.6143 -2.2108 0 0 -2.6143 -2.2101 0 0 7.259 2.2101 0 0 -2.6545z"/>
  <path class="fil0" d="M42.6017 6.0679l0.5783 1.4752 -1.1639 0 0.5856 -1.4752zm0.0015 -0.7471l-0.9911 2.4964 1.97 0 -0.9789 -2.4964z"/>
  <path class="fil0" d="M38.9179 10.2972l2.8573 -6.7609 1.6848 0 2.857 6.7609 -1.7764 0 -0.5087 -1.2474 -2.8792 0 -0.4989 1.2474 -1.7359 0zm2.4202 -0.9732l2.5097 0 0.5086 1.2473 2.3746 0 -3.054 -7.2254 -0.0356 -0.0838 -2.0479 0 -3.0893 7.3092 2.335 0 0.4989 -1.2473z"/>
  <path class="fil0" d="M52.9069 3.5861l1.692 0 0 3.7346c0,2.0322 -1.0844,3.1061 -3.1362,3.1061 -2.0254,0 -3.0958,-1.0567 -3.0958,-3.056l0 -3.7847 1.6915 0 0 3.7446c0,1.0323 0.5193,1.6239 1.4242,1.6239 0.9054,0 1.4243,-0.5737 1.4243,-1.5738l0 -3.7947zm-0.2741 3.7947c0,0.8503 -0.3975,1.2997 -1.1502,1.2997 -0.7523,0 -1.1501,-0.4668 -1.1501,-1.3498l0 -4.0187 -2.2395 0 0 4.0588c0,2.1476 1.1962,3.3301 3.3697,3.3301 2.1991,0 3.4104,-1.2005 3.4104,-3.3802l0 -4.0087 -2.2403 0 0 4.0688z"/>
  <path class="fil0" d="M57.849 8.2983c0.6936,0.5218 1.4485,0.786 2.245,0.786 0.8678,0 0.9351,-0.4712 0.9351,-0.6358 0,-0.4294 -0.4138,-0.6008 -1.2843,-0.8022 -1.6394,-0.3741 -2.5276,-0.8134 -2.5276,-2.0817 0,-1.2549 1.0316,-2.0983 2.5673,-2.0983 1.0731,0 1.9534,0.2682 2.6863,0.8187l-0.8144 1.1504c-0.6241,-0.4114 -1.3015,-0.6365 -1.9218,-0.6365 -0.6165,0 -0.8356,0.3158 -0.8356,0.6061 0,0.4364 0.3447,0.5922 1.3151,0.8125 1.7966,0.3906 2.4967,0.9627 2.4967,2.0613 0,1.3186 -1.0295,2.1381 -2.6869,2.1381 -1.1927,0 -2.2811,-0.3669 -3.0813,-1.036l0.9064 -1.0826zm5.1357 -0.0394c0,-1.5113 -1.3034,-2.003 -2.711,-2.309 -1.0264,-0.2328 -1.1008,-0.3612 -1.1008,-0.5648 0,-0.1924 0.2153,-0.312 0.5617,-0.312 0.6014,0 1.2681,0.2355 1.8771,0.6634l0.1114 0.0788 1.1215 -1.5841 -0.1002 -0.0807c-0.8037,-0.6448 -1.7719,-0.9581 -2.9599,-0.9581 -1.6995,0 -2.8414,0.9533 -2.8414,2.3921 0,1.5733 1.2967,1.9995 2.7404,2.329 0.9926,0.2298 1.0714,0.3723 1.0714,0.5549 0,0.2974 -0.4142,0.342 -0.6609,0.342 -0.7736,0 -1.507,-0.2722 -2.1797,-0.8085l-0.1047 -0.0832 -1.2491 1.4913 0.099 0.0885c0.859,0.7689 2.054,1.1925 3.3644,1.1925 1.799,0 2.9608,-0.9468 2.9608,-2.4321z"/>
  <polygon class="fil0" points="34.9596,17.6085 32.0858,13.9165 30.2797,13.9165 30.2797,20.9015 32.1954,20.9015 32.1954,17.0697 35.1792,20.9015 36.8754,20.9015 36.8754,13.9165 34.9596,13.9165 "/>
  <path class="fil0" d="M44.8179 17.4289c0,1.0078 -0.7085,1.8659 -1.7762,1.8659 -1.0577,0 -1.7861,-0.878 -1.7861,-1.8858l0 -0.02c0,-1.0079 0.7085,-1.8659 1.7662,-1.8659 1.0677,0 1.7961,0.878 1.7961,1.8859l0 0.0199zm-1.7762 -3.6521c-2.1552,0 -3.772,1.6264 -3.772,3.6322l0 0.0199c0,2.0057 1.5968,3.6122 3.7521,3.6122 2.1552,0 3.772,-1.6264 3.772,-3.6321l0 -0.02c0,-2.0057 -1.5968,-3.6122 -3.7521,-3.6122z"/>
  <polygon class="fil0" points="48.5093,15.6128 50.6047,15.6128 50.6047,20.9015 52.5407,20.9015 52.5407,15.6128 54.6362,15.6128 54.6362,13.9163 48.5093,13.9163 "/>
  <path class="fil0" d="M61.1317 16.441c0,0.5089 -0.379,0.8282 -1.0377,0.8282l-1.2773 0 0 -1.6763 1.2673 0c0.6485,0 1.0477,0.2794 1.0477,0.8282l0 0.0199zm1.946 -0.1196l0 -0.0202c0,-0.6883 -0.2096,-1.2271 -0.6189,-1.6264 -0.469,-0.479 -1.2075,-0.7584 -2.2751,-0.7584l-3.303 0 0 6.9847 1.936 0 0 -2.1152 0.8481 0 1.4071 2.1152 2.2353 0 -1.6666 -2.4344c0.8681,-0.3694 1.4371,-1.0777 1.4371,-2.1453z"/>
  <path class="fil0" d="M69.9024 17.848c0,0.9779 -0.5089,1.437 -1.2872,1.437 -0.7784,0 -1.2872,-0.479 -1.2872,-1.4869l0 -3.8816 -1.9659 0 0 3.9215c0,2.1854 1.2473,3.1928 3.2331,3.1928 1.9859,0 3.2731,-0.9874 3.2731,-3.2426l0 -3.8717 -1.9659 0 0 3.9315z"/>
  <polygon class="fil0" points="80,15.6128 80,13.9163 74.4119,13.9163 74.4119,20.9015 76.3479,20.9015 76.3479,18.4068 79.6509,18.4068 79.6509,16.8004 76.3479,16.8004 76.3479,15.6128 "/>
 </g>
</svg>
