<?xml version="1.0" standalone="no"?>
<!DOCTYPE svg PUBLIC "-//W3C//DTD SVG 1.1//EN" "http://www.w3.org/Graphics/SVG/1.1/DTD/svg11.dtd" >
<svg xmlns="http://www.w3.org/2000/svg" xmlns:xlink="http://www.w3.org/1999/xlink" version="1.1">
<metadata>
Created by FontForge 20170731 at Fri Jun  7 00:44:38 2013
 By Aleksey,,,
Copyright (c) Justin Howes. An Unpublished work from Justin Howes., 1994. All rights reserved.

Revised June 2013 (c) Greg Fleming.
</metadata>
<defs>
<font id="Railway" horiz-adv-x="200" >
  <font-face 
    font-family="Railway"
    font-weight="400"
    font-stretch="normal"
    units-per-em="1000"
    panose-1="2 0 5 6 4 0 0 2 0 4"
    ascent="800"
    descent="-200"
    x-height="474"
    cap-height="700"
    bbox="-84 -318 3134 954"
    underline-thickness="50"
    underline-position="-175"
    unicode-range="U+0020-10003"
  />
<missing-glyph horiz-adv-x="500" 
d="M50 0v533h400v-533h-400zM100 50h300v433h-300v-433z" />
    <glyph glyph-name=".notdef" horiz-adv-x="500" 
d="M50 0v533h400v-533h-400zM100 50h300v433h-300v-433z" />
    <glyph glyph-name=".null" horiz-adv-x="0" 
 />
    <glyph glyph-name="nonmarkingreturn" horiz-adv-x="333" 
 />
    <glyph glyph-name="space" unicode=" " horiz-adv-x="250" 
 />
    <glyph glyph-name="exclam" unicode="!" 
d="M173 53l-68 -68l-72 69l68 68zM150 612l-21 -456h-56l-23 456v88h100v-88z" />
    <glyph glyph-name="quotedbl" unicode="&#x22;" horiz-adv-x="358" 
d="M169 592q0 -29 -12 -53.5t-33.5 -42.5t-50 -28.5t-61.5 -10.5v11q12 4 22 12t18 22t12.5 35.5t4.5 54.5v108h100v-108zM350 616q0 -29 -12.5 -53.5t-33.5 -42.5t-50 -28.5t-62 -10.5v11q12 4 22 12t18 22t12.5 35.5t4.5 54.5v84h101v-84z" />
    <glyph glyph-name="numbersign" unicode="#" horiz-adv-x="720" 
d="M581 443l-11 -47h-133l-34 -123h135l-13 -44h-133l-38 -142h-47l37 142h-128l-38 -142h-49l39 142h-135l12 44h135l33 123h-136l12 47h137l37 137h47l-37 -137h128l37 137h49l-38 -137h132zM389 396h-128l-33 -123h129z" />
    <glyph glyph-name="dollar" unicode="$" horiz-adv-x="440" 
d="M160 602v113q0 4 4 4h87q4 0 4 -3v-115q93 -12 117 -39v-115q-64 62 -163 62q-29 0 -49.5 -9t-20.5 -35t20.5 -38t51.5 -19.5t66.5 -15t66.5 -22.5q72 -35 72 -112q0 -40 -32 -81q-40 -50 -125 -78v-94q0 -4 -4 -4h-87q-3 0 -3 3l-1 102q-66 19 -128 57v135
q24 -48 70 -75t103 -27q41 0 60 6q48 15 48 52q0 21 -20.5 31.5t-51.5 17.5l-67 15q-82 18 -118 68q-21 28 -21 67.5t13.5 66t45 48.5t62.5 34z" />
    <glyph glyph-name="percent" unicode="%" horiz-adv-x="720" 
d="M327 532q0 -30 -11.5 -57t-31 -47t-46.5 -31.5t-57 -11.5t-57 11.5t-47 31.5t-31.5 47t-11.5 57t11.5 57t31.5 46.5t46.5 31t57.5 11.5t57.5 -11.5t46 -31t31 -46t11.5 -57.5zM569 667l-334 -667h-96l336 667h94zM681 134q0 -30 -11.5 -57t-31.5 -46.5t-47 -31t-57 -11.5
q-31 0 -58 11.5t-47.5 31.5t-32 47t-11.5 58t11.5 58t31.5 47t46.5 31.5t57.5 11.5q30 0 57.5 -12t47.5 -32.5t32 -47.5t12 -58zM250 534q0 29 -20 48t-51 19q-29 0 -49 -19.5t-20 -48.5t20.5 -49t50.5 -20q29 0 49 20.5t20 49.5zM603 135v5q0 27 -21.5 46t-48.5 19
q-29 0 -49.5 -20.5t-20.5 -49.5t21 -49.5t50 -20.5t49 20.5t20 49.5z" />
    <glyph glyph-name="ampersand" unicode="&#x26;" horiz-adv-x="654" 
d="M335 168l-137 139q-11 -3 -26.5 -11t-30.5 -21t-25.5 -32t-10.5 -46q0 -23 8.5 -42.5t23 -34t34 -23t40.5 -8.5q36 0 70 21t54 58zM644 0h-137l-98 93q-34 -48 -89 -76t-113 -28q-45 3 -82.5 20t-64 44t-41 63.5t-14.5 80.5q0 63 33 111t86 74q-23 24 -42 64t-19 83
q0 34 14 65.5t37.5 54.5t55.5 37t68 14q37 0 70 -13.5t58 -36.5t39.5 -53.5t14.5 -64.5q0 -37 -11.5 -66t-29.5 -51t-40.5 -37.5t-44.5 -25.5l106 -106l80 124h120l-128 -196zM320 534q0 26 -24 46t-58 20q-31 0 -53 -21.5t-22 -49.5q0 -21 4.5 -34.5t12 -24t17 -19
t20.5 -19.5q19 4 37.5 12t33 21t23.5 30t9 39z" />
    <glyph glyph-name="parenleft" unicode="(" 
d="M199 -235h-100q-23 54 -41 111.5t-31.5 121t-20.5 135t-7 152.5t7 152.5t20 135.5t31 122t41 112h98q-22 -54 -40 -112t-30.5 -122t-19.5 -135.5t-7 -152.5t7 -152.5t20.5 -135t31.5 -121t41 -111.5z" />
    <glyph glyph-name="parenright" unicode=")" 
d="M200 287q0 -82 -7.5 -153.5t-21 -135.5t-32.5 -121.5t-42 -111.5h-100q23 54 42 111.5t32.5 121.5t21 135.5t7.5 153.5q0 81 -7 152t-20.5 134.5t-32 121.5t-40.5 112h98q23 -54 42 -112t32.5 -121.5t20.5 -134.5t7 -152z" />
    <glyph glyph-name="asterisk" unicode="*" horiz-adv-x="404" 
d="M397 467l-45 -82l-127 108l32 -165l-92 -2l29 164l-127 -109l-47 78l160 59l-160 56l45 81l130 -111l-33 171h95l-31 -169l123 112l47 -79l-157 -57z" />
    <glyph glyph-name="plus" unicode="+" horiz-adv-x="506" 
d="M446 294h-144v-151h-98v151h-143v98h143v151h98v-151h144v-98z" />
    <glyph glyph-name="comma" unicode="," horiz-adv-x="157" 
d="M159 -8q0 -29 -12 -53.5t-33.5 -42.5t-50 -28.5t-61.5 -10.5v11q12 4 22 12t18 22t12.5 35.5t4.5 54.5v108h100v-108z" />
    <glyph glyph-name="hyphen" unicode="-" horiz-adv-x="379" 
d="M342 220h-311v110h311v-110z" />
    <glyph glyph-name="period" unicode="." horiz-adv-x="135" 
d="M120 0h-100v97h100v-97z" />
    <glyph glyph-name="slash" unicode="/" horiz-adv-x="299" 
d="M305 828l-196 -976h-110l203 976h103z" />
    <glyph glyph-name="zero" unicode="0" horiz-adv-x="620" 
d="M438 353q0 50 -7.5 95t-23 78.5t-39 53.5t-56.5 20t-56.5 -20t-39 -53.5t-23 -78.5t-7.5 -95q0 -54 9 -102t25.5 -83.5t39.5 -56t52 -20.5q28 0 51.5 20.5t40 56t25.5 83.5t9 102zM538 353q0 -91 -17.5 -159t-48.5 -113t-72 -67.5t-88 -22.5t-88 22.5t-72 67.5t-48.5 113
t-17.5 159q0 80 17.5 144.5t48.5 109.5t72 69t88 24t88 -24t72 -69t48.5 -109.5t17.5 -144.5z" />
    <glyph glyph-name="one" unicode="1" horiz-adv-x="310" 
d="M205 0h-100v606l100 117v-723z" />
    <glyph glyph-name="two" unicode="2" horiz-adv-x="620" 
d="M516 -1h-410l260 421q10 22 16.5 51t6.5 55q-6 40 -34 64.5t-69 24.5q-33 0 -61.5 -16.5t-51 -39.5t-38.5 -48t-26 -42v169q34 35 80 56t99 21q43 0 80.5 -15t65.5 -41t44 -60.5t16 -72.5q1 -53 -12 -90t-35 -73l-161 -264h230v-100z" />
    <glyph glyph-name="three" unicode="3" horiz-adv-x="620" 
d="M539 209q0 -45 -19 -85t-51 -69.5t-75.5 -47t-92.5 -17.5q-71 0 -128 35.5t-88 93.5l76 64q17 -42 54.5 -67.5t85.5 -25.5q27 0 50.5 9.5t41 25.5t27.5 38t10 46q0 29 -11 54.5t-30 44t-44.5 29.5t-54.5 11q-19 0 -41.5 -1t-40.5 -3l149 257h-263v99h435l-155 -270
q36 -12 66.5 -33.5t52 -50.5t34 -64t12.5 -73z" />
    <glyph glyph-name="four" unicode="4" horiz-adv-x="620" 
d="M618 199h-162v-199h-100v199h-350l449 536v-436h163v-100zM356 299v162l-135 -162h135z" />
    <glyph glyph-name="five" unicode="5" horiz-adv-x="620" 
d="M537 700l-68 -100h-195l-20 -157q55 4 101.5 -12.5t80.5 -47t53.5 -72.5t19.5 -87q0 -48 -18.5 -90.5t-50.5 -74.5t-75 -50.5t-92 -18.5q-60 0 -109.5 27t-81.5 74l58 83q29 -38 60.5 -61t76.5 -23q26 0 49 9.5t40.5 26t28 39t10.5 47.5q0 27 -11 51.5t-30.5 42.5
t-45.5 28.5t-55 10.5t-56.5 -1.5t-67.5 -16.5l50 373h348z" />
    <glyph glyph-name="six" unicode="6" horiz-adv-x="620" 
d="M426 219q0 24 -8.5 44.5t-23 36.5t-34 25t-41.5 9q-38 0 -69.5 -11.5t-54.5 -32.5q-2 -12 -2 -24v-23q0 -30 10 -56.5t27 -46t40 -30.5t49 -11q22 0 41.5 9.5t34 26t23 38t8.5 46.5zM526 217q0 -45 -17 -84.5t-45.5 -69t-67.5 -47t-82 -17.5q-46 0 -86 19.5t-70 52.5
t-47.5 77.5t-17.5 94.5q0 67 18.5 135t52 130t81 115t105.5 92h114q-75 -60 -138.5 -137t-98.5 -166q22 10 45.5 15.5t46.5 5.5q42 0 80 -17t66 -46.5t44.5 -68.5t16.5 -84z" />
    <glyph glyph-name="seven" unicode="7" horiz-adv-x="620" 
d="M546 700l-356 -701h-111l307 601h-303v100h463z" />
    <glyph glyph-name="eight" unicode="8" horiz-adv-x="620" 
d="M424 202q0 24 -9 42.5t-25 33.5t-36.5 28t-42.5 25q-23 -12 -43.5 -24.5t-36.5 -28t-25 -34.5t-9 -43q0 -23 9 -43t24.5 -35t36.5 -23.5t44 -8.5t43.5 8.5t36 23.5t24.5 35t9 44zM524 201q0 -43 -17 -81.5t-46 -67t-67.5 -45t-82.5 -16.5t-82.5 16.5t-67.5 45t-46 67
t-17 81.5q0 33 9.5 60.5t26 51t38.5 42.5t46 36q-37 27 -61.5 63.5t-24.5 93.5q0 37 14 70t38.5 57.5t57 39t69.5 14.5t69.5 -14.5t57 -39t38.5 -57.5t14 -70q0 -57 -25.5 -94t-62.5 -64q24 -17 46 -35.5t39 -41.5t27 -50.5t10 -61.5zM390 548q0 33 -23 57t-56 24t-56 -24
t-23 -57q0 -29 22 -52t56 -46q34 22 57 45t23 53z" />
    <glyph glyph-name="nine" unicode="9" horiz-adv-x="620" 
d="M443 450q0 32 -10.5 59.5t-29.5 48t-44 32t-54 11.5q-25 0 -48 -10t-40 -28t-27.5 -42t-10.5 -51q0 -23 10 -44t27.5 -37t41.5 -25.5t53 -9.5q38 0 70.5 13.5t56.5 37.5q4 11 4.5 22.5t0.5 22.5zM542 451q0 -71 -21 -136t-58 -123.5t-86 -111t-105 -97.5h-128
q33 24 69.5 57t71 72t64 81.5t47.5 85.5q-24 -12 -49.5 -19.5t-51.5 -7.5q-44 0 -83.5 18t-69 49.5t-46.5 73.5t-17 90q0 45 18 84.5t49 69t72.5 47t88.5 17.5q48 0 91 -19.5t75 -53.5t50.5 -79.5t18.5 -97.5z" />
    <glyph glyph-name="colon" unicode=":" horiz-adv-x="262" 
d="M178 2h-100v98h100v-98zM178 342h-100v98h100v-98z" />
    <glyph glyph-name="semicolon" unicode=";" horiz-adv-x="319" 
d="M235 -8q0 -29 -12 -53.5t-33.5 -42.5t-50 -28.5t-61.5 -10.5v11q12 4 22 12t18 22t12.5 35.5t4.5 54.5v108h100v-108zM235 342h-100v98h100v-98z" />
    <glyph glyph-name="less" unicode="&#x3c;" horiz-adv-x="336" 
d="M206 297l97 -138l-272 186l270 189l-95 -137v-100z" />
    <glyph glyph-name="equal" unicode="=" horiz-adv-x="524" 
d="M485 315h-446v83h446v-83zM485 81h-446v83h446v-83z" />
    <glyph glyph-name="greater" unicode="&#x3e;" horiz-adv-x="336" 
d="M127 297v100l-94 137l270 -189l-272 -186z" />
    <glyph glyph-name="question" unicode="?" horiz-adv-x="450" 
d="M286 59l-70 -70l-70 70l70 71zM420 540q2 -42 -10 -72t-31 -51.5t-42 -37.5l-43 -29q-20 -13 -34 -27t-15 -33q0 -14 4 -24t11 -18t14 -15l16 -15l-73 -69q-11 14 -23.5 26.5t-24.5 27.5t-20.5 34t-9.5 46q-1 28 13 51.5t34.5 44t44.5 39t44.5 37t33.5 37.5t11 42
q0 34 -27 57.5t-68 23.5q-37 0 -67.5 -19t-42.5 -65l-84 53q7 22 23 45t41.5 42t60 31.5t76.5 12.5q40 0 74 -13t58.5 -36t39 -55t16.5 -71z" />
    <glyph glyph-name="at" unicode="@" horiz-adv-x="797" 
d="M723 520q12 -22 20 -44.5t11.5 -45t3.5 -45.5q0 -130 -90 -197q-41 -30 -85 -36q-22 -3 -40.5 -1.5t-32.5 7.5q-10 3 -17.5 7.5t-13 9t-10.5 10.5q-5 -3 -8.5 -6t-6.5 -5.5t-6 -5.5h-1q-7 -4 -15 -7.5t-16 -6t-16.5 -4t-17.5 -1.5q-36 -4 -68 9q-64 39 -65 98.5t56 95.5
q54 34 157 40q1 15 -0.5 25t-5.5 15v1q-15 21 -42 28t-49 2q-22 -6 -95 -44l-5 -3l2 6q14 45 34 84v1h1q15 7 31 12t32.5 7t34 2t33.5 -3t31 -9t29 -16h1q8 -7 15.5 -15t12.5 -16.5t9 -17t6 -18t2 -19.5q0 -12 -0.5 -24t-1.5 -26q-2 -26 -2 -38h1l-1 -1v-2.5t-0.5 -4
t-0.5 -5.5t-0.5 -6.5t-0.5 -7.5v-17t1 -13q3 -15 8.5 -22.5t14.5 -7.5q44 -1 77.5 30.5t39.5 82.5q3 26 -4 55t-24 61q-45 76 -128.5 114.5t-165.5 21t-136.5 -70t-75.5 -125.5q-5 -18 -7 -36.5t-1.5 -37.5t4.5 -37.5t11 -38.5q27 -77 78.5 -121t111.5 -59q29 -8 56.5 -11
t52.5 -2q51 3 114 17l6 2l-3 -5q-2 -4 -7 -16l-14 -33l-6 -15l-5 -12l-3 -9l-3 -6q0 -2 -1 -3v-1h-1q-98 -27 -208.5 4.5t-177.5 102t-89.5 164.5t5.5 187.5t98 161t169 92.5q21 5 40.5 8t39.5 3t39 -3q40 -4 75 -14t65.5 -26t56.5 -37t48 -48t39 -59zM344 231
q23 -14 41 -11q9 2 16 3.5t11 2.5q9 2 25 8l12 5l8 3v87q-5 -1 -12.5 -2t-19.5 -3q-10 -1 -18.5 -3t-16.5 -4t-14.5 -4.5t-12 -5t-9.5 -5.5q-12 -8 -18 -18.5t-7 -24.5q0 -5 1.5 -9.5t5 -9t8.5 -9.5z" />
    <glyph glyph-name="A" unicode="A" horiz-adv-x="675" 
d="M665 -1h-110l-68 172h-297l-68 -172h-110l292 701h69zM443 270l-104 254l-105 -254h209z" />
    <glyph glyph-name="B" unicode="B" horiz-adv-x="535" 
d="M403 206q0 26 -10.5 49t-28.5 40t-42 27t-51 10h-69h-53v-232h124q27 0 50.5 8.5t41 23t28 34t10.5 40.5zM330 518q0 17 -8 32t-22 26t-32.5 17.5t-38.5 6.5h-80v-168h83q20 0 37.5 7t31 18.5t21.5 27t8 33.5zM511 207q0 -42 -19 -80t-51.5 -66t-76 -44.5t-92.5 -16.5
h-223v700h180q42 0 79.5 -14t65.5 -39t44 -58t16 -71q0 -32 -13 -61t-36 -52q56 -29 91 -81.5t35 -116.5z" />
    <glyph glyph-name="C" unicode="C" horiz-adv-x="673" 
d="M648 512q-43 46 -108.5 74.5t-140.5 28.5q-55 0 -104 -20t-85.5 -54t-57.5 -79.5t-21 -96.5q0 -58 21.5 -109t58 -89t85.5 -60t105 -22q75 0 139 30.5t106 82.5v-135q-53 -37 -116.5 -57.5t-133.5 -20.5q-75 0 -141.5 30t-116 81.5t-78.5 121t-29 147.5q0 72 29 135.5
t78.5 111t116 75.5t141.5 28q71 0 134.5 -19t117.5 -53v-131z" />
    <glyph glyph-name="D" unicode="D" horiz-adv-x="685" 
d="M556 362q0 49 -21 92t-56.5 75.5t-83 51.5t-99.5 19h-145v-500h145q53 0 100 21t82.5 56.5t56.5 83t21 101.5zM656 365q0 -75 -28.5 -141.5t-77.5 -116t-114.5 -78.5t-139.5 -29h-245v700h243q74 0 140 -26.5t115.5 -72.5t78 -106.5t28.5 -129.5z" />
    <glyph glyph-name="E" unicode="E" horiz-adv-x="515" 
d="M491 0h-440v700h420v-100h-320v-175h243v-100h-243v-223h340v-102z" />
    <glyph glyph-name="F" unicode="F" horiz-adv-x="495" 
d="M471 600h-320v-175h243v-100h-243v-323h-100v698h420v-100z" />
    <glyph glyph-name="G" unicode="G" horiz-adv-x="720" 
d="M679 63q-60 -37 -131.5 -57.5t-150.5 -20.5q-75 0 -141.5 30t-116 81.5t-78.5 121t-29 147.5q0 72 29 135.5t78.5 111t116 75.5t141.5 28t143.5 -19t126.5 -53v-120q-47 41 -116.5 66.5t-150.5 25.5q-55 0 -104 -20t-85.5 -54t-57.5 -79.5t-21 -96.5q0 -58 21.5 -109
t58 -89t85.5 -60t105 -22q97 0 177 37v171h-124v100h224v-330z" />
    <glyph glyph-name="H" unicode="H" horiz-adv-x="658" 
d="M607 0h-100v311h-357v-311h-100v700h100v-289h357v289h100v-700z" />
    <glyph glyph-name="I" unicode="I" 
d="M150 0h-100v700h100v-700z" />
    <glyph glyph-name="J" unicode="J" horiz-adv-x="428" 
d="M387 192q0 -42 -14.5 -80t-40 -66t-59 -44.5t-72.5 -16.5q-34 0 -64 10t-54.5 27.5t-42 41.5t-26.5 53l100 49q0 -33 24 -57t58 -24q18 0 34.5 8.5t28.5 23t19 33.5t7 40v510h102v-508z" />
    <glyph glyph-name="K" unicode="K" horiz-adv-x="610" 
d="M599 0h-134l-316 336v-336h-98v700h100v-273l290 255h134l-336 -296z" />
    <glyph glyph-name="L" unicode="L" horiz-adv-x="480" 
d="M469 1h-418v700h100v-600h318v-100z" />
    <glyph glyph-name="M" unicode="M" horiz-adv-x="790" 
d="M741 0h-98v544l-247 -302l-247 302v-544h-98v699h100l245 -299l245 299h100v-699z" />
    <glyph glyph-name="N" unicode="N" horiz-adv-x="743" 
d="M683 0h-100l-435 543v-543h-97v700h100l434 -541v541h98v-700z" />
    <glyph glyph-name="O" unicode="O" horiz-adv-x="790" 
d="M661 362q0 52 -21 98t-57 80.5t-83.5 54.5t-100.5 20q-55 0 -104 -20t-85.5 -54t-57.5 -79.5t-21 -96.5q0 -58 21.5 -109t58 -89t85.5 -60t105 -22q53 0 100 22t82.5 60t56.5 88t21 107zM761 365q0 -78 -29 -147.5t-78.5 -121t-116 -81.5t-141.5 -30t-141.5 30t-116 81.5
t-78.5 121t-29 147.5q0 72 29 135.5t78.5 111t116 75.5t141.5 28t141.5 -28t116 -75.5t78.5 -111t29 -135.5z" />
    <glyph glyph-name="P" unicode="P" horiz-adv-x="500" 
d="M370 489q0 22 -11 42.5t-30 35.5t-44.5 24t-54.5 9h-79v-222h79q38 0 64.5 9t43.5 24t24.5 35t7.5 43zM470 489q0 -44 -19 -82t-51.5 -67t-76.5 -45.5t-93 -16.5h-79v-277h-100v699h178q49 0 93 -17t77 -45.5t52 -67t19 -81.5z" />
    <glyph glyph-name="Q" unicode="Q" horiz-adv-x="790" 
d="M661 362q0 52 -21 98t-57 80.5t-83.5 54.5t-100.5 20q-55 0 -104 -20t-85.5 -54t-57.5 -79.5t-21 -96.5q0 -58 21.5 -109t58 -89t85.5 -60t105 -22q75 0 138 43l-62 54l65 74l67 -58q24 35 38 76.5t14 87.5zM768 59l-66 -74l-87 77q-46 -37 -102 -57t-117 -20
q-75 0 -141.5 30t-116 81.5t-78.5 121t-29 147.5q0 72 29 135.5t78.5 111t116 75.5t141.5 28t141.5 -28t116 -75.5t78.5 -111t29 -135.5q0 -66 -20.5 -125t-56.5 -107z" />
    <glyph glyph-name="R" unicode="R" horiz-adv-x="580" 
d="M344 501q0 20 -9.5 38t-25.5 31.5t-37.5 21.5t-44.5 8h-76v-201h107q17 0 32.5 8t27.5 22t19 32.5t7 39.5zM568 3h-122l-203 292h-92v-295h-100v700h188q42 0 80 -16t66.5 -43t45.5 -63.5t17 -76.5q0 -57 -27 -103t-72 -76z" />
    <glyph glyph-name="S" unicode="S" horiz-adv-x="433" 
d="M431 211q0 -44 -17 -82t-46 -67t-68 -45.5t-83 -16.5q-75 0 -132.5 39t-81.5 102l88 54q8 -41 43 -68t83 -27q23 0 44 9t36.5 24t24.5 35t9 43q0 39 -23 61.5t-57 39t-74 30.5t-73.5 36t-55.5 56t-21 90q0 36 12.5 68t36 56t56 38t72.5 14q59 0 105.5 -29.5t69.5 -75.5
l-90 -64q-2 14 -9 26.5t-18.5 22t-26.5 15t-31 5.5q-31 0 -54 -22.5t-23 -53.5q0 -32 22.5 -50t56.5 -32t73 -28.5t73 -39t56.5 -63t22.5 -100.5z" />
    <glyph glyph-name="T" unicode="T" horiz-adv-x="558" 
d="M547 600h-218v-600h-100v600h-218v100h536v-100z" />
    <glyph glyph-name="U" unicode="U" horiz-adv-x="688" 
d="M647 282q0 -61 -23.5 -115t-65 -94.5t-96.5 -64t-118 -23.5t-118 23.5t-96.5 64t-65 94.5t-23.5 115v418h100v-417q0 -41 16 -77t43.5 -63t64.5 -42.5t79 -15.5t79 15.5t64.5 42.5t43.5 63t16 77v417h100v-418z" />
    <glyph glyph-name="V" unicode="V" horiz-adv-x="673" 
d="M657 700l-283 -699h-79l-283 699h107l216 -532l215 532h107z" />
    <glyph glyph-name="W" unicode="W" horiz-adv-x="995" 
d="M985 698l-231 -697h-100l-155 507l-155 -507h-100l-231 697h106l175 -527l153 507h104l153 -507l175 527h106z" />
    <glyph glyph-name="X" unicode="X" horiz-adv-x="715" 
d="M705 0h-129l-218 287l-219 -287h-127l282 371l-250 329h126l187 -246l188 246h126l-250 -330z" />
    <glyph glyph-name="Y" unicode="Y" horiz-adv-x="573" 
d="M563 700l-224 -351v-349h-100v349l-224 351h118l156 -244l156 244h118z" />
    <glyph glyph-name="Z" unicode="Z" horiz-adv-x="670" 
d="M655 700l-428 -599h418v-101l-612 1l429 599h-409v100h602z" />
    <glyph glyph-name="bracketleft" unicode="[" horiz-adv-x="288" 
d="M258 795v-87q0 -4 -4 -4h-81l-9 -3v-689h91q3 0 3 -4v-87q0 -3 -4 -3h-179l-5 3v874q1 4 4 4h180q4 0 4 -4z" />
    <glyph glyph-name="backslash" unicode="\" horiz-adv-x="299" 
d="M-1 828h103l203 -976h-110z" />
    <glyph glyph-name="bracketright" unicode="]" horiz-adv-x="288" 
d="M218 -78q-2 -3 -4 -3h-180q-4 0 -4 3v87q0 4 4 4h90v689q2 0 -6 3h-84q-4 0 -4 4v87q0 4 4 4h180l4 -4v-874z" />
    <glyph glyph-name="asciicircum" unicode="^" horiz-adv-x="449" 
d="M219 561q7 7 15 -2l205 -206q6 -4 -2 -4h-125l-87 86l-86 -86h-127q-1 0 -2 1.5t0 2.5z" />
    <glyph glyph-name="underscore" unicode="_" horiz-adv-x="632" 
d="M634 -91l-2 -3h-630q-4 0 -4 6v84l3 4h630l3 -2v-89z" />
    <glyph glyph-name="grave" unicode="`" horiz-adv-x="245" 
d="M30 674l185 -98l-1 -81l-184 95v84z" />
    <glyph glyph-name="a" unicode="&#xaa;" horiz-adv-x="458" 
d="M317 106v94q-38 0 -72 -3t-59 -10.5t-39.5 -21.5t-14.5 -36q0 -32 27.5 -41t66.5 -9q22 0 46.5 7.5t44.5 19.5zM417 0h-100v25q-26 -17 -58.5 -26t-59.5 -9q-34 0 -63.5 10.5t-51.5 29.5t-35 43.5t-13 53.5q0 33 14.5 63t48 52t87 35t131.5 13q0 26 -4 46.5t-15 34
t-30 20.5t-48 7q-43 0 -82 -14.5t-81 -52.5h-10l38 126q28 18 66 29.5t73 11.5q26 0 59.5 -6.5t63 -27.5t50 -61.5t20.5 -107.5v-295z" />
    <glyph glyph-name="a" unicode="a" horiz-adv-x="458" 
d="M317 106v94q-38 0 -72 -3t-59 -10.5t-39.5 -21.5t-14.5 -36q0 -32 27.5 -41t66.5 -9q22 0 46.5 7.5t44.5 19.5zM417 0h-100v25q-26 -17 -58.5 -26t-59.5 -9q-34 0 -63.5 10.5t-51.5 29.5t-35 43.5t-13 53.5q0 33 14.5 63t48 52t87 35t131.5 13q0 26 -4 46.5t-15 34
t-30 20.5t-48 7q-43 0 -82 -14.5t-81 -52.5h-10l38 126q28 18 66 29.5t73 11.5q26 0 59.5 -6.5t63 -27.5t50 -61.5t20.5 -107.5v-295z" />
    <glyph glyph-name="b" unicode="b" horiz-adv-x="550" 
d="M419 237q0 29 -11.5 55t-31.5 45.5t-46 31t-56 11.5q-37 0 -68.5 -12.5t-54.5 -33.5v-199q23 -21 55 -33t68 -12q30 0 56 11.5t46 31.5t31.5 47t11.5 57zM519 237q0 -51 -19.5 -96t-53 -78.5t-78 -53t-94.5 -19.5q-34 0 -65 8.5t-58 24.5v-23h-100v700h100v-254
q27 16 58.5 25t65.5 9q50 0 94.5 -19.5t77.5 -52.5t52.5 -77t19.5 -94z" />
    <glyph glyph-name="c" unicode="c" horiz-adv-x="460" 
d="M435 32q-35 -20 -75 -31t-84 -11q-51 0 -95.5 19.5t-77.5 53t-52.5 78.5t-19.5 96q0 50 19.5 94t53 77t78 52.5t95.5 19.5q44 0 83.5 -11t74.5 -31v-120q-27 28 -68.5 45t-90.5 17q-30 0 -56.5 -11.5t-46 -31t-31 -46t-11.5 -55.5q0 -30 11.5 -57t31 -46.5t46 -31
t56.5 -11.5q49 0 90.5 16.5t68.5 45.5v-120z" />
    <glyph glyph-name="d" unicode="d" horiz-adv-x="550" 
d="M499 0h-100v23q-27 -16 -58 -24.5t-65 -8.5q-50 0 -94.5 19.5t-78 53t-53 78.5t-19.5 96q0 50 19.5 94t52.5 77t77.5 52.5t94.5 19.5q34 0 65.5 -9t58.5 -25v254h100v-700zM399 334q-23 21 -54.5 33.5t-68.5 12.5q-30 0 -56 -11.5t-46 -31t-31.5 -45.5t-11.5 -55
q0 -30 11.5 -57t31.5 -47t46 -31.5t56 -11.5q36 0 68 12t55 33v199z" />
    <glyph glyph-name="e" unicode="e" horiz-adv-x="538" 
d="M398 321q0 16 -10 31t-26.5 26t-38.5 18t-47 7q-45 0 -81 -23.5t-53 -58.5h256zM512 225h-378q6 -29 21.5 -54t38 -43t51.5 -28.5t61 -10.5q52 0 97.5 17t77.5 44v-104q-41 -26 -89.5 -41t-100.5 -15q-54 0 -101.5 21t-82.5 57t-55.5 84.5t-20.5 102.5q0 50 19.5 94
t53 77t78 52.5t95.5 19.5q48 0 94 -15t80 -48t51.5 -85t9.5 -125z" />
    <glyph glyph-name="f" unicode="f" horiz-adv-x="363" 
d="M350 603q-28 16 -51.5 18.5t-46.5 2.5q-28 0 -46 -27t-18 -65v-73h158v-101h-158v-356h-100v357h-80v99h80v94q0 35 13 66t35 54t51.5 36.5t63.5 13.5q23 0 50 -6t49 -14v-99z" />
    <glyph glyph-name="g" unicode="g" horiz-adv-x="480" 
d="M373 -81q0 30 -41.5 51.5t-107.5 27.5q-51 -14 -79.5 -33.5t-28.5 -43.5q0 -26 36.5 -44.5t91.5 -18.5t92 18t37 43zM326 324q0 18 -7 33.5t-18.5 27t-27 18.5t-32.5 7q-18 0 -33.5 -7t-27 -18.5t-18 -27t-6.5 -33.5t6.5 -34t18 -27.5t27 -18.5t33.5 -7q17 0 32.5 7
t27 18.5t18.5 27.5t7 34zM478 -81q0 -34 -18 -63.5t-49.5 -51t-74 -34t-91.5 -12.5q-50 0 -92.5 9t-74.5 29t-50 51t-18 75q8 44 35 75.5t66 46.5q-16 17 -27.5 39.5t-11.5 48.5q0 20 7.5 39t21.5 33q-45 48 -45 119q0 38 14.5 72t39.5 59.5t59 40.5t72 15q29 0 56.5 -9
t50.5 -26h114v-95h-41q5 -14 7.5 -27.5t2.5 -27.5q0 -35 -12 -66t-32 -55t-47 -39t-58 -19q-5 -1 -10 -1h-9q-36 0 -63 7q-7 -4 -11.5 -7t-4.5 -8q0 -9 4 -15t13 -10t24 -8l36 -11q42 -8 81 -20t69 -32t48.5 -49.5t18.5 -72.5z" />
    <glyph glyph-name="h" unicode="h" horiz-adv-x="523" 
d="M483 0h-100v285q0 19 -8.5 36.5t-23.5 30.5t-35 20.5t-43 7.5q-38 0 -70 -18.5t-52 -47.5v-314h-100v700h100v-254q27 16 58 25t65 9q42 0 79.5 -15.5t66.5 -42.5t46 -62.5t17 -74.5v-285z" />
    <glyph glyph-name="i" unicode="i" 
d="M150 0h-99v474h99v-474zM171 598l-70 -70l-70 70l70 71z" />
    <glyph glyph-name="j" unicode="j" 
d="M150 0q0 -63 -8.5 -109t-31.5 -76t-63.5 -44t-103.5 -14v100q36 0 57.5 9t32.5 27t14.5 44.5t3.5 62.5v474h99v-474zM171 598l-70 -70l-70 70l70 71z" />
    <glyph glyph-name="k" unicode="k" horiz-adv-x="515" 
d="M506 -1h-140l-215 227v-226h-100v700h100v-380l162 139h152l-217 -190z" />
    <glyph glyph-name="l" unicode="l" horiz-adv-x="325" 
d="M325 24q-23 -16 -53 -25.5t-56 -9.5q-36 0 -67 12t-54 33.5t-36 50.5t-13 63v550h100v-520q0 -39 20 -64t50 -25q26 0 56 9.5t53 26.5v-101z" />
    <glyph glyph-name="m" unicode="m" horiz-adv-x="835" 
d="M796 0h-100v282q0 19 -8.5 36.5t-23.5 30.5t-35 20.5t-43 7.5q-32 0 -61 -17t-52 -46v-314h-100v282q0 19 -8.5 36.5t-23.5 30.5t-35 20.5t-43 7.5q-34 0 -62.5 -11t-47.5 -30v-336h-102v475h103v-29q27 16 58 25t65 9q43 0 81 -20t66 -52q40 34 84 53t92 19
q39 0 74.5 -16t62.5 -43t43 -63t16 -76v-282z" />
    <glyph glyph-name="n" unicode="n" horiz-adv-x="523" 
d="M483 0h-100v285q0 19 -8.5 36.5t-23.5 30.5t-35 20.5t-43 7.5q-38 0 -70 -12t-52 -32v-336h-100v475h100v-29q27 16 58 25t65 9q42 0 79.5 -15.5t66.5 -42.5t46 -62.5t17 -74.5v-285z" />
    <glyph glyph-name="o" unicode="o" horiz-adv-x="550" 
d="M421 237q0 29 -11.5 55t-31.5 45.5t-46 31t-56 11.5t-56.5 -11.5t-46 -31t-31 -46t-11.5 -55.5q0 -30 11.5 -57t31 -46.5t46 -31t56.5 -11.5t56 11.5t46 31.5t31.5 47t11.5 57zM521 237q0 -51 -19.5 -96t-53 -78.5t-78 -53t-94.5 -19.5q-51 0 -95.5 19.5t-77.5 53
t-52.5 78.5t-19.5 96q0 50 19.5 94t53 77t78 52.5t95.5 19.5q50 0 94.5 -19.5t77.5 -52.5t52.5 -77t19.5 -94z" />
    <glyph glyph-name="p" unicode="p" horiz-adv-x="555" 
d="M424 237q0 29 -11.5 55t-31.5 45.5t-46 31t-56 11.5q-39 0 -72 -13.5t-56 -35.5v-186q23 -26 56 -40.5t72 -14.5q30 0 56 11.5t46 31.5t31.5 47t11.5 57zM524 237q0 -51 -19.5 -96t-53 -78.5t-78 -53t-94.5 -19.5q-35 0 -67.5 9.5t-60.5 26.5v-251h-100v700h100v-27
q29 15 61 23.5t68 8.5q50 0 94.5 -19.5t77.5 -52.5t52.5 -77t19.5 -94z" />
    <glyph glyph-name="q" unicode="q" horiz-adv-x="555" 
d="M404 145v186q-23 22 -56 35.5t-72 13.5q-30 0 -56 -11.5t-46 -31t-31.5 -45.5t-11.5 -55q0 -30 11.5 -57t31.5 -47t46 -31.5t56 -11.5q39 0 72 14.5t56 40.5zM504 -225h-100v251q-28 -17 -60.5 -26.5t-67.5 -9.5q-50 0 -94.5 19.5t-78 53t-53 78.5t-19.5 96q0 50 19.5 94
t52.5 77t77.5 52.5t94.5 19.5q36 0 68 -8.5t61 -23.5v27h100v-700z" />
    <glyph glyph-name="r" unicode="r" horiz-adv-x="365" 
d="M355 329q-29 30 -54 36t-38 6q-16 0 -31.5 -2.5t-30.5 -10t-28 -22t-24 -38.5v-298h-99v475h100v-40q56 45 114 45q26 0 48.5 -6.5t42.5 -17.5v-127z" />
    <glyph glyph-name="s" unicode="s" horiz-adv-x="440" 
d="M416 146q0 -46 -16.5 -77t-44 -50t-65 -27t-79.5 -8q-51 0 -95.5 17.5t-79.5 49.5v135q24 -48 70 -75t103 -27q8 0 26 0.5t36 6t32 17t14 34.5q0 21 -20.5 31.5t-51.5 17.5l-67 15q-36 8 -67 24t-51.5 44t-20.5 77q0 30 13.5 56.5t36.5 46.5t54 31.5t66 11.5
q45 0 86.5 -12.5t76.5 -34.5v-115q-29 28 -71 45t-92 17q-29 0 -49.5 -9t-20.5 -37q0 -24 20.5 -36t51.5 -19.5t66.5 -15t66.5 -22.5t51.5 -41t20.5 -71z" />
    <glyph glyph-name="t" unicode="t" horiz-adv-x="430" 
d="M421 375h-201v-197q0 -39 20 -64t50 -25q26 0 56 9.5t53 26.5v-101q-23 -16 -53 -25.5t-56 -9.5q-36 0 -67 12t-54 33.5t-36 50.5t-13 63v227h-99v100h99v95h100v-95h201v-100z" />
    <glyph glyph-name="u" unicode="u" horiz-adv-x="525" 
d="M476 0h-100v30q-58 -40 -127 -40q-31 0 -67 10t-67.5 34t-52.5 63.5t-21 97.5v280h100v-262q0 -25 8.5 -46.5t23.5 -37.5t34.5 -25t41.5 -9q36 0 68.5 8.5t58.5 26.5v345h100v-475z" />
    <glyph glyph-name="v" unicode="v" horiz-adv-x="555" 
d="M544 477l-214 -475h-104l-214 473h109l156 -346l158 348h109z" />
    <glyph glyph-name="w" unicode="w" horiz-adv-x="780" 
d="M766 474l-173 -476h-100l-104 280l-105 -280h-100l-173 476h106l117 -321l107 281h95l107 -281l117 321h106z" />
    <glyph glyph-name="x" unicode="x" horiz-adv-x="490" 
d="M488 -2h-125l-116 157l-117 -157h-125l180 241l-177 236h124l115 -153l114 153h124l-176 -237z" />
    <glyph glyph-name="y" unicode="y" horiz-adv-x="565" 
d="M552 475l-311 -587q-29 -55 -84 -89q-55 -33 -117 -33v100q35 0 66 19t48 50l70 134l-211 406h113l155 -298l160 298h111z" />
    <glyph glyph-name="z" unicode="z" horiz-adv-x="498" 
d="M488 475l-279 -375h261v-100h-462l281 375h-257v100h456z" />
    <glyph glyph-name="bar" unicode="|" 
d="M150 0h-100v700h100v-700z" />
    <glyph glyph-name="asciitilde" unicode="~" horiz-adv-x="452" 
d="M435 332q-18 -48 -56 -77q-54 -42 -129 -14q-35 10 -45.5 16t-42.5 15q-91 25 -129 -8l-4 -1q19 49 56 76q43 40 120 17q34 -10 64.5 -24t83.5 -23.5t77 21.5q3 4 4 2h1z" />
    <glyph glyph-name="uni00A0" unicode="&#xa0;" horiz-adv-x="250" 
 />
    <glyph glyph-name="exclamdown" unicode="&#xa1;" 
d="M33 632l68 68l72 -69l-68 -68zM56 73l21 456h56l23 -456v-88h-100v88z" />
    <glyph glyph-name="cent" unicode="&#xa2;" horiz-adv-x="414" 
d="M266 227q81 0 128 49v-96q-20 -20 -103 -28v-62q0 -2 -3 -2h-70q-2 0 -2 2v63q-47 13 -81 46q-65 63 -65 145q0 40 16 75.5t55 69.5t75 43v61q0 3 3 3h70l2 -2v-60q82 -9 103 -29v-96q-22 23 -55 36.5t-65 13.5t-53 -9.5t-37 -24.5q-34 -34 -34 -81q0 -49 34 -83t82 -34z
" />
    <glyph glyph-name="sterling" unicode="&#xa3;" horiz-adv-x="620" 
d="M609 100l-53 -100h-503q17 27 31 59.5t24.5 67.5t16.5 71t6 70h-91l44 100h47q0 104 16.5 171.5t44.5 106.5t65.5 54.5t80.5 15.5q42 0 82.5 -21t66.5 -55l-76 -120q0 40 -21.5 68t-51.5 28q-21 0 -40 -9.5t-33.5 -36.5t-22.5 -75.5t-8 -126.5h192l-44 -100h-148
q0 -41 -8 -87t-20 -81h403z" />
    <glyph glyph-name="yen" unicode="&#xa5;" horiz-adv-x="1000" 
d="M1000 348l-635 -187l126 136h-29h-462v100h463h28l-124 139z" />
    <glyph glyph-name="brokenbar" unicode="&#xa6;" horiz-adv-x="251" 
d="M70 312h110v-312h-110v312zM180 700v-312h-110v312h110z" />
    <glyph glyph-name="section" unicode="&#xa7;" horiz-adv-x="517" 
d="M220 425q-116 -89 -36 -129q2 0 74.5 -33.5t103.5 -60.5q1 1 2.5 3.5t2.5 3.5q21 21 21 70t-63 97.5t-105 48.5zM256 647q-95 -61 -11 -124q5 -4 59.5 -27.5t103 -54.5t70 -88t8.5 -125.5t-67 -111.5q18 -53 6 -111.5t-53 -101.5t-105.5 -58t-122.5 8t-89 74
q-24 43 -27 52l85 35q16 -34 40 -54t50 -21q73 -5 103 43q18 30 21 64.5t-18 63.5q-28 34 -107 68q-38 17 -56 27q-84 44 -99 100q-24 86 24 146q22 28 54 47q-12 15 -17 34q-23 85 25 146q34 44 83.5 60.5t94.5 6t79 -37t48 -58.5l-90 -43q-34 76 -92 41z" />
    <glyph glyph-name="dieresis" unicode="&#xa8;" horiz-adv-x="375" 
d="M344 598l-70 -70l-70 70l70 71zM171 598l-70 -70l-70 70l70 71z" />
    <glyph glyph-name="copyright" unicode="&#xa9;" horiz-adv-x="790" 
d="M529 188q-28 -16 -60 -25t-68 -9q-40 0 -76 15.5t-62 42.5t-42 63t-16 77q0 40 16 75t42.5 61.5t62 42t76.5 15.5q35 0 67 -9t60 -25v-96q-22 23 -55 36.5t-73 13.5q-24 0 -45 -9t-36.5 -25t-25 -37t-9.5 -44q0 -24 9.5 -45.5t25 -37.5t36.5 -25t45 -9q40 0 73 13t55 37
v-96zM661 362q0 52 -21 98t-57 80.5t-83.5 54.5t-100.5 20q-55 0 -104 -20t-85.5 -54t-57.5 -79.5t-21 -96.5q0 -58 21.5 -109t58 -89t85.5 -60t105 -22q53 0 100 22t82.5 60t56.5 88t21 107zM761 365q0 -78 -29 -147.5t-78.5 -121t-116 -81.5t-141.5 -30t-141.5 30
t-116 81.5t-78.5 121t-29 147.5q0 72 29 135.5t78.5 111t116 75.5t141.5 28t141.5 -28t116 -75.5t78.5 -111t29 -135.5z" />
    <glyph glyph-name="guillemotleft" unicode="&#xab;" horiz-adv-x="3033" 
d="M549 397h606q11 63 43.5 119.5t80.5 98.5t108.5 66.5t127.5 24.5q71 0 133.5 -24.5t111.5 -66.5t81.5 -98.5t43.5 -119.5h467l127 136h139l-127 -136h67l127 136h140l-128 -136h68l126 136h140l-128 -136h68h60v-100h-60h-68l128 -136h-140l-126 136h-68l128 -136h-140
l-127 136h-67l127 -136h-139l-127 136h-467q-11 -68 -43.5 -123.5t-81.5 -95t-111.5 -61t-133.5 -21.5q-67 0 -127.5 21.5t-108.5 61t-80.5 95t-43.5 123.5h-605h-29l126 -136l-635 187l633 188l-124 -139h28zM1255 346q0 -53 21 -100t56.5 -82.5t83 -56.5t99.5 -21
q49 0 93 16t79.5 44t61 67t36.5 84h-271v100h271q-11 45 -36.5 83t-61 66t-79.5 44t-93 16q-52 0 -99.5 -21t-83 -56.5t-56.5 -83t-21 -99.5z" />
    <glyph glyph-name="logicalnot" unicode="&#xac;" horiz-adv-x="497" 
d="M34 299v62h429v-257h-66v195h-363z" />
    <glyph glyph-name="registered" unicode="&#xae;" horiz-adv-x="790" 
d="M542 409q-24 24 -44 29t-30 5q-13 0 -25.5 -2t-24.5 -8t-22 -17.5t-19 -31.5v-238h-79v380h80v-32q44 36 91 36q20 0 38.5 -5t34.5 -14v-102zM661 362q0 52 -21 98t-57 80.5t-83.5 54.5t-100.5 20q-55 0 -104 -20t-85.5 -54t-57.5 -79.5t-21 -96.5q0 -58 21.5 -109
t58 -89t85.5 -60t105 -22q53 0 100 22t82.5 60t56.5 88t21 107zM761 365q0 -78 -29 -147.5t-78.5 -121t-116 -81.5t-141.5 -30t-141.5 30t-116 81.5t-78.5 121t-29 147.5q0 72 29 135.5t78.5 111t116 75.5t141.5 28t141.5 -28t116 -75.5t78.5 -111t29 -135.5z" />
    <glyph glyph-name="macron" unicode="&#xaf;" horiz-adv-x="347" 
d="M327 509l-2 -3h-300q-5 0 -5 7v84l3 3h300l4 -2v-89z" />
    <glyph glyph-name="degree" unicode="&#xb0;" horiz-adv-x="357" 
d="M332 533q0 -63 -44.5 -108t-107.5 -45q-64 0 -108.5 45t-44.5 108t44.5 107.5t108.5 44.5q63 0 107.5 -44.5t44.5 -107.5zM246 533q0 27 -19.5 46.5t-46.5 19.5q-28 0 -47.5 -19.5t-19.5 -46.5q0 -28 19.5 -47t47.5 -19q27 0 46.5 19t19.5 47z" />
    <glyph glyph-name="plusminus" unicode="&#xb1;" horiz-adv-x="501" 
d="M443 305h-144v-151h-98v151h-143v98h143v151h98v-151h144v-98zM439 1h-378v98h378v-98z" />
    <glyph glyph-name="uni00B2" unicode="&#xb2;" horiz-adv-x="620" 
d="M516 -1h-410l260 421q10 22 16.5 51t6.5 55q-6 40 -34 64.5t-69 24.5q-33 0 -61.5 -16.5t-51 -39.5t-38.5 -48t-26 -42v169q34 35 80 56t99 21q43 0 80.5 -15t65.5 -41t44 -60.5t16 -72.5q1 -53 -12 -90t-35 -73l-161 -264h230v-100z" />
    <glyph glyph-name="uni00B3" unicode="&#xb3;" horiz-adv-x="620" 
d="M539 209q0 -45 -19 -85t-51 -69.5t-75.5 -47t-92.5 -17.5q-71 0 -128 35.5t-88 93.5l76 64q17 -42 54.5 -67.5t85.5 -25.5q27 0 50.5 9.5t41 25.5t27.5 38t10 46q0 29 -11 54.5t-30 44t-44.5 29.5t-54.5 11q-19 0 -41.5 -1t-40.5 -3l149 257h-263v99h435l-155 -270
q36 -12 66.5 -33.5t52 -50.5t34 -64t12.5 -73z" />
    <glyph glyph-name="acute" unicode="&#xb4;" horiz-adv-x="273" 
d="M239 874v-83l-185 -96v81z" />
    <glyph glyph-name="uni00B5" unicode="&#xb5;" horiz-adv-x="501" 
d="M243 -11q-60 -3 -110 25v-122q0 -4 -3 -4h-86q-4 0 -4 4v550h91v-1q5 0 4 -3v-282q7 -29 32.5 -50t61.5 -27t71 6q54 22 66 71v282l4 4h88l1 -1h2v-439l-4 -3h-88q-1 1 -1 3v15q-38 -34 -125 -28z" />
    <glyph glyph-name="paragraph" unicode="&#xb6;" horiz-adv-x="579" 
d="M509 607h-56v-667h-74v667h-73v-667h-73v373h-17q-80 0 -132 48.5t-52 132.5q0 45 23 85.5t67.5 64t125.5 23.5h261v-60z" />
    <glyph glyph-name="periodcentered" unicode="&#xb7;" horiz-adv-x="160" 
d="M130 161h-100v97h100v-97z" />
    <glyph glyph-name="cedilla" unicode="&#xb8;" horiz-adv-x="230" 
d="M185 -129q-46 -47 -165 -47v83q36 -8 82 19q14 9 14 55v23h95l-1 -65q0 -43 -25 -68z" />
    <glyph glyph-name="uni00B9" unicode="&#xb9;" horiz-adv-x="310" 
d="M205 0h-100v606l100 117v-723z" />
    <glyph glyph-name="ordmasculine" unicode="&#xba;" horiz-adv-x="366" 
d="M335 516q0 -63 -44.5 -108t-107.5 -45q-64 0 -108.5 45t-44.5 108t44.5 107.5t108.5 44.5q63 0 107.5 -44.5t44.5 -107.5zM249 516q0 27 -19.5 46.5t-46.5 19.5q-28 0 -47.5 -19.5t-19.5 -46.5q0 -28 19.5 -47t47.5 -19q27 0 46.5 19t19.5 47zM336 241l-2 -4h-297
q-5 0 -5 7v84l4 4h297l3 -3v-88z" />
    <glyph glyph-name="guillemotright" unicode="&#xbb;" horiz-adv-x="3033" 
d="M2484 397h28l-124 139l633 -188l-635 -187l126 136h-29h-605q-11 -68 -43.5 -123.5t-80.5 -95t-108.5 -61t-127.5 -21.5q-71 0 -133.5 21.5t-111.5 61t-81.5 95t-43.5 123.5h-467l-127 -136h-139l127 136h-67l-127 -136h-140l128 136h-68l-126 -136h-140l128 136h-68h-60
v100h60h68l-128 136h140l126 -136h68l-128 136h140l127 -136h67l-127 136h139l127 -136h467q11 63 43.5 119.5t81.5 98.5t111.5 66.5t133.5 24.5q67 0 127.5 -24.5t108.5 -66.5t80.5 -98.5t43.5 -119.5h606zM1778 346q0 52 -21 99.5t-56.5 83t-83 56.5t-99.5 21
q-49 0 -93 -16t-79.5 -44t-61 -66t-36.5 -83h271v-100h-271q11 -45 36.5 -84t61 -67t79.5 -44t93 -16q52 0 99.5 21t83 56.5t56.5 82.5t21 100z" />
    <glyph glyph-name="onehalf" unicode="&#xbd;" horiz-adv-x="790" 
d="M433 430q0 10 -5 19.5t-13.5 17t-20 11.5t-23.5 4h-40v-106h56q9 0 17.5 4t14.5 11.5t10 17.5t4 21zM551 167h-64l-108 154h-48v-156h-53v370h99q22 0 42.5 -8.5t35.5 -23t24 -33.5t9 -40q0 -30 -14.5 -54.5t-38.5 -40.5zM661 362q0 52 -21 98t-57 80.5t-83.5 54.5
t-100.5 20q-55 0 -104 -20t-85.5 -54t-57.5 -79.5t-21 -96.5q0 -58 21.5 -109t58 -89t85.5 -60t105 -22q53 0 100 22t82.5 60t56.5 88t21 107zM761 365q0 -78 -29 -147.5t-78.5 -121t-116 -81.5t-141.5 -30t-141.5 30t-116 81.5t-78.5 121t-29 147.5q0 72 29 135.5t78.5 111
t116 75.5t141.5 28t141.5 -28t116 -75.5t78.5 -111t29 -135.5z" />
    <glyph glyph-name="questiondown" unicode="&#xbf;" horiz-adv-x="450" 
d="M165 645l70 70l70 -70l-70 -71zM31 164q-2 42 10 72t31 51.5t42 37.5l43 29q20 13 34 27t15 33q0 14 -4 24t-11 18t-14 15l-16 15l73 69q11 -14 23.5 -26.5t24.5 -27.5t20.5 -34t9.5 -46q1 -28 -13 -51.5t-34.5 -44t-44.5 -39t-44.5 -37t-33.5 -37.5t-11 -42
q0 -34 27 -57.5t68 -23.5q37 0 67.5 19t42.5 65l84 -53q-7 -22 -23 -45t-41.5 -42t-60 -31.5t-76.5 -12.5q-40 0 -74 13t-58.5 36t-39 55t-16.5 71z" />
    <glyph glyph-name="Agrave" unicode="&#xc0;" horiz-adv-x="675" 
d="M154 954l186 -98l-2 -81l-184 95v84zM665 -1h-110l-68 172h-297l-68 -172h-110l292 701h69zM443 270l-104 254l-105 -254h209z" />
    <glyph glyph-name="Aacute" unicode="&#xc1;" horiz-adv-x="675" 
d="M524 954v-83l-186 -96v81zM665 -1h-110l-68 172h-297l-68 -172h-110l292 701h69zM443 270l-104 254l-105 -254h209z" />
    <glyph glyph-name="Acircumflex" unicode="&#xc2;" horiz-adv-x="675" 
d="M338 952l164 -176l-102 -1l-62 68l-62 -68h-100zM665 -1h-110l-68 172h-297l-68 -172h-110l292 701h69zM443 270l-104 254l-105 -254h209z" />
    <glyph glyph-name="Atilde" unicode="&#xc3;" horiz-adv-x="675" 
d="M519 876q-20 -48 -57 -77q-49 -39 -129 -14q-1 0 -19 7.5t-22 9.5q-41 14 -70.5 14t-56.5 -23q-4 -5 -7 -1q17 46 56 77q46 36 121 16q7 -2 17 -6l20 -8q11 -4 13 -5q81 -29 126 10q4 3 5 2.5t2 -1.5zM665 -1h-110l-68 172h-297l-68 -172h-110l292 701h69zM443 270
l-104 254l-105 -254h209z" />
    <glyph glyph-name="Adieresis" unicode="&#xc4;" horiz-adv-x="675" 
d="M495 845l-70 -70l-70 70l70 71zM322 845l-70 -70l-70 70l70 71zM665 -1h-110l-68 172h-297l-68 -172h-110l292 701h69zM443 270l-104 254l-105 -254h209z" />
    <glyph glyph-name="Aring" unicode="&#xc5;" horiz-adv-x="675" 
d="M427 798q0 -37 -26 -63t-63 -26q-36 0 -62 26t-26 63q0 36 26 62t62 26q37 0 63 -26t26 -62zM377 798q0 16 -11.5 27t-27.5 11t-27 -11t-11 -27t11 -27.5t27 -11.5t27.5 11.5t11.5 27.5zM665 -1h-110l-68 172h-297l-68 -172h-110l292 701h69zM443 270l-104 254l-105 -254
h209z" />
    <glyph glyph-name="AE" unicode="&#xc6;" horiz-adv-x="1018" 
d="M994 0l-439 -1v1h-1v2v169h-299l-114 -172h-129l474 701h488v-100h-320v-175h243v-100h-243v-223h340v-102zM551 270l1 330l-238 -330h237z" />
    <glyph glyph-name="Ccedilla" unicode="&#xc7;" horiz-adv-x="673" 
d="M418 -142q-46 -47 -165 -47v83q35 -8 82 19q14 9 14 55v23h94v-65q-1 -43 -25 -68zM648 512q-43 46 -108.5 74.5t-140.5 28.5q-55 0 -104 -20t-85.5 -54t-57.5 -79.5t-21 -96.5q0 -58 21.5 -109t58 -89t85.5 -60t105 -22q75 0 139 30.5t106 82.5v-135
q-53 -37 -116.5 -57.5t-133.5 -20.5q-75 0 -141.5 30t-116 81.5t-78.5 121t-29 147.5q0 72 29 135.5t78.5 111t116 75.5t141.5 28q71 0 134.5 -19t117.5 -53v-131z" />
    <glyph glyph-name="Egrave" unicode="&#xc8;" horiz-adv-x="515" 
d="M77 954l185 -98l-1 -81l-184 95v84zM491 0h-440v700h420v-100h-320v-175h243v-100h-243v-223h340v-102z" />
    <glyph glyph-name="Eacute" unicode="&#xc9;" horiz-adv-x="515" 
d="M446 954v-83l-185 -96v81zM491 0h-440v700h420v-100h-320v-175h243v-100h-243v-223h340v-102z" />
    <glyph glyph-name="Ecircumflex" unicode="&#xca;" horiz-adv-x="515" 
d="M261 952l163 -176l-101 -1l-62 68l-63 -68h-100zM491 0h-440v700h420v-100h-320v-175h243v-100h-243v-223h340v-102z" />
    <glyph glyph-name="Edieresis" unicode="&#xcb;" horiz-adv-x="515" 
d="M418 845l-70 -70l-70 70l70 71zM244 845l-70 -70l-70 70l70 71zM491 0h-440v700h420v-100h-320v-175h243v-100h-243v-223h340v-102z" />
    <glyph glyph-name="Igrave" unicode="&#xcc;" 
d="M-84 954l185 -98l-1 -81l-184 95v84zM150 0h-100v700h100v-700z" />
    <glyph glyph-name="Iacute" unicode="&#xcd;" 
d="M285 954v-83l-185 -96v81zM150 0h-100v700h100v-700z" />
    <glyph glyph-name="Icircumflex" unicode="&#xce;" 
d="M100 952l163 -176l-101 -1l-62 68l-63 -68h-100zM150 0h-100v700h100v-700z" />
    <glyph glyph-name="Idieresis" unicode="&#xcf;" 
d="M256 845l-70 -70l-70 70l70 71zM84 845l-70 -70l-70 70l70 71zM150 0h-100v700h100v-700z" />
    <glyph glyph-name="Ntilde" unicode="&#xd1;" horiz-adv-x="743" 
d="M548 876q-20 -48 -58 -77q-49 -39 -129 -14q-1 0 -19 7.5t-22 9.5q-41 14 -70.5 14t-56.5 -23q-4 -5 -7 -1q17 46 56 77q46 36 121 16q7 -2 17 -6l21 -8q10 -4 12 -5q81 -29 126 10q4 3 5 2.5t2 -1.5zM683 0h-100l-435 543v-543h-97v700h100l434 -541v541h98v-700z" />
    <glyph glyph-name="Ograve" unicode="&#xd2;" horiz-adv-x="790" 
d="M212 954l185 -98l-1 -81l-184 95v84zM661 362q0 52 -21 98t-57 80.5t-83.5 54.5t-100.5 20q-55 0 -104 -20t-85.5 -54t-57.5 -79.5t-21 -96.5q0 -58 21.5 -109t58 -89t85.5 -60t105 -22q53 0 100 22t82.5 60t56.5 88t21 107zM761 365q0 -78 -29 -147.5t-78.5 -121
t-116 -81.5t-141.5 -30t-141.5 30t-116 81.5t-78.5 121t-29 147.5q0 72 29 135.5t78.5 111t116 75.5t141.5 28t141.5 -28t116 -75.5t78.5 -111t29 -135.5z" />
    <glyph glyph-name="Oacute" unicode="&#xd3;" horiz-adv-x="790" 
d="M581 954v-83l-185 -96v81zM661 362q0 52 -21 98t-57 80.5t-83.5 54.5t-100.5 20q-55 0 -104 -20t-85.5 -54t-57.5 -79.5t-21 -96.5q0 -58 21.5 -109t58 -89t85.5 -60t105 -22q53 0 100 22t82.5 60t56.5 88t21 107zM761 365q0 -78 -29 -147.5t-78.5 -121t-116 -81.5
t-141.5 -30t-141.5 30t-116 81.5t-78.5 121t-29 147.5q0 72 29 135.5t78.5 111t116 75.5t141.5 28t141.5 -28t116 -75.5t78.5 -111t29 -135.5z" />
    <glyph glyph-name="Ocircumflex" unicode="&#xd4;" horiz-adv-x="790" 
d="M396 952l163 -176l-101 -1l-62 68l-63 -68h-100zM661 362q0 52 -21 98t-57 80.5t-83.5 54.5t-100.5 20q-55 0 -104 -20t-85.5 -54t-57.5 -79.5t-21 -96.5q0 -58 21.5 -109t58 -89t85.5 -60t105 -22q53 0 100 22t82.5 60t56.5 88t21 107zM761 365q0 -78 -29 -147.5
t-78.5 -121t-116 -81.5t-141.5 -30t-141.5 30t-116 81.5t-78.5 121t-29 147.5q0 72 29 135.5t78.5 111t116 75.5t141.5 28t141.5 -28t116 -75.5t78.5 -111t29 -135.5z" />
    <glyph glyph-name="Otilde" unicode="&#xd5;" horiz-adv-x="790" 
d="M576 876q-19 -48 -57 -77q-49 -39 -129 -14q-1 0 -19 7.5t-22 9.5q-41 14 -70.5 14t-56.5 -23q-4 -5 -7 -1q17 46 56 77q46 36 121 16q7 -2 17 -6l21 -8q10 -4 12 -5q81 -29 126 10q4 3 5 2.5l3 -1.5v-1zM661 362q0 52 -21 98t-57 80.5t-83.5 54.5t-100.5 20
q-55 0 -104 -20t-85.5 -54t-57.5 -79.5t-21 -96.5q0 -58 21.5 -109t58 -89t85.5 -60t105 -22q53 0 100 22t82.5 60t56.5 88t21 107zM761 365q0 -78 -29 -147.5t-78.5 -121t-116 -81.5t-141.5 -30t-141.5 30t-116 81.5t-78.5 121t-29 147.5q0 72 29 135.5t78.5 111t116 75.5
t141.5 28t141.5 -28t116 -75.5t78.5 -111t29 -135.5z" />
    <glyph glyph-name="Odieresis" unicode="&#xd6;" horiz-adv-x="790" 
d="M552 845l-70 -70l-70 70l70 71zM380 845l-70 -70l-70 70l70 71zM661 362q0 52 -21 98t-57 80.5t-83.5 54.5t-100.5 20q-55 0 -104 -20t-85.5 -54t-57.5 -79.5t-21 -96.5q0 -58 21.5 -109t58 -89t85.5 -60t105 -22q53 0 100 22t82.5 60t56.5 88t21 107zM761 365
q0 -78 -29 -147.5t-78.5 -121t-116 -81.5t-141.5 -30t-141.5 30t-116 81.5t-78.5 121t-29 147.5q0 72 29 135.5t78.5 111t116 75.5t141.5 28t141.5 -28t116 -75.5t78.5 -111t29 -135.5z" />
    <glyph glyph-name="multiply" unicode="&#xd7;" horiz-adv-x="497" 
d="M431 505l-127 -164l146 -181h-117l-83 120l-82 -119h-104q-2 0 -1.5 2t1.5 4l1 3l128 169l-127 165l-1 6h110l76 -103l79 103h100z" />
    <glyph glyph-name="Oslash" unicode="&#xd8;" horiz-adv-x="790" 
d="M761 365q0 -78 -29 -147.5t-78.5 -121t-116 -81.5t-141.5 -30q-64 0 -122 22l-32 -65h-110l55 112q-26 19 -48 42q-50 52 -79 121.5t-29 147.5q0 72 29 135.5t78.5 111t116 75.5t141.5 28q56 0 107 -16l40 82h103l-58 -120q36 -21 66 -49q49 -48 78 -111.5t29 -135.5z
M661 362q0 52 -21 98t-57 81q-18 16 -38 30l-227 -473q39 -13 83 -13q53 0 100 22t82.5 60t56.5 88t21 107zM458 608q-28 7 -59 7q-55 0 -104 -20t-85.5 -54t-57.5 -79.5t-21 -96.5q0 -58 21.5 -109t58.5 -89q10 -11 21 -20z" />
    <glyph glyph-name="Ugrave" unicode="&#xd9;" horiz-adv-x="563" 
d="M548 -3h-115l-151 258l-152 -258h-115l209 356l-204 347h115l147 -249l146 249h115l-204 -347z" />
    <glyph glyph-name="Uacute" unicode="&#xda;" horiz-adv-x="688" 
d="M529 954v-83l-185 -96v81zM647 282q0 -61 -23.5 -115t-65 -94.5t-96.5 -64t-118 -23.5t-118 23.5t-96.5 64t-65 94.5t-23.5 115v418h100v-417q0 -41 16 -77t43.5 -63t64.5 -42.5t79 -15.5t79 15.5t64.5 42.5t43.5 63t16 77v417h100v-418z" />
    <glyph glyph-name="Ucircumflex" unicode="&#xdb;" horiz-adv-x="688" 
d="M344 952l163 -176l-101 -1l-62 68l-63 -68h-100zM647 282q0 -61 -23.5 -115t-65 -94.5t-96.5 -64t-118 -23.5t-118 23.5t-96.5 64t-65 94.5t-23.5 115v418h100v-417q0 -41 16 -77t43.5 -63t64.5 -42.5t79 -15.5t79 15.5t64.5 42.5t43.5 63t16 77v417h100v-418z" />
    <glyph glyph-name="Udieresis" unicode="&#xdc;" horiz-adv-x="688" 
d="M500 845l-70 -70l-70 70l70 71zM328 845l-70 -70l-70 70l70 71zM647 282q0 -61 -23.5 -115t-65 -94.5t-96.5 -64t-118 -23.5t-118 23.5t-96.5 64t-65 94.5t-23.5 115v418h100v-417q0 -41 16 -77t43.5 -63t64.5 -42.5t79 -15.5t79 15.5t64.5 42.5t43.5 63t16 77v417h100
v-418z" />
    <glyph glyph-name="Yacute" unicode="&#xdd;" horiz-adv-x="573" 
d="M474 954v-83l-185 -96v81zM563 700l-224 -351v-349h-100v349l-224 351h118l156 -244l156 244h118z" />
    <glyph glyph-name="Thorn" unicode="&#xde;" horiz-adv-x="555" 
d="M424 237q0 29 -11.5 55t-31.5 45.5t-46 31t-56 11.5q-39 0 -72 -13.5t-56 -35.5v-186q23 -26 56 -40.5t72 -14.5q30 0 56 11.5t46 31.5t31.5 47t11.5 57zM524 237q0 -51 -19.5 -96t-53 -78.5t-78 -53t-94.5 -19.5q-35 0 -67.5 9.5t-60.5 26.5v-227h-100v784h100v-135
q29 15 61 23.5t68 8.5q50 0 94.5 -19.5t77.5 -52.5t52.5 -77t19.5 -94z" />
    <glyph glyph-name="germandbls" unicode="&#xdf;" horiz-adv-x="594" 
d="M525 223.5q33 -28.5 38 -70.5t-13.5 -82t-57.5 -58q-63 -28 -141.5 -22.5t-138.5 37.5q-3 3 -3 41v61q62 -24 66 -26q71 -30 139 -23q35 4 50 33q9 19 -7 36t-39 25.5t-56 13.5q-131 18 -155 97q-8 26 -3.5 57t17.5 46t56 35.5t68 59.5q6 12 0.5 23t-17.5 18
q-57 30 -126 -6q-18 -10 -27 -30.5t-10 -35.5t-1 -48v-464l-3 -3h-89l-2 3q0 54 0.5 255.5t-0.5 210.5q-1 74 18 123.5t71 76.5q36 18 83 22.5t82.5 -5t69.5 -34.5t45 -62t0 -73q-17 -57 -102 -87q-18 -7 -32.5 -23t-2 -33.5t37 -26t59 -12t50.5 -8.5q43 -13 76 -41.5z" />
    <glyph glyph-name="agrave" unicode="&#xe0;" horiz-adv-x="458" 
d="M40 737l185 -98l-1 -81l-184 95v84zM317 106v94q-38 0 -72 -3t-59 -10.5t-39.5 -21.5t-14.5 -36q0 -32 27.5 -41t66.5 -9q22 0 46.5 7.5t44.5 19.5zM417 0h-100v25q-26 -17 -58.5 -26t-59.5 -9q-34 0 -63.5 10.5t-51.5 29.5t-35 43.5t-13 53.5q0 33 14.5 63t48 52t87 35
t131.5 13q0 26 -4 46.5t-15 34t-30 20.5t-48 7q-43 0 -82 -14.5t-81 -52.5h-10l38 126q28 18 66 29.5t73 11.5q26 0 59.5 -6.5t63 -27.5t50 -61.5t20.5 -107.5v-295z" />
    <glyph glyph-name="aacute" unicode="&#xe1;" horiz-adv-x="458" 
d="M409 737v-83l-185 -96v81zM317 106v94q-38 0 -72 -3t-59 -10.5t-39.5 -21.5t-14.5 -36q0 -32 27.5 -41t66.5 -9q22 0 46.5 7.5t44.5 19.5zM417 0h-100v25q-26 -17 -58.5 -26t-59.5 -9q-34 0 -63.5 10.5t-51.5 29.5t-35 43.5t-13 53.5q0 33 14.5 63t48 52t87 35t131.5 13
q0 26 -4 46.5t-15 34t-30 20.5t-48 7q-43 0 -82 -14.5t-81 -52.5h-10l38 126q28 18 66 29.5t73 11.5q26 0 59.5 -6.5t63 -27.5t50 -61.5t20.5 -107.5v-295z" />
    <glyph glyph-name="acircumflex" unicode="&#xe2;" horiz-adv-x="458" 
d="M224 735l163 -176l-101 -1l-62 68l-63 -68h-100zM317 106v94q-38 0 -72 -3t-59 -10.5t-39.5 -21.5t-14.5 -36q0 -32 27.5 -41t66.5 -9q22 0 46.5 7.5t44.5 19.5zM417 0h-100v25q-26 -17 -58.5 -26t-59.5 -9q-34 0 -63.5 10.5t-51.5 29.5t-35 43.5t-13 53.5q0 33 14.5 63
t48 52t87 35t131.5 13q0 26 -4 46.5t-15 34t-30 20.5t-48 7q-43 0 -82 -14.5t-81 -52.5h-10l38 126q28 18 66 29.5t73 11.5q26 0 59.5 -6.5t63 -27.5t50 -61.5t20.5 -107.5v-295z" />
    <glyph glyph-name="atilde" unicode="&#xe3;" horiz-adv-x="458" 
d="M404 659q-19 -48 -57 -77q-49 -39 -129 -14q-1 0 -19 7.5t-22 9.5q-41 14 -70.5 14t-56.5 -23q-4 -5 -7 -1q17 46 56 77q46 36 121 16q7 -2 17 -6l21 -8q10 -4 12 -5q81 -29 126 10q4 3 5 2.5l3 -1.5v-1zM317 106v94q-38 0 -72 -3t-59 -10.5t-39.5 -21.5t-14.5 -36
q0 -32 27.5 -41t66.5 -9q22 0 46.5 7.5t44.5 19.5zM417 0h-100v25q-26 -17 -58.5 -26t-59.5 -9q-34 0 -63.5 10.5t-51.5 29.5t-35 43.5t-13 53.5q0 33 14.5 63t48 52t87 35t131.5 13q0 26 -4 46.5t-15 34t-30 20.5t-48 7q-43 0 -82 -14.5t-81 -52.5h-10l38 126
q28 18 66 29.5t73 11.5q26 0 59.5 -6.5t63 -27.5t50 -61.5t20.5 -107.5v-295z" />
    <glyph glyph-name="adieresis" unicode="&#xe4;" horiz-adv-x="458" 
d="M380 628l-70 -70l-70 70l70 71zM208 628l-70 -70l-70 70l70 71zM317 106v94q-38 0 -72 -3t-59 -10.5t-39.5 -21.5t-14.5 -36q0 -32 27.5 -41t66.5 -9q22 0 46.5 7.5t44.5 19.5zM417 0h-100v25q-26 -17 -58.5 -26t-59.5 -9q-34 0 -63.5 10.5t-51.5 29.5t-35 43.5t-13 53.5
q0 33 14.5 63t48 52t87 35t131.5 13q0 26 -4 46.5t-15 34t-30 20.5t-48 7q-43 0 -82 -14.5t-81 -52.5h-10l38 126q28 18 66 29.5t73 11.5q26 0 59.5 -6.5t63 -27.5t50 -61.5t20.5 -107.5v-295z" />
    <glyph glyph-name="aring" unicode="&#xe5;" horiz-adv-x="458" 
d="M312 647q0 -37 -25.5 -63t-62.5 -26q-36 0 -62 26t-26 63q0 36 25.5 62t62.5 26t62.5 -26t25.5 -62zM262.5 647q-0.5 16 -12 27t-27.5 11t-27 -11t-11 -27t11 -27.5t27 -11.5t28 11.5t11.5 27.5zM317 106v94q-38 0 -72 -3t-59 -10.5t-39.5 -21.5t-14.5 -36
q0 -32 27.5 -41t66.5 -9q22 0 46.5 7.5t44.5 19.5zM417 0h-100v25q-26 -17 -58.5 -26t-59.5 -9q-34 0 -63.5 10.5t-51.5 29.5t-35 43.5t-13 53.5q0 33 14.5 63t48 52t87 35t131.5 13q0 26 -4 46.5t-15 34t-30 20.5t-48 7q-43 0 -82 -14.5t-81 -52.5h-10l38 126
q28 18 66 29.5t73 11.5q26 0 59.5 -6.5t63 -27.5t50 -61.5t20.5 -107.5v-295z" />
    <glyph glyph-name="ae" unicode="&#xe6;" horiz-adv-x="800" 
d="M417 0h-100v25q-26 -17 -58.5 -26t-59.5 -9q-34 0 -63.5 10.5t-51.5 29.5t-35 43.5t-13 53.5q0 33 14 63q19 38 48 52q58 27 88 35l114 34q-2 0 -1 45q0 19 -24 32q-3 2 -7 3q-19 7 -48 7q-43 0 -82 -14.5t-81 -52.5h-10l38 126q28 18 66 29.5t73 11.5q26 0 59.5 -6.5
t62.5 -27.5l5 -3q16 10 33 18q45 19 96 19q48 0 94 -15t80 -48t51.5 -85t9.5 -125h-298v-111q14 -9 31 -14q29 -11 61 -11q52 0 97.5 17t77.5 44v-104q-41 -26 -89.5 -41t-100.5 -15q-40 0 -77 12v-2zM601 321q0 16 -10 31t-26.5 26t-38.5 18t-47 7q-41 0 -75 -19
q10 -27 12 -63h185zM313 223q0 1 -127 -37q-25 -7 -39.5 -21t-14.5 -36q0 -32 28 -41q39 -13 66 -9q34 5 47 7l51 12l4 60q-3 40 -15 65z" />
    <glyph glyph-name="ccedilla" unicode="&#xe7;" horiz-adv-x="460" 
d="M298 -137q-46 -47 -165 -47v83q35 -8 82 19q14 9 14 55v23h94v-65q-1 -43 -25 -68zM435 32q-35 -20 -75 -31t-84 -11q-51 0 -95.5 19.5t-77.5 53t-52.5 78.5t-19.5 96q0 50 19.5 94t53 77t78 52.5t95.5 19.5q44 0 83.5 -11t74.5 -31v-120q-27 28 -68.5 45t-90.5 17
q-30 0 -56.5 -11.5t-46 -31t-31 -46t-11.5 -55.5q0 -30 11.5 -57t31 -46.5t46 -31t56.5 -11.5q49 0 90.5 16.5t68.5 45.5v-120z" />
    <glyph glyph-name="egrave" unicode="&#xe8;" horiz-adv-x="538" 
d="M93 737l185 -98l-1 -81l-184 95v84zM398 321q0 16 -10 31t-26.5 26t-38.5 18t-47 7q-45 0 -81 -23.5t-53 -58.5h256zM512 225h-378q6 -29 21.5 -54t38 -43t51.5 -28.5t61 -10.5q52 0 97.5 17t77.5 44v-104q-41 -26 -89.5 -41t-100.5 -15q-54 0 -101.5 21t-82.5 57
t-55.5 84.5t-20.5 102.5q0 50 19.5 94t53 77t78 52.5t95.5 19.5q48 0 94 -15t80 -48t51.5 -85t9.5 -125z" />
    <glyph glyph-name="eacute" unicode="&#xe9;" horiz-adv-x="538" 
d="M462 737v-83l-185 -96v81zM398 321q0 16 -10 31t-26.5 26t-38.5 18t-47 7q-45 0 -81 -23.5t-53 -58.5h256zM512 225h-378q6 -29 21.5 -54t38 -43t51.5 -28.5t61 -10.5q52 0 97.5 17t77.5 44v-104q-41 -26 -89.5 -41t-100.5 -15q-54 0 -101.5 21t-82.5 57t-55.5 84.5
t-20.5 102.5q0 50 19.5 94t53 77t78 52.5t95.5 19.5q48 0 94 -15t80 -48t51.5 -85t9.5 -125z" />
    <glyph glyph-name="ecircumflex" unicode="&#xea;" horiz-adv-x="538" 
d="M277 735l163 -176l-101 -1l-62 68l-63 -68h-100zM398 321q0 16 -10 31t-26.5 26t-38.5 18t-47 7q-45 0 -81 -23.5t-53 -58.5h256zM512 225h-378q6 -29 21.5 -54t38 -43t51.5 -28.5t61 -10.5q52 0 97.5 17t77.5 44v-104q-41 -26 -89.5 -41t-100.5 -15q-54 0 -101.5 21
t-82.5 57t-55.5 84.5t-20.5 102.5q0 50 19.5 94t53 77t78 52.5t95.5 19.5q48 0 94 -15t80 -48t51.5 -85t9.5 -125z" />
    <glyph glyph-name="edieresis" unicode="&#xeb;" horiz-adv-x="538" 
d="M434 628l-70 -70l-70 70l70 71zM260 628l-70 -70l-70 70l70 71zM398 321q0 16 -10 31t-26.5 26t-38.5 18t-47 7q-45 0 -81 -23.5t-53 -58.5h256zM512 225h-378q6 -29 21.5 -54t38 -43t51.5 -28.5t61 -10.5q52 0 97.5 17t77.5 44v-104q-41 -26 -89.5 -41t-100.5 -15
q-54 0 -101.5 21t-82.5 57t-55.5 84.5t-20.5 102.5q0 50 19.5 94t53 77t78 52.5t95.5 19.5q48 0 94 -15t80 -48t51.5 -85t9.5 -125z" />
    <glyph glyph-name="igrave" unicode="&#xec;" 
d="M-84 719l186 -98l-2 -81l-184 95v84zM150 0h-99v474h99v-474z" />
    <glyph glyph-name="iacute" unicode="&#xed;" 
d="M286 719v-83l-186 -96v81zM150 0h-99v474h99v-474z" />
    <glyph glyph-name="icircumflex" unicode="&#xee;" 
d="M100 717l164 -176l-102 -1l-62 68l-62 -68h-100zM150 0h-99v474h99v-474z" />
    <glyph glyph-name="idieresis" unicode="&#xef;" 
d="M257 610l-70 -70l-70 70l70 71zM84 610l-70 -70l-70 70l70 71zM150 0h-99v474h99v-474z" />
    <glyph glyph-name="ntilde" unicode="&#xf1;" horiz-adv-x="523" 
d="M448 641q-20 -48 -58 -77q-49 -39 -129 -14q-1 0 -19 7.5t-22 9.5q-41 14 -70.5 14t-56.5 -23q-4 -5 -7 -1q17 46 56 77q46 36 121 16q7 -2 17 -6l21 -8q10 -4 12 -5q81 -29 126 10q4 3 5 2.5t2 -1.5zM483 0h-100v285q0 19 -8.5 36.5t-23.5 30.5t-35 20.5t-43 7.5
q-38 0 -70 -12t-52 -32v-336h-100v475h100v-29q27 16 58 25t65 9q42 0 79.5 -15.5t66.5 -42.5t46 -62.5t17 -74.5v-285z" />
    <glyph glyph-name="ograve" unicode="&#xf2;" horiz-adv-x="550" 
d="M93 719l185 -98l-1 -81l-184 95v84zM421 237q0 29 -11.5 55t-31.5 45.5t-46 31t-56 11.5t-56.5 -11.5t-46 -31t-31 -46t-11.5 -55.5q0 -30 11.5 -57t31 -46.5t46 -31t56.5 -11.5t56 11.5t46 31.5t31.5 47t11.5 57zM521 237q0 -51 -19.5 -96t-53 -78.5t-78 -53
t-94.5 -19.5q-51 0 -95.5 19.5t-77.5 53t-52.5 78.5t-19.5 96q0 50 19.5 94t53 77t78 52.5t95.5 19.5q50 0 94.5 -19.5t77.5 -52.5t52.5 -77t19.5 -94z" />
    <glyph glyph-name="oacute" unicode="&#xf3;" horiz-adv-x="550" 
d="M462 719v-83l-185 -96v81zM421 237q0 29 -11.5 55t-31.5 45.5t-46 31t-56 11.5t-56.5 -11.5t-46 -31t-31 -46t-11.5 -55.5q0 -30 11.5 -57t31 -46.5t46 -31t56.5 -11.5t56 11.5t46 31.5t31.5 47t11.5 57zM521 237q0 -51 -19.5 -96t-53 -78.5t-78 -53t-94.5 -19.5
q-51 0 -95.5 19.5t-77.5 53t-52.5 78.5t-19.5 96q0 50 19.5 94t53 77t78 52.5t95.5 19.5q50 0 94.5 -19.5t77.5 -52.5t52.5 -77t19.5 -94z" />
    <glyph glyph-name="ocircumflex" unicode="&#xf4;" horiz-adv-x="550" 
d="M277 717l163 -176l-101 -1l-62 68l-63 -68h-100zM421 237q0 29 -11.5 55t-31.5 45.5t-46 31t-56 11.5t-56.5 -11.5t-46 -31t-31 -46t-11.5 -55.5q0 -30 11.5 -57t31 -46.5t46 -31t56.5 -11.5t56 11.5t46 31.5t31.5 47t11.5 57zM521 237q0 -51 -19.5 -96t-53 -78.5
t-78 -53t-94.5 -19.5q-51 0 -95.5 19.5t-77.5 53t-52.5 78.5t-19.5 96q0 50 19.5 94t53 77t78 52.5t95.5 19.5q50 0 94.5 -19.5t77.5 -52.5t52.5 -77t19.5 -94z" />
    <glyph glyph-name="otilde" unicode="&#xf5;" horiz-adv-x="550" 
d="M458 641q-20 -48 -58 -77q-49 -39 -129 -14q-1 0 -19 7.5t-22 9.5q-41 14 -70.5 14t-56.5 -23q-4 -5 -7 -1q17 46 56 77q46 36 121 16q7 -2 17 -6l21 -8q10 -4 12 -5q81 -29 126 10q4 3 5 2.5t2 -1.5zM421 237q0 29 -11.5 55t-31.5 45.5t-46 31t-56 11.5t-56.5 -11.5
t-46 -31t-31 -46t-11.5 -55.5q0 -30 11.5 -57t31 -46.5t46 -31t56.5 -11.5t56 11.5t46 31.5t31.5 47t11.5 57zM521 237q0 -51 -19.5 -96t-53 -78.5t-78 -53t-94.5 -19.5q-51 0 -95.5 19.5t-77.5 53t-52.5 78.5t-19.5 96q0 50 19.5 94t53 77t78 52.5t95.5 19.5
q50 0 94.5 -19.5t77.5 -52.5t52.5 -77t19.5 -94z" />
    <glyph glyph-name="odieresis" unicode="&#xf6;" horiz-adv-x="550" 
d="M434 610l-70 -70l-70 70l70 71zM260 610l-70 -70l-70 70l70 71zM421 237q0 29 -11.5 55t-31.5 45.5t-46 31t-56 11.5t-56.5 -11.5t-46 -31t-31 -46t-11.5 -55.5q0 -30 11.5 -57t31 -46.5t46 -31t56.5 -11.5t56 11.5t46 31.5t31.5 47t11.5 57zM521 237q0 -51 -19.5 -96
t-53 -78.5t-78 -53t-94.5 -19.5q-51 0 -95.5 19.5t-77.5 53t-52.5 78.5t-19.5 96q0 50 19.5 94t53 77t78 52.5t95.5 19.5q50 0 94.5 -19.5t77.5 -52.5t52.5 -77t19.5 -94z" />
    <glyph glyph-name="divide" unicode="&#xf7;" horiz-adv-x="387" 
d="M267 487l-70 -70l-70 70l70 71zM265 189l-70 -70l-70 70l70 71zM349 392v-110h-311v110h311z" />
    <glyph glyph-name="oslash" unicode="&#xf8;" horiz-adv-x="550" 
d="M521 237q0 -51 -19.5 -96t-53 -78.5t-78 -53t-94.5 -19.5q-45 0 -84 15l-12 -20l-110 -7l44 74q-5 5 -11 10q-33 34 -52.5 79t-19.5 96q0 50 19.5 94t53 77t78 52.5t95.5 19.5q45 0 86 -16l26 44h103l-54 -90q6 -5 11 -10q33 -33 52.5 -77t19.5 -94zM421 237q0 29 -11 55
q-10 21 -24 38l-141 -237q15 -3 31 -3q30 0 56 11.5t46 31.5t31.5 47t11.5 57zM310 376q-17 4 -34 4q-30 0 -56.5 -11.5t-46 -31t-31 -46t-11.5 -55.5q0 -30 12 -57q9 -22 24 -40z" />
    <glyph glyph-name="ugrave" unicode="&#xf9;" horiz-adv-x="525" 
d="M74 719l186 -98l-2 -81l-184 95v84zM476 0h-100v30q-58 -40 -127 -40q-31 0 -67 10t-67.5 34t-52.5 63.5t-21 97.5v280h100v-262q0 -25 8.5 -46.5t23.5 -37.5t34.5 -25t41.5 -9q36 0 68.5 8.5t58.5 26.5v345h100v-475z" />
    <glyph glyph-name="uacute" unicode="&#xfa;" horiz-adv-x="525" 
d="M444 719v-83l-186 -96v81zM476 0h-100v30q-58 -40 -127 -40q-31 0 -67 10t-67.5 34t-52.5 63.5t-21 97.5v280h100v-262q0 -25 8.5 -46.5t23.5 -37.5t34.5 -25t41.5 -9q36 0 68.5 8.5t58.5 26.5v345h100v-475z" />
    <glyph glyph-name="ucircumflex" unicode="&#xfb;" horiz-adv-x="525" 
d="M258 717l164 -176l-102 -1l-62 68l-62 -68h-100zM476 0h-100v30q-58 -40 -127 -40q-31 0 -67 10t-67.5 34t-52.5 63.5t-21 97.5v280h100v-262q0 -25 8.5 -46.5t23.5 -37.5t34.5 -25t41.5 -9q36 0 68.5 8.5t58.5 26.5v345h100v-475z" />
    <glyph glyph-name="udieresis" unicode="&#xfc;" horiz-adv-x="525" 
d="M417 598l-70 -70l-70 70l70 71zM244 598l-70 -70l-70 70l70 71zM476 0h-100v30q-58 -40 -127 -40q-31 0 -67 10t-67.5 34t-52.5 63.5t-21 97.5v280h100v-262q0 -25 8.5 -46.5t23.5 -37.5t34.5 -25t41.5 -9q36 0 68.5 8.5t58.5 26.5v345h100v-475z" />
    <glyph glyph-name="yacute" unicode="&#xfd;" horiz-adv-x="565" 
d="M468 719v-83l-186 -96v81zM552 475l-311 -587q-29 -55 -84 -89q-55 -33 -117 -33v100q35 0 66 19t48 50l70 134l-211 406h113l155 -298l160 298h111z" />
    <glyph glyph-name="thorn" unicode="&#xfe;" horiz-adv-x="555" 
d="M424 237q0 29 -11.5 55t-31.5 45.5t-46 31t-56 11.5q-39 0 -72 -13.5t-56 -35.5v-186q23 -26 56 -40.5t72 -14.5q30 0 56 11.5t46 31.5t31.5 47t11.5 57zM524 237q0 -51 -19.5 -96t-53 -78.5t-78 -53t-94.5 -19.5q-35 0 -67.5 9.5t-60.5 26.5v-227h-100v824h100v-175
q29 15 61 23.5t68 8.5q50 0 94.5 -19.5t77.5 -52.5t52.5 -77t19.5 -94z" />
    <glyph glyph-name="ydieresis" unicode="&#xff;" horiz-adv-x="565" 
d="M439 610l-70 -70l-70 70l70 71zM266 610l-70 -70l-70 70l70 71zM552 475l-311 -587q-29 -55 -84 -89q-55 -33 -117 -33v100q35 0 66 19t48 50l70 134l-211 406h113l155 -298l160 298h111z" />
    <glyph glyph-name="Amacron" unicode="&#x100;" horiz-adv-x="675" 
d="M492 778l-2 -3h-300q-5 0 -5 7v84l3 3h300l4 -2v-89zM665 -1h-110l-68 172h-297l-68 -172h-110l292 701h69zM443 270l-104 254l-105 -254h209z" />
    <glyph glyph-name="amacron" unicode="&#x101;" horiz-adv-x="458" 
d="M378 561l-2 -3h-300q-5 0 -6 7v84l4 3h300l4 -2v-89zM317 106v94q-38 0 -72 -3t-59 -10.5t-39.5 -21.5t-14.5 -36q0 -32 27.5 -41t66.5 -9q22 0 46.5 7.5t44.5 19.5zM417 0h-100v25q-26 -17 -58.5 -26t-59.5 -9q-34 0 -63.5 10.5t-51.5 29.5t-35 43.5t-13 53.5
q0 33 14.5 63t48 52t87 35t131.5 13q0 26 -4 46.5t-15 34t-30 20.5t-48 7q-43 0 -82 -14.5t-81 -52.5h-10l38 126q28 18 66 29.5t73 11.5q26 0 59.5 -6.5t63 -27.5t50 -61.5t20.5 -107.5v-295z" />
    <glyph glyph-name="Abreve" unicode="&#x102;" horiz-adv-x="675" 
d="M338.5 775q-62.5 0 -107.5 44.5t-45 107.5h86q0 -27 19 -46.5t47 -19.5t47 19.5t19 46.5h86q0 -63 -44.5 -107.5t-107 -44.5zM665 -1h-110l-68 172h-297l-68 -172h-110l292 701h69zM443 270l-104 254l-105 -254h209z" />
    <glyph glyph-name="abreve" unicode="&#x103;" horiz-adv-x="458" 
d="M224 558q-63 0 -107.5 44.5t-44.5 107.5h86q0 -27 19 -46.5t47 -19.5q27 0 46.5 19.5t19.5 46.5h86q0 -63 -44.5 -107.5t-107.5 -44.5zM317 106v94q-38 0 -72 -3t-59 -10.5t-39.5 -21.5t-14.5 -36q0 -32 27.5 -41t66.5 -9q22 0 46.5 7.5t44.5 19.5zM417 0h-100v25
q-26 -17 -58.5 -26t-59.5 -9q-34 0 -63.5 10.5t-51.5 29.5t-35 43.5t-13 53.5q0 33 14.5 63t48 52t87 35t131.5 13q0 26 -4 46.5t-15 34t-30 20.5t-48 7q-43 0 -82 -14.5t-81 -52.5h-10l38 126q28 18 66 29.5t73 11.5q26 0 59.5 -6.5t63 -27.5t50 -61.5t20.5 -107.5v-295z
" />
    <glyph glyph-name="Aogonek" unicode="&#x104;" horiz-adv-x="675" 
d="M338 -60v63l94 2v-23q0 -23 9 -49t25 -31q12 -2 21 -1t23 4t18 3v-83q0 -3 -6 -4q-49 -10 -92 7q-41 15 -66.5 44t-25.5 68zM665 -1h-110l-68 172h-297l-68 -172h-110l292 701h69zM443 270l-104 254l-105 -254h209z" />
    <glyph glyph-name="aogonek" unicode="&#x105;" horiz-adv-x="458" 
d="M199 -69v63l94 2v-23q0 -23 8.5 -49t24.5 -31q12 -2 21 -1t23 4t19 3v-83q0 -3 -6 -4q-50 -10 -93 7q-41 15 -66 44t-25 68zM317 106v94q-38 0 -72 -3t-59 -10.5t-39.5 -21.5t-14.5 -36q0 -32 27.5 -41t66.5 -9q22 0 46.5 7.5t44.5 19.5zM417 0h-100v25
q-26 -17 -58.5 -26t-59.5 -9q-34 0 -63.5 10.5t-51.5 29.5t-35 43.5t-13 53.5q0 33 14.5 63t48 52t87 35t131.5 13q0 26 -4 46.5t-15 34t-30 20.5t-48 7q-43 0 -82 -14.5t-81 -52.5h-10l38 126q28 18 66 29.5t73 11.5q26 0 59.5 -6.5t63 -27.5t50 -61.5t20.5 -107.5v-295z
" />
    <glyph glyph-name="Cacute" unicode="&#x106;" horiz-adv-x="673" 
d="M581 954v-83l-185 -96v81zM648 512q-43 46 -108.5 74.5t-140.5 28.5q-55 0 -104 -20t-85.5 -54t-57.5 -79.5t-21 -96.5q0 -58 21.5 -109t58 -89t85.5 -60t105 -22q75 0 139 30.5t106 82.5v-135q-53 -37 -116.5 -57.5t-133.5 -20.5q-75 0 -141.5 30t-116 81.5t-78.5 121
t-29 147.5q0 72 29 135.5t78.5 111t116 75.5t141.5 28q71 0 134.5 -19t117.5 -53v-131z" />
    <glyph glyph-name="cacute" unicode="&#x107;" horiz-adv-x="460" 
d="M462 719v-83l-185 -96v81zM435 32q-35 -20 -75 -31t-84 -11q-51 0 -95.5 19.5t-77.5 53t-52.5 78.5t-19.5 96q0 50 19.5 94t53 77t78 52.5t95.5 19.5q44 0 83.5 -11t74.5 -31v-120q-27 28 -68.5 45t-90.5 17q-30 0 -56.5 -11.5t-46 -31t-31 -46t-11.5 -55.5
q0 -30 11.5 -57t31 -46.5t46 -31t56.5 -11.5q49 0 90.5 16.5t68.5 45.5v-120z" />
    <glyph glyph-name="Ccircumflex" unicode="&#x108;" horiz-adv-x="673" 
d="M396 952l163 -176l-101 -1l-62 68l-63 -68h-100zM648 512q-43 46 -108.5 74.5t-140.5 28.5q-55 0 -104 -20t-85.5 -54t-57.5 -79.5t-21 -96.5q0 -58 21.5 -109t58 -89t85.5 -60t105 -22q75 0 139 30.5t106 82.5v-135q-53 -37 -116.5 -57.5t-133.5 -20.5q-75 0 -141.5 30
t-116 81.5t-78.5 121t-29 147.5q0 72 29 135.5t78.5 111t116 75.5t141.5 28q71 0 134.5 -19t117.5 -53v-131z" />
    <glyph glyph-name="ccircumflex" unicode="&#x109;" horiz-adv-x="460" 
d="M277 717l163 -176l-101 -1l-62 68l-63 -68h-100zM435 32q-35 -20 -75 -31t-84 -11q-51 0 -95.5 19.5t-77.5 53t-52.5 78.5t-19.5 96q0 50 19.5 94t53 77t78 52.5t95.5 19.5q44 0 83.5 -11t74.5 -31v-120q-27 28 -68.5 45t-90.5 17q-30 0 -56.5 -11.5t-46 -31t-31 -46
t-11.5 -55.5q0 -30 11.5 -57t31 -46.5t46 -31t56.5 -11.5q49 0 90.5 16.5t68.5 45.5v-120z" />
    <glyph glyph-name="Cdotaccent" unicode="&#x10a;" horiz-adv-x="673" 
d="M458 835q-10 -8 -20 -18l-22 -23l-18 -19h-6l-56 58l-2 4l60 60q4 4 6 0l56 -58zM648 512q-43 46 -108.5 74.5t-140.5 28.5q-55 0 -104 -20t-85.5 -54t-57.5 -79.5t-21 -96.5q0 -58 21.5 -109t58 -89t85.5 -60t105 -22q75 0 139 30.5t106 82.5v-135q-53 -37 -116.5 -57.5
t-133.5 -20.5q-75 0 -141.5 30t-116 81.5t-78.5 121t-29 147.5q0 72 29 135.5t78.5 111t116 75.5t141.5 28q71 0 134.5 -19t117.5 -53v-131z" />
    <glyph glyph-name="cdotaccent" unicode="&#x10b;" horiz-adv-x="460" 
d="M338 600l-18 -18l-22 -22l-20 -20h-4l-58 58v4l60 60q2 4 4 0l58 -58v-4zM435 32q-35 -20 -75 -31t-84 -11q-51 0 -95.5 19.5t-77.5 53t-52.5 78.5t-19.5 96q0 50 19.5 94t53 77t78 52.5t95.5 19.5q44 0 83.5 -11t74.5 -31v-120q-27 28 -68.5 45t-90.5 17
q-30 0 -56.5 -11.5t-46 -31t-31 -46t-11.5 -55.5q0 -30 11.5 -57t31 -46.5t46 -31t56.5 -11.5q49 0 90.5 16.5t68.5 45.5v-120z" />
    <glyph glyph-name="Ccaron" unicode="&#x10c;" horiz-adv-x="673" 
d="M402 779q-1 -4 -8 -4l-4 4l-158 170h102l62 -67l62 67h102zM648 512q-43 46 -108.5 74.5t-140.5 28.5q-55 0 -104 -20t-85.5 -54t-57.5 -79.5t-21 -96.5q0 -58 21.5 -109t58 -89t85.5 -60t105 -22q75 0 139 30.5t106 82.5v-135q-53 -37 -116.5 -57.5t-133.5 -20.5
q-75 0 -141.5 30t-116 81.5t-78.5 121t-29 147.5q0 72 29 135.5t78.5 111t116 75.5t141.5 28q71 0 134.5 -19t117.5 -53v-131z" />
    <glyph glyph-name="ccaron" unicode="&#x10d;" horiz-adv-x="460" 
d="M284 544q-2 -4 -10 -4l-2 4l-158 170h100l62 -67l64 67h100zM435 32q-35 -20 -75 -31t-84 -11q-51 0 -95.5 19.5t-77.5 53t-52.5 78.5t-19.5 96q0 50 19.5 94t53 77t78 52.5t95.5 19.5q44 0 83.5 -11t74.5 -31v-120q-27 28 -68.5 45t-90.5 17q-30 0 -56.5 -11.5t-46 -31
t-31 -46t-11.5 -55.5q0 -30 11.5 -57t31 -46.5t46 -31t56.5 -11.5q49 0 90.5 16.5t68.5 45.5v-120z" />
    <glyph glyph-name="Dcaron" unicode="&#x10e;" horiz-adv-x="685" 
d="M360 779q-2 -4 -9 -4l-3 4l-158 170h101l62 -67l63 67h101zM556 362q0 49 -21 92t-56.5 75.5t-83 51.5t-99.5 19h-145v-500h145q53 0 100 21t82.5 56.5t56.5 83t21 101.5zM656 365q0 -75 -28.5 -141.5t-77.5 -116t-114.5 -78.5t-139.5 -29h-245v700h243q74 0 140 -26.5
t115.5 -72.5t78 -106.5t28.5 -129.5z" />
    <glyph glyph-name="dcaron" unicode="&#x10f;" horiz-adv-x="550" 
d="M746 592q0 -29 -12 -53.5t-33.5 -42.5t-50 -28.5t-61.5 -10.5v11q12 4 22 12t18 22t12.5 35.5t4.5 54.5v108h100v-108zM499 0h-100v23q-27 -16 -58 -24.5t-65 -8.5q-50 0 -94.5 19.5t-78 53t-53 78.5t-19.5 96q0 50 19.5 94t52.5 77t77.5 52.5t94.5 19.5q34 0 65.5 -9
t58.5 -25v254h100v-700zM399 334q-23 21 -54.5 33.5t-68.5 12.5q-30 0 -56 -11.5t-46 -31t-31.5 -45.5t-11.5 -55q0 -30 11.5 -57t31.5 -47t46 -31.5t56 -11.5q36 0 68 12t55 33v199z" />
    <glyph glyph-name="Dcroat" unicode="&#x110;" horiz-adv-x="685" 
d="M556 362q0 49 -21 92t-56.5 75.5t-83 51.5t-99.5 19h-145v-500h145q53 0 100 21t82.5 56.5t56.5 83t21 101.5zM656 365q0 -75 -28.5 -141.5t-77.5 -116t-114.5 -78.5t-139.5 -29h-245v700h243q74 0 140 -26.5t115.5 -72.5t78 -106.5t28.5 -129.5z" />
    <glyph glyph-name="dcroat" unicode="&#x111;" horiz-adv-x="550" 
d="M499 0h-100v23q-27 -16 -58 -24.5t-65 -8.5q-50 0 -94.5 19.5t-78 53t-53 78.5t-19.5 96q0 50 19.5 94t52.5 77t77.5 52.5t94.5 19.5q34 0 65.5 -9t58.5 -25v254h100v-700zM399 334q-23 21 -54.5 33.5t-68.5 12.5q-30 0 -56 -11.5t-46 -31t-31.5 -45.5t-11.5 -55
q0 -30 11.5 -57t31.5 -47t46 -31.5t56 -11.5q36 0 68 12t55 33v199z" />
    <glyph glyph-name="Emacron" unicode="&#x112;" horiz-adv-x="515" 
d="M414 778l-2 -3h-300q-4 0 -4 7v84l2 3h300l4 -2v-89zM491 0h-440v700h420v-100h-320v-175h243v-100h-243v-223h340v-102z" />
    <glyph glyph-name="emacron" unicode="&#x113;" horiz-adv-x="538" 
d="M430 561l-2 -3h-300q-4 0 -4 7v84l2 3h300l4 -2v-89zM398 321q0 16 -10 31t-26.5 26t-38.5 18t-47 7q-45 0 -81 -23.5t-53 -58.5h256zM512 225h-378q6 -29 21.5 -54t38 -43t51.5 -28.5t61 -10.5q52 0 97.5 17t77.5 44v-104q-41 -26 -89.5 -41t-100.5 -15q-54 0 -101.5 21
t-82.5 57t-55.5 84.5t-20.5 102.5q0 50 19.5 94t53 77t78 52.5t95.5 19.5q48 0 94 -15t80 -48t51.5 -85t9.5 -125z" />
    <glyph glyph-name="Ebreve" unicode="&#x114;" horiz-adv-x="515" 
d="M261 775q-63 0 -107.5 44.5t-44.5 107.5h86q0 -27 19 -46.5t47 -19.5q27 0 46.5 19.5t19.5 46.5h86q0 -63 -44.5 -107.5t-107.5 -44.5zM491 0h-440v700h420v-100h-320v-175h243v-100h-243v-223h340v-102z" />
    <glyph glyph-name="ebreve" unicode="&#x115;" horiz-adv-x="538" 
d="M277 558q-63 0 -107.5 44.5t-44.5 107.5h86q0 -27 19 -46.5t47 -19.5q27 0 46.5 19.5t19.5 46.5h86q0 -63 -44.5 -107.5t-107.5 -44.5zM398 321q0 16 -10 31t-26.5 26t-38.5 18t-47 7q-45 0 -81 -23.5t-53 -58.5h256zM512 225h-378q6 -29 21.5 -54t38 -43t51.5 -28.5
t61 -10.5q52 0 97.5 17t77.5 44v-104q-41 -26 -89.5 -41t-100.5 -15q-54 0 -101.5 21t-82.5 57t-55.5 84.5t-20.5 102.5q0 50 19.5 94t53 77t78 52.5t95.5 19.5q48 0 94 -15t80 -48t51.5 -85t9.5 -125z" />
    <glyph glyph-name="Edotaccent" unicode="&#x116;" horiz-adv-x="515" 
d="M322 835l-18 -18l-22 -23l-20 -19h-4l-58 58v4l60 60q2 4 4 0l58 -58v-4zM491 0h-440v700h420v-100h-320v-175h243v-100h-243v-223h340v-102z" />
    <glyph glyph-name="edotaccent" unicode="&#x117;" horiz-adv-x="538" 
d="M338 618l-18 -18l-22 -22l-20 -20h-4l-58 58v4l60 60q2 4 4 0l58 -58v-4zM398 321q0 16 -10 31t-26.5 26t-38.5 18t-47 7q-45 0 -81 -23.5t-53 -58.5h256zM512 225h-378q6 -29 21.5 -54t38 -43t51.5 -28.5t61 -10.5q52 0 97.5 17t77.5 44v-104q-41 -26 -89.5 -41
t-100.5 -15q-54 0 -101.5 21t-82.5 57t-55.5 84.5t-20.5 102.5q0 50 19.5 94t53 77t78 52.5t95.5 19.5q48 0 94 -15t80 -48t51.5 -85t9.5 -125z" />
    <glyph glyph-name="Eogonek" unicode="&#x118;" horiz-adv-x="515" 
d="M271 -59v63l94 2v-23q0 -23 8.5 -49t24.5 -31q12 -2 21 -1t23 4t19 3v-83q0 -3 -6 -4q-50 -10 -93 7q-41 15 -66 44t-25 68zM491 0h-440v700h420v-100h-320v-175h243v-100h-243v-223h340v-102z" />
    <glyph glyph-name="eogonek" unicode="&#x119;" horiz-adv-x="538" 
d="M244 -69v63l94 2v-23q0 -23 8.5 -49t24.5 -31q12 -2 21 -1t23 4t19 3v-83q0 -3 -6 -4q-50 -10 -93 7q-41 15 -66 44t-25 68zM398 321q0 16 -10 31t-26.5 26t-38.5 18t-47 7q-45 0 -81 -23.5t-53 -58.5h256zM512 225h-378q6 -29 21.5 -54t38 -43t51.5 -28.5t61 -10.5
q52 0 97.5 17t77.5 44v-104q-41 -26 -89.5 -41t-100.5 -15q-54 0 -101.5 21t-82.5 57t-55.5 84.5t-20.5 102.5q0 50 19.5 94t53 77t78 52.5t95.5 19.5q48 0 94 -15t80 -48t51.5 -85t9.5 -125z" />
    <glyph glyph-name="Ecaron" unicode="&#x11a;" horiz-adv-x="515" 
d="M268 779q-2 -4 -10 -4l-2 4l-158 170h100l62 -67l64 67h100zM491 0h-440v700h420v-100h-320v-175h243v-100h-243v-223h340v-102z" />
    <glyph glyph-name="ecaron" unicode="&#x11b;" horiz-adv-x="538" 
d="M284 562q-2 -4 -10 -4l-2 4l-158 170h100l62 -67l64 67h100zM398 321q0 16 -10 31t-26.5 26t-38.5 18t-47 7q-45 0 -81 -23.5t-53 -58.5h256zM512 225h-378q6 -29 21.5 -54t38 -43t51.5 -28.5t61 -10.5q52 0 97.5 17t77.5 44v-104q-41 -26 -89.5 -41t-100.5 -15
q-54 0 -101.5 21t-82.5 57t-55.5 84.5t-20.5 102.5q0 50 19.5 94t53 77t78 52.5t95.5 19.5q48 0 94 -15t80 -48t51.5 -85t9.5 -125z" />
    <glyph glyph-name="Gcircumflex" unicode="&#x11c;" horiz-adv-x="720" 
d="M397 952l163 -176l-101 -1l-62 68l-63 -68h-100zM679 63q-60 -37 -131.5 -57.5t-150.5 -20.5q-75 0 -141.5 30t-116 81.5t-78.5 121t-29 147.5q0 72 29 135.5t78.5 111t116 75.5t141.5 28t143.5 -19t126.5 -53v-120q-47 41 -116.5 66.5t-150.5 25.5q-55 0 -104 -20
t-85.5 -54t-57.5 -79.5t-21 -96.5q0 -58 21.5 -109t58 -89t85.5 -60t105 -22q97 0 177 37v171h-124v100h224v-330z" />
    <glyph glyph-name="gcircumflex" unicode="&#x11d;" horiz-adv-x="480" 
d="M241 747l163 -176l-101 -1l-62 68l-63 -68h-100zM373 -81q0 30 -41.5 51.5t-107.5 27.5q-51 -14 -79.5 -33.5t-28.5 -43.5q0 -26 36.5 -44.5t91.5 -18.5t92 18t37 43zM326 324q0 18 -7 33.5t-18.5 27t-27 18.5t-32.5 7q-18 0 -33.5 -7t-27 -18.5t-18 -27t-6.5 -33.5
t6.5 -34t18 -27.5t27 -18.5t33.5 -7q17 0 32.5 7t27 18.5t18.5 27.5t7 34zM478 -81q0 -34 -18 -63.5t-49.5 -51t-74 -34t-91.5 -12.5q-50 0 -92.5 9t-74.5 29t-50 51t-18 75q8 44 35 75.5t66 46.5q-16 17 -27.5 39.5t-11.5 48.5q0 20 7.5 39t21.5 33q-45 48 -45 119
q0 38 14.5 72t39.5 59.5t59 40.5t72 15q29 0 56.5 -9t50.5 -26h114v-95h-41q5 -14 7.5 -27.5t2.5 -27.5q0 -35 -12 -66t-32 -55t-47 -39t-58 -19q-5 -1 -10 -1h-9q-36 0 -63 7q-7 -4 -11.5 -7t-4.5 -8q0 -9 4 -15t13 -10t24 -8l36 -11q42 -8 81 -20t69 -32t48.5 -49.5
t18.5 -72.5z" />
    <glyph glyph-name="Gbreve" unicode="&#x11e;" horiz-adv-x="720" 
d="M397 775q-63 0 -107.5 44.5t-44.5 107.5h86q0 -27 19 -46.5t47 -19.5q27 0 46.5 19.5t19.5 46.5h86q0 -63 -44.5 -107.5t-107.5 -44.5zM679 63q-60 -37 -131.5 -57.5t-150.5 -20.5q-75 0 -141.5 30t-116 81.5t-78.5 121t-29 147.5q0 72 29 135.5t78.5 111t116 75.5
t141.5 28t143.5 -19t126.5 -53v-120q-47 41 -116.5 66.5t-150.5 25.5q-55 0 -104 -20t-85.5 -54t-57.5 -79.5t-21 -96.5q0 -58 21.5 -109t58 -89t85.5 -60t105 -22q97 0 177 37v171h-124v100h224v-330z" />
    <glyph glyph-name="gbreve" unicode="&#x11f;" horiz-adv-x="480" 
d="M241 570q-63 0 -107.5 44.5t-44.5 107.5h86q0 -27 19 -46.5t47 -19.5q27 0 46.5 19.5t19.5 46.5h86q0 -63 -44.5 -107.5t-107.5 -44.5zM373 -81q0 30 -41.5 51.5t-107.5 27.5q-51 -14 -79.5 -33.5t-28.5 -43.5q0 -26 36.5 -44.5t91.5 -18.5t92 18t37 43zM326 324
q0 18 -7 33.5t-18.5 27t-27 18.5t-32.5 7q-18 0 -33.5 -7t-27 -18.5t-18 -27t-6.5 -33.5t6.5 -34t18 -27.5t27 -18.5t33.5 -7q17 0 32.5 7t27 18.5t18.5 27.5t7 34zM478 -81q0 -34 -18 -63.5t-49.5 -51t-74 -34t-91.5 -12.5q-50 0 -92.5 9t-74.5 29t-50 51t-18 75
q8 44 35 75.5t66 46.5q-16 17 -27.5 39.5t-11.5 48.5q0 20 7.5 39t21.5 33q-45 48 -45 119q0 38 14.5 72t39.5 59.5t59 40.5t72 15q29 0 56.5 -9t50.5 -26h114v-95h-41q5 -14 7.5 -27.5t2.5 -27.5q0 -35 -12 -66t-32 -55t-47 -39t-58 -19q-5 -1 -10 -1h-9q-36 0 -63 7
q-7 -4 -11.5 -7t-4.5 -8q0 -9 4 -15t13 -10t24 -8l36 -11q42 -8 81 -20t69 -32t48.5 -49.5t18.5 -72.5z" />
    <glyph glyph-name="Gdotaccent" unicode="&#x120;" horiz-adv-x="720" 
d="M458 835l-18 -18l-22 -23l-20 -19h-4l-58 58v4l60 60q2 4 4 0l58 -58v-4zM679 63q-60 -37 -131.5 -57.5t-150.5 -20.5q-75 0 -141.5 30t-116 81.5t-78.5 121t-29 147.5q0 72 29 135.5t78.5 111t116 75.5t141.5 28t143.5 -19t126.5 -53v-120q-47 41 -116.5 66.5
t-150.5 25.5q-55 0 -104 -20t-85.5 -54t-57.5 -79.5t-21 -96.5q0 -58 21.5 -109t58 -89t85.5 -60t105 -22q97 0 177 37v171h-124v100h224v-330z" />
    <glyph glyph-name="gdotaccent" unicode="&#x121;" horiz-adv-x="480" 
d="M302 630l-18 -18l-22 -22l-20 -20h-4l-58 58v4l60 60q2 4 4 0l58 -58v-4zM373 -81q0 30 -41.5 51.5t-107.5 27.5q-51 -14 -79.5 -33.5t-28.5 -43.5q0 -26 36.5 -44.5t91.5 -18.5t92 18t37 43zM326 324q0 18 -7 33.5t-18.5 27t-27 18.5t-32.5 7q-18 0 -33.5 -7t-27 -18.5
t-18 -27t-6.5 -33.5t6.5 -34t18 -27.5t27 -18.5t33.5 -7q17 0 32.5 7t27 18.5t18.5 27.5t7 34zM478 -81q0 -34 -18 -63.5t-49.5 -51t-74 -34t-91.5 -12.5q-50 0 -92.5 9t-74.5 29t-50 51t-18 75q8 44 35 75.5t66 46.5q-16 17 -27.5 39.5t-11.5 48.5q0 20 7.5 39t21.5 33
q-45 48 -45 119q0 38 14.5 72t39.5 59.5t59 40.5t72 15q29 0 56.5 -9t50.5 -26h114v-95h-41q5 -14 7.5 -27.5t2.5 -27.5q0 -35 -12 -66t-32 -55t-47 -39t-58 -19q-5 -1 -10 -1h-9q-36 0 -63 7q-7 -4 -11.5 -7t-4.5 -8q0 -9 4 -15t13 -10t24 -8l36 -11q42 -8 81 -20t69 -32
t48.5 -49.5t18.5 -72.5z" />
    <glyph glyph-name="Gcommaaccent" unicode="&#x122;" horiz-adv-x="720" 
d="M476 -183q0 -29 -12 -53.5t-33.5 -42.5t-50 -28.5t-62.5 -10.5v11q12 4 22.5 12t18 22t12.5 35.5t5 54.5v108h100v-108zM679 63q-60 -37 -131.5 -57.5t-150.5 -20.5q-75 0 -141.5 30t-116 81.5t-78.5 121t-29 147.5q0 72 29 135.5t78.5 111t116 75.5t141.5 28t143.5 -19
t126.5 -53v-120q-47 41 -116.5 66.5t-150.5 25.5q-55 0 -104 -20t-85.5 -54t-57.5 -79.5t-21 -96.5q0 -58 21.5 -109t58 -89t85.5 -60t105 -22q97 0 177 37v171h-124v100h224v-330z" />
    <glyph glyph-name="Hcircumflex" unicode="&#x124;" horiz-adv-x="658" 
d="M328 952l164 -176l-102 -1l-62 68l-62 -68h-100zM607 0h-100v311h-357v-311h-100v700h100v-289h357v289h100v-700z" />
    <glyph glyph-name="hcircumflex" unicode="&#x125;" horiz-adv-x="523" 
d="M267 937l163 -176l-101 -1l-62 68l-63 -68h-100zM483 0h-100v285q0 19 -8.5 36.5t-23.5 30.5t-35 20.5t-43 7.5q-38 0 -70 -18.5t-52 -47.5v-314h-100v700h100v-254q27 16 58 25t65 9q42 0 79.5 -15.5t66.5 -42.5t46 -62.5t17 -74.5v-285z" />
    <glyph glyph-name="Itilde" unicode="&#x128;" 
d="M280 876q-19 -48 -57 -77q-49 -39 -129 -14q-1 0 -19 7.5t-22 9.5q-41 14 -70.5 14t-56.5 -23q-4 -5 -7 -1q17 46 56 77q46 36 121 16q7 -2 17 -6l21 -8q10 -4 12 -5q81 -29 126 10q4 3 5 2.5l3 -1.5v-1zM150 0h-100v700h100v-700z" />
    <glyph glyph-name="itilde" unicode="&#x129;" 
d="M281 641q-20 -48 -57 -77q-49 -39 -129 -14q-1 0 -19 7.5t-22 9.5q-41 14 -70.5 14t-56.5 -23q-4 -5 -7 -1q17 46 56 77q46 36 121 16q7 -2 17 -6l20 -8q11 -4 13 -5q81 -29 126 10q4 3 5 2.5t2 -1.5zM150 0h-99v474h99v-474z" />
    <glyph glyph-name="Imacron" unicode="&#x12a;" 
d="M254 778l-2 -3h-300q-5 0 -6 7v84l4 3h300l4 -2v-89zM150 0h-100v700h100v-700z" />
    <glyph glyph-name="imacron" unicode="&#x12b;" 
d="M254 543l-2 -3h-300q-5 0 -5 7v84l3 3h300l4 -2v-89zM150 0h-99v474h99v-474z" />
    <glyph glyph-name="Ibreve" unicode="&#x12c;" 
d="M100 775q-63 0 -107.5 44.5t-44.5 107.5h86q0 -27 19 -46.5t47 -19.5q27 0 46.5 19.5t19.5 46.5h86q0 -63 -44.5 -107.5t-107.5 -44.5zM150 0h-100v700h100v-700z" />
    <glyph glyph-name="ibreve" unicode="&#x12d;" 
d="M100.5 540q-62.5 0 -107.5 44.5t-45 107.5h86q0 -27 19 -46.5t47 -19.5t47 19.5t19 46.5h86q0 -63 -44.5 -107.5t-107 -44.5zM150 0h-99v474h99v-474z" />
    <glyph glyph-name="Iogonek" unicode="&#x12e;" 
d="M53 -59v63l94 2v-23q0 -23 8.5 -49t24.5 -31q12 -2 21 -1t23 4t19 3v-83q0 -3 -6 -4q-50 -10 -93 7q-41 15 -66 44t-25 68zM150 0h-100v700h100v-700z" />
    <glyph glyph-name="iogonek" unicode="&#x12f;" 
d="M54 -59v63l94 2v-23q0 -23 8.5 -49t24.5 -31q12 -2 21 -1t23 4t19 3v-83q0 -3 -6 -4q-50 -10 -94 7q-40 15 -65.5 44t-24.5 68zM150 0h-99v474h99v-474zM171 598l-70 -70l-70 70l70 71z" />
    <glyph glyph-name="Idotaccent" unicode="&#x130;" 
d="M162 835q-10 -8 -20 -18l-22 -23l-18 -19h-6l-56 58l-2 4l60 60q4 4 6 0l56 -58zM150 0h-100v700h100v-700z" />
    <glyph glyph-name="dotlessi" unicode="&#x131;" 
d="M150 0h-99v474h99v-474z" />
    <glyph glyph-name="IJ" unicode="&#x132;" horiz-adv-x="628" 
d="M587 192q0 -42 -14.5 -80t-40 -66t-59 -44.5t-72.5 -16.5q-34 0 -64 10t-54.5 27.5t-42 41.5t-26.5 53l100 49q0 -33 24 -57t58 -24q18 0 34.5 8.5t28.5 23t19 33.5t7 40v510h102v-508zM150 0h-100v700h100v-700z" />
    <glyph glyph-name="ij" unicode="&#x133;" horiz-adv-x="400" 
d="M350 0q0 -63 -8.5 -109t-31.5 -76t-63.5 -44t-103.5 -14v100q36 0 57.5 9t32.5 27t14.5 44.5t3.5 62.5v474h99v-474zM371 598l-70 -70l-70 70l70 71zM150 0h-99v474h99v-474zM171 598l-70 -70l-70 70l70 71z" />
    <glyph glyph-name="Jcircumflex" unicode="&#x134;" horiz-adv-x="428" 
d="M336 952l163 -176l-101 -1l-62 68l-63 -68h-100zM387 192q0 -42 -14.5 -80t-40 -66t-59 -44.5t-72.5 -16.5q-34 0 -64 10t-54.5 27.5t-42 41.5t-26.5 53l100 49q0 -33 24 -57t58 -24q18 0 34.5 8.5t28.5 23t19 33.5t7 40v510h102v-508z" />
    <glyph glyph-name="jcircumflex" unicode="&#x135;" 
d="M100 717l163 -176l-101 -1l-62 68l-63 -68h-100zM150 0q0 -63 -8.5 -109t-31.5 -76t-63.5 -44t-103.5 -14v100q36 0 57.5 9t32.5 27t14.5 44.5t3.5 62.5v474h99v-474z" />
    <glyph glyph-name="Kcommaaccent" unicode="&#x136;" horiz-adv-x="610" 
d="M404 -168q0 -29 -12 -53.5t-33.5 -42.5t-50 -28.5t-62.5 -10.5v11q12 4 22.5 12t18 22t12.5 35.5t5 54.5v108h100v-108zM599 0h-134l-316 336v-336h-98v700h100v-273l290 255h134l-336 -296z" />
    <glyph glyph-name="kcommaaccent" unicode="&#x137;" horiz-adv-x="515" 
d="M514 -169q0 -29 -12 -53.5t-33 -42.5t-50 -28.5t-61 -10.5v11q12 4 22 12t17.5 22t12 35.5t4.5 54.5v108h100v-108zM506 -1h-140l-215 227v-226h-100v700h100v-380l162 139h152l-217 -190z" />
    <glyph glyph-name="Lacute" unicode="&#x139;" horiz-adv-x="480" 
d="M445 954v-83l-185 -96v81zM469 1h-418v700h100v-600h318v-100z" />
    <glyph glyph-name="lacute" unicode="&#x13a;" horiz-adv-x="325" 
d="M281 937v-83l-185 -96v81zM325 24q-23 -16 -53 -25.5t-56 -9.5q-36 0 -67 12t-54 33.5t-36 50.5t-13 63v550h100v-520q0 -39 20 -64t50 -25q26 0 56 9.5t53 26.5v-101z" />
    <glyph glyph-name="Lcommaaccent" unicode="&#x13b;" horiz-adv-x="480" 
d="M338 -167q0 -29 -12 -53.5t-33 -42.5t-50 -28.5t-61 -10.5v11q12 4 22 12t17.5 22t12 35.5t4.5 54.5v108h100v-108zM469 1h-418v700h100v-600h318v-100z" />
    <glyph glyph-name="lcommaaccent" unicode="&#x13c;" horiz-adv-x="325" 
d="M294 -179q0 -29 -12 -53.5t-33 -42.5t-50 -28.5t-61 -10.5v11q12 4 22 12t17.5 22t12 35.5t4.5 54.5v108h100v-108zM325 24q-23 -16 -53 -25.5t-56 -9.5q-36 0 -67 12t-54 33.5t-36 50.5t-13 63v550h100v-520q0 -39 20 -64t50 -25q26 0 56 9.5t53 26.5v-101z" />
    <glyph glyph-name="Lcaron" unicode="&#x13d;" horiz-adv-x="480" 
d="M716 607q0 -29 -12 -53.5t-33.5 -42.5t-50 -28.5t-61.5 -10.5v11q12 4 22 12t18 22t12.5 35.5t4.5 54.5v108h100v-108zM469 1h-418v700h100v-600h318v-100z" />
    <glyph glyph-name="lcaron" unicode="&#x13e;" horiz-adv-x="325" 
d="M393 590q0 -29 -12 -53.5t-33.5 -42.5t-50 -28.5t-61.5 -10.5v11q12 4 22 12t18 22t12.5 35.5t4.5 54.5v108h100v-108zM325 24q-23 -16 -53 -25.5t-56 -9.5q-36 0 -67 12t-54 33.5t-36 50.5t-13 63v550h100v-520q0 -39 20 -64t50 -25q26 0 56 9.5t53 26.5v-101z" />
    <glyph glyph-name="Ldot" unicode="&#x13f;" horiz-adv-x="480" 
d="M310 310h-100v96h100v-96zM469 1h-418v700h100v-600h318v-100z" />
    <glyph glyph-name="ldot" unicode="&#x140;" horiz-adv-x="485" 
d="M455 161h-100v97h100v-97zM325 24q-23 -16 -53 -25.5t-56 -9.5q-36 0 -67 12t-54 33.5t-36 50.5t-13 63v550h100v-520q0 -39 20 -64t50 -25q26 0 56 9.5t53 26.5v-101z" />
    <glyph glyph-name="Lslash" unicode="&#x141;" horiz-adv-x="480" 
d="M469 1h-418v700h100v-600h318v-100z" />
    <glyph glyph-name="lslash" unicode="&#x142;" horiz-adv-x="325" 
d="M325 24q-23 -16 -53 -25.5t-56 -9.5q-36 0 -67 12t-54 33.5t-36 50.5t-13 63v550h100v-520q0 -39 20 -64t50 -25q26 0 56 9.5t53 26.5v-101z" />
    <glyph glyph-name="Nacute" unicode="&#x143;" horiz-adv-x="743" 
d="M552 954v-83l-185 -96v81zM683 0h-100l-435 543v-543h-97v700h100l434 -541v541h98v-700z" />
    <glyph glyph-name="nacute" unicode="&#x144;" horiz-adv-x="523" 
d="M452 719v-83l-185 -96v81zM483 0h-100v285q0 19 -8.5 36.5t-23.5 30.5t-35 20.5t-43 7.5q-38 0 -70 -12t-52 -32v-336h-100v475h100v-29q27 16 58 25t65 9q42 0 79.5 -15.5t66.5 -42.5t46 -62.5t17 -74.5v-285z" />
    <glyph glyph-name="Ncommaaccent" unicode="&#x145;" horiz-adv-x="743" 
d="M446 -168q0 -29 -12 -53.5t-33.5 -42.5t-50 -28.5t-62.5 -10.5v11q12 4 22.5 12t18 22t12.5 35.5t5 54.5v108h100v-108zM683 0h-100l-435 543v-543h-97v700h100l434 -541v541h98v-700z" />
    <glyph glyph-name="ncommaaccent" unicode="&#x146;" horiz-adv-x="523" 
d="M346 -168q0 -29 -12 -53.5t-33.5 -42.5t-50 -28.5t-62.5 -10.5v11q12 4 22.5 12t18 22t12.5 35.5t5 54.5v108h100v-108zM483 0h-100v285q0 19 -8.5 36.5t-23.5 30.5t-35 20.5t-43 7.5q-38 0 -70 -12t-52 -32v-336h-100v475h100v-29q27 16 58 25t65 9q42 0 79.5 -15.5
t66.5 -42.5t46 -62.5t17 -74.5v-285z" />
    <glyph glyph-name="Ncaron" unicode="&#x147;" horiz-adv-x="743" 
d="M374 779q-2 -4 -10 -4l-2 4l-158 170h100l62 -67l64 67h100zM683 0h-100l-435 543v-543h-97v700h100l434 -541v541h98v-700z" />
    <glyph glyph-name="ncaron" unicode="&#x148;" horiz-adv-x="523" 
d="M274 544q-2 -4 -10 -4l-2 4l-158 170h100l62 -67l64 67h100zM483 0h-100v285q0 19 -8.5 36.5t-23.5 30.5t-35 20.5t-43 7.5q-38 0 -70 -12t-52 -32v-336h-100v475h100v-29q27 16 58 25t65 9q42 0 79.5 -15.5t66.5 -42.5t46 -62.5t17 -74.5v-285z" />
    <glyph glyph-name="Omacron" unicode="&#x14c;" horiz-adv-x="790" 
d="M550 778l-2 -3h-300q-5 0 -6 7v84l4 3h300l4 -2v-89zM661 362q0 52 -21 98t-57 80.5t-83.5 54.5t-100.5 20q-55 0 -104 -20t-85.5 -54t-57.5 -79.5t-21 -96.5q0 -58 21.5 -109t58 -89t85.5 -60t105 -22q53 0 100 22t82.5 60t56.5 88t21 107zM761 365q0 -78 -29 -147.5
t-78.5 -121t-116 -81.5t-141.5 -30t-141.5 30t-116 81.5t-78.5 121t-29 147.5q0 72 29 135.5t78.5 111t116 75.5t141.5 28t141.5 -28t116 -75.5t78.5 -111t29 -135.5z" />
    <glyph glyph-name="omacron" unicode="&#x14d;" horiz-adv-x="550" 
d="M430 543l-2 -3h-300q-4 0 -4 7v84l2 3h300l4 -2v-89zM421 237q0 29 -11.5 55t-31.5 45.5t-46 31t-56 11.5t-56.5 -11.5t-46 -31t-31 -46t-11.5 -55.5q0 -30 11.5 -57t31 -46.5t46 -31t56.5 -11.5t56 11.5t46 31.5t31.5 47t11.5 57zM521 237q0 -51 -19.5 -96t-53 -78.5
t-78 -53t-94.5 -19.5q-51 0 -95.5 19.5t-77.5 53t-52.5 78.5t-19.5 96q0 50 19.5 94t53 77t78 52.5t95.5 19.5q50 0 94.5 -19.5t77.5 -52.5t52.5 -77t19.5 -94z" />
    <glyph glyph-name="Obreve" unicode="&#x14e;" horiz-adv-x="790" 
d="M396 775q-63 0 -107.5 44.5t-44.5 107.5h86q0 -27 19 -46.5t47 -19.5q27 0 46.5 19.5t19.5 46.5h86q0 -63 -44.5 -107.5t-107.5 -44.5zM661 362q0 52 -21 98t-57 80.5t-83.5 54.5t-100.5 20q-55 0 -104 -20t-85.5 -54t-57.5 -79.5t-21 -96.5q0 -58 21.5 -109t58 -89
t85.5 -60t105 -22q53 0 100 22t82.5 60t56.5 88t21 107zM761 365q0 -78 -29 -147.5t-78.5 -121t-116 -81.5t-141.5 -30t-141.5 30t-116 81.5t-78.5 121t-29 147.5q0 72 29 135.5t78.5 111t116 75.5t141.5 28t141.5 -28t116 -75.5t78.5 -111t29 -135.5z" />
    <glyph glyph-name="obreve" unicode="&#x14f;" horiz-adv-x="550" 
d="M277 540q-63 0 -107.5 44.5t-44.5 107.5h86q0 -27 19 -46.5t47 -19.5q27 0 46.5 19.5t19.5 46.5h86q0 -63 -44.5 -107.5t-107.5 -44.5zM421 237q0 29 -11.5 55t-31.5 45.5t-46 31t-56 11.5t-56.5 -11.5t-46 -31t-31 -46t-11.5 -55.5q0 -30 11.5 -57t31 -46.5t46 -31
t56.5 -11.5t56 11.5t46 31.5t31.5 47t11.5 57zM521 237q0 -51 -19.5 -96t-53 -78.5t-78 -53t-94.5 -19.5q-51 0 -95.5 19.5t-77.5 53t-52.5 78.5t-19.5 96q0 50 19.5 94t53 77t78 52.5t95.5 19.5q50 0 94.5 -19.5t77.5 -52.5t52.5 -77t19.5 -94z" />
    <glyph glyph-name="Ohungarumlaut" unicode="&#x150;" horiz-adv-x="790" 
d="M410 898l-52 -121l-6 -2h-64l-2 8l56 118h68v-3zM558 898l-54 -121l-4 -2h-66v8l54 118h68zM661 362q0 52 -21 98t-57 80.5t-83.5 54.5t-100.5 20q-55 0 -104 -20t-85.5 -54t-57.5 -79.5t-21 -96.5q0 -58 21.5 -109t58 -89t85.5 -60t105 -22q53 0 100 22t82.5 60t56.5 88
t21 107zM761 365q0 -78 -29 -147.5t-78.5 -121t-116 -81.5t-141.5 -30t-141.5 30t-116 81.5t-78.5 121t-29 147.5q0 72 29 135.5t78.5 111t116 75.5t141.5 28t141.5 -28t116 -75.5t78.5 -111t29 -135.5z" />
    <glyph glyph-name="ohungarumlaut" unicode="&#x151;" horiz-adv-x="550" 
d="M292 663l-54 -121l-4 -2h-66l-2 8l56 118h68zM440 663l-54 -121l-4 -2h-66l-2 8l56 118h68zM421 237q0 29 -11.5 55t-31.5 45.5t-46 31t-56 11.5t-56.5 -11.5t-46 -31t-31 -46t-11.5 -55.5q0 -30 11.5 -57t31 -46.5t46 -31t56.5 -11.5t56 11.5t46 31.5t31.5 47t11.5 57z
M521 237q0 -51 -19.5 -96t-53 -78.5t-78 -53t-94.5 -19.5q-51 0 -95.5 19.5t-77.5 53t-52.5 78.5t-19.5 96q0 50 19.5 94t53 77t78 52.5t95.5 19.5q50 0 94.5 -19.5t77.5 -52.5t52.5 -77t19.5 -94z" />
    <glyph glyph-name="OE" unicode="&#x152;" horiz-adv-x="940" 
d="M756 425h63v-100h-60q-6 -56 -27 -107q-27 -66 -73 -116h257v-102h-418q-49 -15 -102 -15q-75 0 -141.5 30t-116 81.5t-78.5 121t-29 147.5q0 72 29 135.5t78.5 111t116 75.5t141.5 28q55 0 105 -15h395v-100h-231q41 -44 67 -99q17 -37 24 -76zM659 325h-83v-166l7 8
q36 38 57 88q14 33 19 70zM476 97v507q-37 11 -77 11q-55 0 -104 -20t-85.5 -54t-57.5 -79.5t-21 -96.5q0 -58 21.5 -109t58 -89t85.5 -60t105 -22q39 0 75 12zM576 547v-122h77q-5 18 -13 35q-21 46 -57 81z" />
    <glyph glyph-name="oe" unicode="&#x153;" horiz-adv-x="926" 
d="M900 225h-378q6 -29 21.5 -54t38 -43t51.5 -28.5t61 -10.5q52 0 97.5 17t77.5 44v-104q-41 -26 -89.5 -41t-100.5 -15q-54 0 -101.5 21t-82.5 57q-11 12 -21 24q-12 -16 -26 -29q-33 -34 -77.5 -53.5t-94.5 -19.5q-51 0 -95.5 19.5t-77.5 53t-52.5 78.5t-19.5 96
q0 50 19.5 94t53 77t78 52.5t95.5 19.5q50 0 94.5 -19.5t77.5 -52.5q7 -7 14 -15q13 18 28 33q34 33 78.5 52.5t95.5 19.5q48 0 94 -15t80 -48t51.5 -85t9.5 -125zM786 321q0 16 -10 31t-26.5 26t-38.5 18t-47 7q-45 0 -81 -23.5t-53 -58.5h256zM421 226q-2 14 -2 29v5
q-3 17 -9 32q-12 26 -32 45.5t-46 31t-56 11.5t-56.5 -11.5t-46 -31t-31 -46t-11.5 -55.5q0 -30 11.5 -57t31 -46.5t46 -31t56.5 -11.5t56 11.5t46 31.5t32 47q9 22 11 46z" />
    <glyph glyph-name="Racute" unicode="&#x154;" horiz-adv-x="580" 
d="M330 954v-83l-185 -96v81zM344 501q0 20 -9.5 38t-25.5 31.5t-37.5 21.5t-44.5 8h-76v-201h107q17 0 32.5 8t27.5 22t19 32.5t7 39.5zM568 3h-122l-203 292h-92v-295h-100v700h188q42 0 80 -16t66.5 -43t45.5 -63.5t17 -76.5q0 -57 -27 -103t-72 -76z" />
    <glyph glyph-name="racute" unicode="&#x155;" horiz-adv-x="365" 
d="M388 719v-83l-186 -96v81zM355 329q-29 30 -54 36t-38 6q-16 0 -31.5 -2.5t-30.5 -10t-28 -22t-24 -38.5v-298h-99v475h100v-40q56 45 114 45q26 0 48.5 -6.5t42.5 -17.5v-127z" />
    <glyph glyph-name="Rcommaaccent" unicode="&#x156;" horiz-adv-x="580" 
d="M180 -168q0 -29 -12 -53.5t-33.5 -42.5t-50 -28.5t-62.5 -10.5v11q12 4 22.5 12t18 22t12.5 35.5t5 54.5v108h100v-108zM344 501q0 20 -9.5 38t-25.5 31.5t-37.5 21.5t-44.5 8h-76v-201h107q17 0 32.5 8t27.5 22t19 32.5t7 39.5zM568 3h-122l-203 292h-92v-295h-100v700
h188q42 0 80 -16t66.5 -43t45.5 -63.5t17 -76.5q0 -57 -27 -103t-72 -76z" />
    <glyph glyph-name="rcommaaccent" unicode="&#x157;" horiz-adv-x="365" 
d="M178 -168q0 -29 -12 -53.5t-33.5 -42.5t-50 -28.5t-61.5 -10.5v11q12 4 22 12t18 22t12.5 35.5t4.5 54.5v108h100v-108zM355 329q-29 30 -54 36t-38 6q-16 0 -31.5 -2.5t-30.5 -10t-28 -22t-24 -38.5v-298h-99v475h100v-40q56 45 114 45q26 0 48.5 -6.5t42.5 -17.5v-127z
" />
    <glyph glyph-name="Rcaron" unicode="&#x158;" horiz-adv-x="580" 
d="M152 779q-2 -4 -10 -4l-2 4l-158 170h100l62 -67l64 67h100zM344 501q0 20 -9.5 38t-25.5 31.5t-37.5 21.5t-44.5 8h-76v-201h107q17 0 32.5 8t27.5 22t19 32.5t7 39.5zM568 3h-122l-203 292h-92v-295h-100v700h188q42 0 80 -16t66.5 -43t45.5 -63.5t17 -76.5
q0 -57 -27 -103t-72 -76z" />
    <glyph glyph-name="rcaron" unicode="&#x159;" horiz-adv-x="365" 
d="M209 544q-2 -4 -9 -4l-3 4l-158 170h101l62 -67l63 67h101zM355 329q-29 30 -54 36t-38 6q-16 0 -31.5 -2.5t-30.5 -10t-28 -22t-24 -38.5v-298h-99v475h100v-40q56 45 114 45q26 0 48.5 -6.5t42.5 -17.5v-127z" />
    <glyph glyph-name="Sacute" unicode="&#x15a;" horiz-adv-x="433" 
d="M389 954v-83l-185 -96v81zM431 211q0 -44 -17 -82t-46 -67t-68 -45.5t-83 -16.5q-75 0 -132.5 39t-81.5 102l88 54q8 -41 43 -68t83 -27q23 0 44 9t36.5 24t24.5 35t9 43q0 39 -23 61.5t-57 39t-74 30.5t-73.5 36t-55.5 56t-21 90q0 36 12.5 68t36 56t56 38t72.5 14
q59 0 105.5 -29.5t69.5 -75.5l-90 -64q-2 14 -9 26.5t-18.5 22t-26.5 15t-31 5.5q-31 0 -54 -22.5t-23 -53.5q0 -32 22.5 -50t56.5 -32t73 -28.5t73 -39t56.5 -63t22.5 -100.5z" />
    <glyph glyph-name="sacute" unicode="&#x15b;" horiz-adv-x="440" 
d="M394 736v-83l-185 -96v81zM416 146q0 -46 -16.5 -77t-44 -50t-65 -27t-79.5 -8q-51 0 -95.5 17.5t-79.5 49.5v135q24 -48 70 -75t103 -27q8 0 26 0.5t36 6t32 17t14 34.5q0 21 -20.5 31.5t-51.5 17.5l-67 15q-36 8 -67 24t-51.5 44t-20.5 77q0 30 13.5 56.5t36.5 46.5
t54 31.5t66 11.5q45 0 86.5 -12.5t76.5 -34.5v-115q-29 28 -71 45t-92 17q-29 0 -49.5 -9t-20.5 -37q0 -24 20.5 -36t51.5 -19.5t66.5 -15t66.5 -22.5t51.5 -41t20.5 -71z" />
    <glyph glyph-name="Scircumflex" unicode="&#x15c;" horiz-adv-x="433" 
d="M204 952l163 -176l-101 -1l-62 68l-63 -68h-100zM431 211q0 -44 -17 -82t-46 -67t-68 -45.5t-83 -16.5q-75 0 -132.5 39t-81.5 102l88 54q8 -41 43 -68t83 -27q23 0 44 9t36.5 24t24.5 35t9 43q0 39 -23 61.5t-57 39t-74 30.5t-73.5 36t-55.5 56t-21 90q0 36 12.5 68
t36 56t56 38t72.5 14q59 0 105.5 -29.5t69.5 -75.5l-90 -64q-2 14 -9 26.5t-18.5 22t-26.5 15t-31 5.5q-31 0 -54 -22.5t-23 -53.5q0 -32 22.5 -50t56.5 -32t73 -28.5t73 -39t56.5 -63t22.5 -100.5z" />
    <glyph glyph-name="scircumflex" unicode="&#x15d;" horiz-adv-x="440" 
d="M209 734l163 -176l-101 -1l-62 68l-63 -68h-100zM416 146q0 -46 -16.5 -77t-44 -50t-65 -27t-79.5 -8q-51 0 -95.5 17.5t-79.5 49.5v135q24 -48 70 -75t103 -27q8 0 26 0.5t36 6t32 17t14 34.5q0 21 -20.5 31.5t-51.5 17.5l-67 15q-36 8 -67 24t-51.5 44t-20.5 77
q0 30 13.5 56.5t36.5 46.5t54 31.5t66 11.5q45 0 86.5 -12.5t76.5 -34.5v-115q-29 28 -71 45t-92 17q-29 0 -49.5 -9t-20.5 -37q0 -24 20.5 -36t51.5 -19.5t66.5 -15t66.5 -22.5t51.5 -41t20.5 -71z" />
    <glyph glyph-name="Scedilla" unicode="&#x15e;" horiz-adv-x="433" 
d="M239 -127q-46 -47 -165 -47v83q35 -8 82 19q14 9 14 55v23h94v-65q-1 -43 -25 -68zM431 211q0 -44 -17 -82t-46 -67t-68 -45.5t-83 -16.5q-75 0 -132.5 39t-81.5 102l88 54q8 -41 43 -68t83 -27q23 0 44 9t36.5 24t24.5 35t9 43q0 39 -23 61.5t-57 39t-74 30.5t-73.5 36
t-55.5 56t-21 90q0 36 12.5 68t36 56t56 38t72.5 14q59 0 105.5 -29.5t69.5 -75.5l-90 -64q-2 14 -9 26.5t-18.5 22t-26.5 15t-31 5.5q-31 0 -54 -22.5t-23 -53.5q0 -32 22.5 -50t56.5 -32t73 -28.5t73 -39t56.5 -63t22.5 -100.5z" />
    <glyph glyph-name="scedilla" unicode="&#x15f;" horiz-adv-x="440" 
d="M233 -143q-46 -47 -165 -47v83q35 -8 82 19q14 9 14 55v23h94v-65q-1 -43 -25 -68zM416 146q0 -46 -16.5 -77t-44 -50t-65 -27t-79.5 -8q-51 0 -95.5 17.5t-79.5 49.5v135q24 -48 70 -75t103 -27q8 0 26 0.5t36 6t32 17t14 34.5q0 21 -20.5 31.5t-51.5 17.5l-67 15
q-36 8 -67 24t-51.5 44t-20.5 77q0 30 13.5 56.5t36.5 46.5t54 31.5t66 11.5q45 0 86.5 -12.5t76.5 -34.5v-115q-29 28 -71 45t-92 17q-29 0 -49.5 -9t-20.5 -37q0 -24 20.5 -36t51.5 -19.5t66.5 -15t66.5 -22.5t51.5 -41t20.5 -71z" />
    <glyph glyph-name="Scaron" unicode="&#x160;" horiz-adv-x="433" 
d="M210 779q-1 -4 -8 -4l-4 4l-158 170h102l62 -67l62 67h102zM431 211q0 -44 -17 -82t-46 -67t-68 -45.5t-83 -16.5q-75 0 -132.5 39t-81.5 102l88 54q8 -41 43 -68t83 -27q23 0 44 9t36.5 24t24.5 35t9 43q0 39 -23 61.5t-57 39t-74 30.5t-73.5 36t-55.5 56t-21 90
q0 36 12.5 68t36 56t56 38t72.5 14q59 0 105.5 -29.5t69.5 -75.5l-90 -64q-2 14 -9 26.5t-18.5 22t-26.5 15t-31 5.5q-31 0 -54 -22.5t-23 -53.5q0 -32 22.5 -50t56.5 -32t73 -28.5t73 -39t56.5 -63t22.5 -100.5z" />
    <glyph glyph-name="scaron" unicode="&#x161;" horiz-adv-x="440" 
d="M216 561q-2 -4 -10 -4l-2 4l-158 170h100l62 -67l64 67h100zM416 146q0 -46 -16.5 -77t-44 -50t-65 -27t-79.5 -8q-51 0 -95.5 17.5t-79.5 49.5v135q24 -48 70 -75t103 -27q8 0 26 0.5t36 6t32 17t14 34.5q0 21 -20.5 31.5t-51.5 17.5l-67 15q-36 8 -67 24t-51.5 44
t-20.5 77q0 30 13.5 56.5t36.5 46.5t54 31.5t66 11.5q45 0 86.5 -12.5t76.5 -34.5v-115q-29 28 -71 45t-92 17q-29 0 -49.5 -9t-20.5 -37q0 -24 20.5 -36t51.5 -19.5t66.5 -15t66.5 -22.5t51.5 -41t20.5 -71z" />
    <glyph glyph-name="Tcommaaccent" unicode="&#x162;" horiz-adv-x="558" 
d="M301 -127q-46 -47 -165 -47v83q35 -8 82 19q14 9 14 55v23h94v-65q-1 -43 -25 -68zM547 600h-218v-600h-100v600h-218v100h536v-100z" />
    <glyph glyph-name="tcommaaccent" unicode="&#x163;" horiz-adv-x="430" 
d="M312 -138q-46 -47 -165 -47v83q35 -8 82 19q14 9 14 55v23h94v-65q-1 -43 -25 -68zM421 375h-201v-197q0 -39 20 -64t50 -25q26 0 56 9.5t53 26.5v-101q-23 -16 -53 -25.5t-56 -9.5q-36 0 -67 12t-54 33.5t-36 50.5t-13 63v227h-99v100h99v95h100v-95h201v-100z" />
    <glyph glyph-name="tcaron" unicode="&#x165;" horiz-adv-x="430" 
d="M467 462q0 -29 -12 -53.5t-33.5 -42.5t-50 -28.5t-61.5 -10.5v11q12 4 22 12t18 22t12.5 35.5t4.5 54.5v108h100v-108zM421 375h-201v-197q0 -39 20 -64t50 -25q26 0 56 9.5t53 26.5v-101q-23 -16 -53 -25.5t-56 -9.5q-36 0 -67 12t-54 33.5t-36 50.5t-13 63v227h-99v100
h99v95h100v-95h201v-100z" />
    <glyph glyph-name="Utilde" unicode="&#x168;" horiz-adv-x="727" 
d="M500 798l-70 -70l-70 70l70 71zM327 798l-70 -70l-70 70l70 71zM647 282q0 -61 -23.5 -115t-65 -94.5t-96.5 -64t-118 -23.5t-118 23.5t-96.5 64t-65 94.5t-23.5 115v418h100v-417q0 -41 16 -77t43.5 -63t64.5 -42.5t79 -15.5t79 15.5t64.5 42.5t43.5 63t16 77v417h100
v-418z" />
    <glyph glyph-name="utilde" unicode="&#x169;" horiz-adv-x="525" 
d="M439 641q-20 -48 -57 -77q-49 -39 -129 -14q-1 0 -19 7.5t-22 9.5q-41 14 -70.5 14t-56.5 -23q-4 -5 -7 -1q17 46 56 77q46 36 121 16q7 -2 17 -6l20 -8q11 -4 13 -5q81 -29 126 10q4 3 5 2.5t2 -1.5zM476 0h-100v30q-58 -40 -127 -40q-31 0 -67 10t-67.5 34t-52.5 63.5
t-21 97.5v280h100v-262q0 -25 8.5 -46.5t23.5 -37.5t34.5 -25t41.5 -9q36 0 68.5 8.5t58.5 26.5v345h100v-475z" />
    <glyph glyph-name="Umacron" unicode="&#x16a;" horiz-adv-x="688" 
d="M498 778l-2 -3h-300q-5 0 -6 7v84l4 3h300l4 -2v-89zM647 282q0 -61 -23.5 -115t-65 -94.5t-96.5 -64t-118 -23.5t-118 23.5t-96.5 64t-65 94.5t-23.5 115v418h100v-417q0 -41 16 -77t43.5 -63t64.5 -42.5t79 -15.5t79 15.5t64.5 42.5t43.5 63t16 77v417h100v-418z" />
    <glyph glyph-name="umacron" unicode="&#x16b;" horiz-adv-x="525" 
d="M412 543l-2 -3h-300q-5 0 -5 7v84l3 3h300l4 -2v-89zM476 0h-100v30q-58 -40 -127 -40q-31 0 -67 10t-67.5 34t-52.5 63.5t-21 97.5v280h100v-262q0 -25 8.5 -46.5t23.5 -37.5t34.5 -25t41.5 -9q36 0 68.5 8.5t58.5 26.5v345h100v-475z" />
    <glyph glyph-name="Ubreve" unicode="&#x16c;" horiz-adv-x="688" 
d="M344 775q-63 0 -107.5 44.5t-44.5 107.5h86q0 -27 19 -46.5t47 -19.5q27 0 46.5 19.5t19.5 46.5h86q0 -63 -44.5 -107.5t-107.5 -44.5zM647 282q0 -61 -23.5 -115t-65 -94.5t-96.5 -64t-118 -23.5t-118 23.5t-96.5 64t-65 94.5t-23.5 115v418h100v-417q0 -41 16 -77
t43.5 -63t64.5 -42.5t79 -15.5t79 15.5t64.5 42.5t43.5 63t16 77v417h100v-418z" />
    <glyph glyph-name="ubreve" unicode="&#x16d;" horiz-adv-x="525" 
d="M258.5 540q-62.5 0 -107.5 44.5t-45 107.5h86q0 -27 19 -46.5t47 -19.5t47 19.5t19 46.5h86q0 -63 -44.5 -107.5t-107 -44.5zM476 0h-100v30q-58 -40 -127 -40q-31 0 -67 10t-67.5 34t-52.5 63.5t-21 97.5v280h100v-262q0 -25 8.5 -46.5t23.5 -37.5t34.5 -25t41.5 -9
q36 0 68.5 8.5t58.5 26.5v345h100v-475z" />
    <glyph glyph-name="Uring" unicode="&#x16e;" horiz-adv-x="688" 
d="M432 864q0 -37 -25.5 -63t-62.5 -26q-36 0 -62 26t-26 63q0 36 25.5 62t62.5 26t62.5 -26t25.5 -62zM382.5 864q-0.5 16 -12 27t-27.5 11t-27 -11t-11 -27t11 -27.5t27 -11.5t28 11.5t11.5 27.5zM647 282q0 -61 -23.5 -115t-65 -94.5t-96.5 -64t-118 -23.5t-118 23.5
t-96.5 64t-65 94.5t-23.5 115v418h100v-417q0 -41 16 -77t43.5 -63t64.5 -42.5t79 -15.5t79 15.5t64.5 42.5t43.5 63t16 77v417h100v-418z" />
    <glyph glyph-name="uring" unicode="&#x16f;" horiz-adv-x="525" 
d="M347 629q0 -37 -26 -63t-63 -26q-36 0 -62 26t-26 63q0 36 26 62t62 26q37 0 63 -26t26 -62zM297 629q0 16 -11.5 27t-27.5 11t-27 -11t-11 -27t11 -27.5t27 -11.5t27.5 11.5t11.5 27.5zM476 0h-100v30q-58 -40 -127 -40q-31 0 -67 10t-67.5 34t-52.5 63.5t-21 97.5v280
h100v-262q0 -25 8.5 -46.5t23.5 -37.5t34.5 -25t41.5 -9q36 0 68.5 8.5t58.5 26.5v345h100v-475z" />
    <glyph glyph-name="Uhungarumlaut" unicode="&#x170;" horiz-adv-x="688" 
d="M358 898l-52 -121l-6 -2h-64l-2 8l56 118h68v-3zM506 898l-54 -121l-4 -2h-66v8l54 118h68zM647 282q0 -61 -23.5 -115t-65 -94.5t-96.5 -64t-118 -23.5t-118 23.5t-96.5 64t-65 94.5t-23.5 115v418h100v-417q0 -41 16 -77t43.5 -63t64.5 -42.5t79 -15.5t79 15.5
t64.5 42.5t43.5 63t16 77v417h100v-418z" />
    <glyph glyph-name="uhungarumlaut" unicode="&#x171;" horiz-adv-x="525" 
d="M273 663l-53 -121l-5 -2h-65l-2 8l56 118h68zM421 663l-54 -121l-4 -2h-66l-1 8l55 118h68zM476 0h-100v30q-58 -40 -127 -40q-31 0 -67 10t-67.5 34t-52.5 63.5t-21 97.5v280h100v-262q0 -25 8.5 -46.5t23.5 -37.5t34.5 -25t41.5 -9q36 0 68.5 8.5t58.5 26.5v345h100
v-475z" />
    <glyph glyph-name="Uogonek" unicode="&#x172;" horiz-adv-x="688" 
d="M297 -74v63l94 2v-23q0 -23 8.5 -49t24.5 -31q12 -2 21 -1t23 4t19 3v-83q0 -3 -6 -4q-50 -10 -93 7q-41 15 -66 44t-25 68zM647 282q0 -61 -23.5 -115t-65 -94.5t-96.5 -64t-118 -23.5t-118 23.5t-96.5 64t-65 94.5t-23.5 115v418h100v-417q0 -41 16 -77t43.5 -63
t64.5 -42.5t79 -15.5t79 15.5t64.5 42.5t43.5 63t16 77v417h100v-418z" />
    <glyph glyph-name="uogonek" unicode="&#x173;" horiz-adv-x="525" 
d="M249 -69v63l94 2v-23q0 -23 8.5 -49t24.5 -31q12 -2 21 -1t23 4t19 3v-83q0 -3 -6 -4q-50 -10 -93 7q-41 15 -66 44t-25 68zM476 0h-100v30q-58 -40 -127 -40q-31 0 -67 10t-67.5 34t-52.5 63.5t-21 97.5v280h100v-262q0 -25 8.5 -46.5t23.5 -37.5t34.5 -25t41.5 -9
q36 0 68.5 8.5t58.5 26.5v345h100v-475z" />
    <glyph glyph-name="Wcircumflex" unicode="&#x174;" horiz-adv-x="995" 
d="M499 952l163 -176l-101 -1l-62 68l-63 -68h-100zM985 698l-231 -697h-100l-155 507l-155 -507h-100l-231 697h106l175 -527l153 507h104l153 -507l175 527h106z" />
    <glyph glyph-name="wcircumflex" unicode="&#x175;" horiz-adv-x="780" 
d="M388 717l164 -176l-102 -1l-62 68l-62 -68h-100zM766 474l-173 -476h-100l-104 280l-105 -280h-100l-173 476h106l117 -321l107 281h95l107 -281l117 321h106z" />
    <glyph glyph-name="Ycircumflex" unicode="&#x176;" horiz-adv-x="573" 
d="M289 952l163 -176l-101 -1l-62 68l-63 -68h-100zM563 700l-224 -351v-349h-100v349l-224 351h118l156 -244l156 244h118z" />
    <glyph glyph-name="ycircumflex" unicode="&#x177;" horiz-adv-x="565" 
d="M282 717l164 -176l-102 -1l-62 68l-62 -68h-100zM552 475l-311 -587q-29 -55 -84 -89q-55 -33 -117 -33v100q35 0 66 19t48 50l70 134l-211 406h113l155 -298l160 298h111z" />
    <glyph glyph-name="Ydieresis" unicode="&#x178;" horiz-adv-x="573" 
d="M446 798l-70 -70l-70 70l70 71zM273 798l-70 -70l-70 70l70 71zM563 700l-224 -351v-349h-100v349l-224 351h118l156 -244l156 244h118z" />
    <glyph glyph-name="Zacute" unicode="&#x179;" horiz-adv-x="670" 
d="M539 954v-83l-185 -96v81zM655 700l-428 -599h418v-101l-612 1l429 599h-409v100h602z" />
    <glyph glyph-name="zacute" unicode="&#x17a;" horiz-adv-x="498" 
d="M445 719v-83l-185 -96v81zM488 475l-279 -375h261v-100h-462l281 375h-257v100h456z" />
    <glyph glyph-name="Zdotaccent" unicode="&#x17b;" horiz-adv-x="670" 
d="M416 835q-10 -8 -20 -18l-22 -23l-18 -19h-6l-56 58l-2 4l60 60q4 4 6 0l56 -58zM655 700l-428 -599h418v-101l-612 1l429 599h-409v100h602z" />
    <glyph glyph-name="zdotaccent" unicode="&#x17c;" horiz-adv-x="498" 
d="M322 600q-10 -8 -20 -18l-22 -22l-18 -20h-6l-56 58l-2 4l60 60q4 4 6 0l56 -58zM488 475l-279 -375h261v-100h-462l281 375h-257v100h456z" />
    <glyph glyph-name="Zcaron" unicode="&#x17d;" horiz-adv-x="670" 
d="M360 779q-1 -4 -8 -4l-4 4l-158 170h102l62 -67l62 67h102zM655 700l-428 -599h418v-101l-612 1l429 599h-409v100h602z" />
    <glyph glyph-name="zcaron" unicode="&#x17e;" horiz-adv-x="498" 
d="M266 544q-1 -4 -8 -4l-4 4l-158 170h102l62 -67l62 67h102zM488 475l-279 -375h261v-100h-462l281 375h-257v100h456z" />
    <glyph glyph-name="longs" unicode="&#x17f;" horiz-adv-x="440" 
d="M416 146q0 -46 -16.5 -77t-44 -50t-65 -27t-79.5 -8q-51 0 -95.5 17.5t-79.5 49.5v135q24 -48 70 -75t103 -27q8 0 26 0.5t36 6t32 17t14 34.5q0 21 -20.5 31.5t-51.5 17.5l-67 15q-36 8 -67 24t-51.5 44t-20.5 77q0 30 13.5 56.5t36.5 46.5t54 31.5t66 11.5
q45 0 86.5 -12.5t76.5 -34.5v-115q-29 28 -71 45t-92 17q-29 0 -49.5 -9t-20.5 -37q0 -24 20.5 -36t51.5 -19.5t66.5 -15t66.5 -22.5t51.5 -41t20.5 -71z" />
    <glyph glyph-name="uni0237" unicode="&#x237;" 
d="M150 0q0 -63 -8.5 -109t-31.5 -76t-63.5 -44t-103.5 -14v100q36 0 57.5 9t32.5 27t14.5 44.5t3.5 62.5v474h99v-474z" />
    <glyph glyph-name="circumflex" unicode="&#x2c6;" horiz-adv-x="394" 
d="M197 666l163 -176l-101 -1l-62 68l-63 -68h-100z" />
    <glyph glyph-name="caron" unicode="&#x2c7;" horiz-adv-x="394" 
d="M204 492q-2 -4 -9 -4l-3 4l-158 170h101l62 -67l63 67h101z" />
    <glyph glyph-name="breve" unicode="&#x2d8;" horiz-adv-x="344" 
d="M172 471q-63 0 -107.5 44.5t-44.5 107.5h86q0 -27 19 -46.5t47 -19.5q27 0 46.5 19.5t19.5 46.5h86q0 -63 -44.5 -107.5t-107.5 -44.5z" />
    <glyph glyph-name="dotaccent" unicode="&#x2d9;" horiz-adv-x="163" 
d="M143 536q-9 -8 -19 -18l-22 -22l-19 -20h-5l-57 58l-1 4l60 60q3 4 5 0l57 -58z" />
    <glyph glyph-name="ring" unicode="&#x2da;" horiz-adv-x="217" 
d="M197 575q0 -37 -26 -63t-63 -26q-36 0 -62 26t-26 63q0 36 26 62t62 26q37 0 63 -26t26 -62zM147 575q0 16 -11.5 27t-27.5 11t-27 -11t-11 -27t11 -27.5t27 -11.5t27.5 11.5t11.5 27.5z" />
    <glyph glyph-name="ogonek" unicode="&#x2db;" horiz-adv-x="230" 
d="M20 -61v63l94 2v-23q0 -23 8.5 -49t24.5 -31q12 -2 21 -1t23 4t19 3v-83q0 -3 -6 -4q-50 -10 -93 7q-41 15 -66 44t-25 68z" />
    <glyph glyph-name="tilde" unicode="&#x2dc;" horiz-adv-x="401" 
d="M381 596q-20 -48 -57 -77q-49 -39 -129 -14q-1 0 -19 7.5t-22 9.5q-41 14 -70.5 14t-56.5 -23q-4 -5 -7 -1q17 46 56 77q46 36 121 16q7 -2 17 -6l20 -8q11 -4 13 -5q81 -29 126 10q4 3 5 2.5t2 -1.5z" />
    <glyph glyph-name="hungarumlaut" unicode="&#x2dd;" horiz-adv-x="293" 
d="M135 594l-53 -121l-5 -2h-65l-2 8l56 118h68zM283 594l-54 -121l-4 -2h-66l-1 8l55 118h68z" />
    <glyph glyph-name="Gamma" unicode="&#x393;" horiz-adv-x="720" 
d="M653 63q-54 -37 -119 -57.5t-137 -20.5q-73 0 -137 30t-112 81.5t-75.5 121t-27.5 147.5q0 72 28.5 135.5t77 111t114 75.5t140.5 28q69 0 131.5 -19t116.5 -53v-121q-43 42 -107 67.5t-138 25.5q-54 0 -102 -20t-84 -54t-56.5 -79t-20.5 -95q0 -59 20.5 -110t55.5 -89.5
t81.5 -60.5t99.5 -22q20 0 45 4t47 10t38.5 13.5t20.5 14.5v205h100v-269z" />
    <glyph glyph-name="Kappa" unicode="&#x39a;" horiz-adv-x="610" 
d="M589 700l-310 -336l296 -369h-130l-295 372v-367h-100v699h101v-327l301 328h137z" />
    <glyph glyph-name="Xi" unicode="&#x39e;" horiz-adv-x="563" 
d="M548 -3h-115l-151 258l-152 -258h-115l209 356l-204 347h115l147 -249l146 249h115l-204 -347z" />
    <glyph glyph-name="Sigma" unicode="&#x3a3;" horiz-adv-x="985" 
d="M974 700l-283 -700h-94l-102 252l-102 -252h-94l-283 700h107l223 -549l95 234l-127 315h107l74 -182l74 182h107l-127 -315l95 -234l223 549h107z" />
    <glyph glyph-name="Upsilon" unicode="&#x3a5;" horiz-adv-x="1485" 
d="M661 362q0 52 -21 98t-57 80.5t-83.5 54.5t-100.5 20q-55 0 -104 -20t-85.5 -54t-57.5 -79.5t-21 -96.5q0 -58 21.5 -109t58 -89t85.5 -60t105 -22q38 0 73 11.5t66 32.5l-59 54l85 57l44 -41q24 35 37.5 76t13.5 87zM843 -15h-147l-82 76q-46 -36 -101.5 -56t-116.5 -20
q-75 0 -141.5 30t-116 81.5t-78.5 121t-29 147.5q0 72 29 135.5t78.5 111t116 75.5t141.5 28t141.5 -28t116 -75.5t78.5 -111t29 -135.5q0 -66 -20.5 -125.5t-57.5 -107.5zM1445 282q0 -61 -23.5 -115t-65 -94.5t-96.5 -64t-118 -23.5t-118 23.5t-96.5 64t-65 94.5
t-23.5 115v418h100v-417q0 -41 16 -77t43.5 -63t64.5 -42.5t79 -15.5t79 15.5t64.5 42.5t43.5 63t16 77v417h100v-418z" />
    <glyph glyph-name="alpha" unicode="&#x3b1;" horiz-adv-x="859" 
d="M377 254l-6 6h-140q2 -30 12.5 -59.5t28.5 -56t42.5 -48.5t53.5 -36l6 18q-2 40 2 86.5t1 89.5zM374 329v171l-6 17q-24 -3 -45 -14.5t-38.5 -29t-30.5 -39t-21 -42.5q-2 -16 -9 -32.5t1 -30.5h149zM820 386q-1 -9 -6 -14.5t-12 -10.5t-14 -9.5t-12 -10.5
q-28 -26 -40 -60.5t-6 -71.5q2 -8 7 -14.5t5 -15.5h-8q-9 29 -13 60t9 60q-29 -4 -59 -15.5t-63 -11.5l-153 -9l-6 -6q-3 -19 -3 -39v-40q0 -20 -1.5 -39.5t-7.5 -36.5q-1 -14 0 -29t-3 -29q7 -7 15 -8t16.5 -0.5t17.5 2t17 0.5q26 4 51 16.5t46 31t35.5 41.5t20.5 49
q3 -29 -12 -54l-30 -50q-35 -46 -83.5 -64t-102.5 -23q-11 -9 -11 -23q0 -15 -7 -25q-17 -37 -43.5 -69t-59.5 -56t-70.5 -38.5t-77.5 -16.5q-11 5 -22 8.5t-22 7.5t-21.5 10t-18.5 16q-9 15 -16.5 33t-11 37t-2 38t11.5 36q5 22 19.5 39t33.5 30.5t40 25t39 22.5l9 -4
q-36 -12 -60.5 -43.5t-26.5 -69.5q-2 -37 15 -66.5t48 -50.5q24 -19 55.5 -17t58.5 11q35 32 56 73t24 89l-42 18q-21 8 -40.5 19t-37 25.5t-32.5 35.5q-18 18 -28.5 38.5t-16.5 43t-10 46.5l-8 46q-5 7 -10 8.5t-11 0t-12 -3.5t-12 -2q-18 1 -34.5 -1t-31.5 -8v15
q27 20 56.5 34t60.5 26q3 41 24 74.5t51 61t65.5 49t68.5 37.5q10 7 13.5 17t3 21.5t-2.5 23t-2 21.5q-4 14 -15 20.5t-21 15.5q-16 2 -26.5 0.5t-23.5 -9.5v9q42 25 86 44t84 49h9q-8 -23 -10.5 -45.5t-3.5 -45.5t-1.5 -47t-2.5 -48l9 -8q66 5 126 -12t108 -63
q6 -17 0.5 -30.5t-16 -25t-24 -21.5t-23.5 -19q4 14 3 33t-18 33l-37 26q-19 13 -38.5 22.5t-41 14t-45.5 0.5l-6 -6q-3 -43 -3.5 -92t0.5 -91l6 -6q68 -1 135.5 6.5t136.5 11.5q26 6 49 20t47 22zM734 44l-45 -44h-12q-10 12 -22 25t-26 19q7 15 17.5 26t24.5 22q4 1 8 5.5
t8 7.5t8 3t9 -6q1 -8 6 -15t10.5 -13.5t10 -13.5t3.5 -16z" />
    <glyph glyph-name="beta" unicode="&#x3b2;" horiz-adv-x="3284" 
d="M957 398l-24 -19l-13 -49l11 14l3 4l4 10v5zM2114 374l1 14l-1 6l-5 18l-5 9l-3 4l-9 5l-4 2l-2 1l-2 -5l-2 -9l-4 -8l-2 -41l1 -7l3 -9l5 -5l15 5l9 9l2 5zM3074 621l-3 2l-1 2l-1 3l-5 6l-70 14l-5 -2l-2 -4v-2l1 -4l4 -7l2 -3l5 -5l3 -1l3 -3l20 -7l14 -4h12l11 2
l10 5l1 4v2zM2382 250l-8 -1l-266 -27l-121 -20l-28 -7l-10 -54l64 -19l20 -7l14 -7l13 -7l8 -6l15 -15l9 -13l2 -8l1 -8v-8l-1 -8l-2 -8l-4 -7l-4 -6l-5 -4l-21 -17l-4 -2l-4 -1l-3 -1h-4l-4 1v3l1 3l5 9l20 11l3 9v7l-2 12l-44 39l-74 27l-7 -1l-3 -1l-5 -5l-7 -9l-2 -4
l-1 -5l-5 -10l-7 -12l-2 -4l-19 -42l-38 -60l-47 -54l-63 -55l-77 -52l-10 -5l-12 -6l-37 -16l-39 -9l-20 -2l-20 -1l-25 3l-13 3l-18 6l-12 6l-6 3l-17 10l-19 16l-25 27l-10 15l-17 33l-18 50l-3 13l-2 11l-3 11l1 6l7 -22l27 -57l21 -32l31 -34l24 -20l34 -19l8 -2l4 -2
l17 -5l12 -2h16l19 2l57 13l43 24l74 52l75 72l43 59l24 45l4 10l5 13l9 18l2 6v6l-2 7h5l1 1l1 3v8l-167 21l-2 1l-2 2v3v3l1 5l1 2l3 4l6 4l4 2l179 43l28 171l-4 43l-1 65l-8 64l-10 41l-8 23l-7 13l-10 15l-15 16l-9 8l-22 16l-23 13h-3h-3l-17 2l-12 1h-3h-9h-4l-21 -2
l-3 -1l-3 -1l-11 -4l-9 -4l-2 -4l-2 -5l2 -11l5 -10l2 -4l31 -43l27 -58l14 -63l2 -56l-7 -53l-14 -42l-12 -23l-8 -11l-5 -5l-11 -8l-7 -3l-7 -2h-3h-2l-3 2l-4 11l-3 11l-1 23l5 28l15 49l5 9l3 9v5l-1 5l-26 15l-13 -11l-7 -9l-14 -24l-12 -34l-22 -89l-2 -2l-7 -4l-3 -1
l-3 -1h-4l-2 1l-12 88l-10 -4l-2 -2l-7 -7l-6 -8l-16 -27l-6 -9l-7 -7l-6 -4l-11 -5l-8 -1l-1 1l-4 3l-2 43l-8 -1l-10 -5l-45 -34l-6 -3l-2 -2l-5 -2l-6 -2h-6l-7 5l-5 6l-1 7v9l2 17l2 9l4 10l8 11l21 28l7 16l2 7l-90 -11l-15 -53l-13 -26l-14 -20l-13 -13l-7 -5l-10 -5
l-10 -7l-7 -5l-7 -2l-5 -1h-3l-4 1l-8 3l-9 10l-6 7l-4 8l-8 44l-1 10v12l-2 4l-3 1l-3 -1l-6 -5l-4 -6l-21 -29l-34 -38l-4 -3l-3 -7l-6 -7l-11 -7l-16 -6l-2 1l-3 2l-3 2l-1 2l-2 4l-1 4l2 97l-1 3l-1 -1l-1 -4h-1l-2 2l-68 -97l-5 -4l-11 -6l-6 -2l-6 8l-8 15l-6 16
l-3 11l-8 126l-12 -15l-16 -32l-35 -78l-8 -13l-6 -7l-9 -9l-23 -19h-3l-4 1l-1 2l-5 8l-3 9l-1 9v10l2 13l15 50l10 20l39 43l-1 2l-3 4l-14 4l-8 1l-19 -2h-7h-3h-45l-3 -1h-12l-12 -2l-242 -24l-141 -29l-8 -24l-17 -66l-7 -19l-11 -16l-5 -7l-7 -7l-8 -5l-1 -2l-2 -2v-4
v-3l1 -5l4 -2l21 -8l14 -3l18 -2l67 -3l14 -3l9 -2l134 7l111 24l31 12v-2v-6l1 -4l-11 -14l-29 -12l-57 -17l-88 -14l-57 -5l-159 8l-65 14l-30 12l-7 3l-3 2l-4 3l-4 9l-5 15l3 6l4 4l6 4l10 3h17l19 -1l9 -1l12 2l6 1l10 14l5 9l12 30l12 65l-17 3h-14l-10 -1l-14 -2
l-62 -14l-25 -2l-14 1l-3 1l-1 3l1 7l1 4l4 4l11 8l10 3l17 3h3l6 1h3l16 2l11 4l6 2l20 4h2l24 3h2l27 6l16 148l-13 5l-6 1h-9l-16 -2l-33 -9l-15 -3h-6l-64 -13l-89 -14l-15 -3l-2 2l-1 4l-1 8l38 17l59 15l140 24l33 11l4 101v2l3 5l5 5l7 4l1 -1h6l5 -1l5 -11l3 -15
l-2 -29l-3 -29l1 -16l75 2l201 20l65 -3l38 -9l37 -13l1 -10l-1 -5l-1 -5l-5 -8l-20 -18l-9 -8l-18 -10l-27 -10l-3 -1l-6 -2l-3 -2l-5 -2l-14 -7l-7 -1h-8h-4l-5 -2v8l42 16l62 39v2v2l-3 4l-34 9l-46 6l-107 -2l-187 -31l-7 -6l-12 -144l1 -1l4 -1l10 -1l18 3l12 2l16 3
l454 42v-1l5 -1l3 -2h3l15 8l14 39l9 47l7 62l8 11l9 7l4 1l5 -1l3 -3l4 -10l4 -14l1 -26v-28l1 -15l-2 -11v-22l-1 -10l-3 -12v-3l2 -6l2 -3l7 -4l13 -3h4h7l3 -1l2 -3l2 -3l-2 -6l-1 -3l-9 -9l-9 -7l-10 -3l-7 -2l-5 -10l-1 -11l1 -38l-3 -14l9 -39v-1l1 -1h2l1 -1h2l10 6
l11 12l27 40l8 8l6 10l2 3l4 6l3 3h1l5 1l4 2l2 2l11 24h1l3 2l4 1h2h2l2 -1l6 -2l-8 -114v-2l1 -1l4 -3l3 -1l10 7l10 9l12 13l61 79l16 16l10 8l10 7v-1l4 -4l2 -2l-8 -33l-2 -33l3 -33l4 -17l6 -16l1 -2l5 -2l9 -1l7 1l27 35l5 12l2 12l1 12l-4 23l-4 22l-1 12l3 5l2 2
l2 1l11 3h8l16 -2l19 -5l13 -3h9l9 2h2l26 2h2l10 2h3l20 4l12 4l10 5l8 4h1h3l3 -1l3 -4l1 -4l-1 -5l-6 -13l-46 -47l-23 -55v-1l1 -1l3 -1l2 -1l5 2l17 9l7 6l13 13l21 30l28 42l7 7h2h3l2 -2l2 -1l-8 -67l1 -1v-1h2h3l4 2l7 8l22 29l7 7l9 7l10 4l2 -1l4 -2l7 -6l6 -2h4
l43 55l5 5l11 5l6 2h17l33 -5l1 15l-1 16l-4 14l-7 20l-14 25l-32 47l-16 30l-5 18l-1 7v14l11 14l4 4l62 25l44 -1l42 -10l29 -13l22 -15l12 -11l7 -8l18 -34l13 -35l9 -37l7 -75l-2 -112l-17 -136l-1 -20l94 10l99 18l229 13l1 -1l5 -1zM3134 660l-1 -4l-1 -2l-5 -2h-9
l-3 -1l-3 -38l-10 -13l-15 -13l-8 -4l-8 -3l-14 -4l-9 -2h-9h-6l-4 1l-25 6l-8 4l-11 5l-10 6l-10 9l-4 6l-4 10l-1 6l1 12l2 5l-2 4v2l-2 1l-121 -15l-5 -2l-6 -5l-6 -10l-5 -13l-5 -20l-26 -125l-2 -29l1 -17l3 -17l5 1l9 5l7 7l25 36l8 7l5 3h6l4 -1v-10l-1 -10l-9 -43
l-1 -10l1 -9l4 -9l7 -12l2 -1h1h5l20 13l14 26l-7 15l-11 6l-5 6l-2 4l-1 4v2l1 6l2 3l4 5l2 1l9 4l9 2h10h3h5l33 -5l11 -8l10 -11l10 -15l8 -18l46 9l12 -22l4 -9l6 -21l1 -9v-10l-1 -9l-3 -12l-9 -14l-9 -11l-11 -6l-7 -2h-5l-2 1h-2l-3 4l-1 4v2l2 2l5 2l5 1l3 2l2 1
l2 3l5 11l-24 50l-8 3l-8 -11l-13 -23l-4 -5l-8 -7l-4 -2l-6 -1h-6h-2l-4 11l5 24l1 15v12l-2 13l-5 14l-10 10l-3 3l-1 2h-2h-1l-2 -1l-1 -1l-1 -1l1 -24l-1 -7l-2 -8l-4 -8l-11 -11l-13 -12l-16 -11l-15 -10l-2 -1l-12 -7h-3h-4l-7 2l-5 3l-6 4l-1 4l-4 9l-1 10v10l-1 8
l-3 10l-3 -1l-4 -1l-8 -5l-6 -7l-15 -19l-8 -7l-9 -5l-5 -1l-5 -1l-2 1l-1 1l-2 2l-1 53l28 162l-17 -19l-51 -77l-51 -80v-40l-3 -9l-4 -9l-2 -3l-7 -7l-8 -5l-4 -2h-1l-4 2l-1 1l-1 2l-5 7l-3 10l-1 12l2 21l3 12l-2 6l-2 6l-4 1h-3h-2l-15 -14l-4 -4l-24 -21l-13 -7
l-11 -5l-6 -1l-14 59l-1 1l-2 -2l-2 -1l-1 3l-7 -5l-9 -10l-22 -32l-11 -8l-10 -5h-6l-10 78l-92 -85h-3l-4 1l-1 2l-3 82l-5 7l-5 5l-3 2l-4 2l-15 -9l-46 -65l-10 -9l-3 -2l-4 -1h-4h-2l-1 1l-2 9l-3 19l-1 19l1 28l45 193l5 39l-17 -12l-20 -22l-25 -30l-24 -25l-10 -8
l-9 -12l-12 -14l-15 -12l-3 -2l-20 -31l19 -27l8 -14l6 -19l2 -7l1 -19l-1 -8l-2 -7l-4 -12l-4 -4l-8 -3l-5 -4l-6 -10l-5 -6l-11 -10l-11 -7l-17 -7l-11 -2l-6 -1l-4 2l-4 2l-3 3l-4 9l-3 9l-1 6l-1 26l6 38l13 57l25 13l65 74l79 79l32 44l16 29l11 30l5 22l3 3l4 3l4 2
l3 1l1 -1h5h2l3 -3l1 -2l2 -6l-68 -335v-3l1 -1l3 -3l4 -1l58 47l2 1l9 1h2l10 -3l12 -8l2 -3l4 -6l2 -2l3 -38l1 -4l2 -2l2 -1h3l9 4l2 2l28 31l17 14l4 3l13 5l6 2h1h2l5 -2l3 -2l16 -45l15 6l2 3l11 14l10 9l7 5l8 3l6 1h2h1l2 -1h2l12 -57l1 -1l3 -1h4l38 45l1 2l7 7
l9 6l3 3l14 -6l1 -5l1 -3l1 -2l3 -2l1 -1l1 -1l3 -2h3l12 11l17 23l67 109l7 9l8 16l21 35l-2 5l-1 2l-35 -2l-1 2v1l1 3l3 4l54 20l9 15l5 4l2 1l15 -2l1 -2v-3v-3l2 -2l8 -1l47 2l149 24l46 -2l18 -3l27 -9l2 -5l5 -6v-2v-2z" />
    <glyph glyph-name="gamma" unicode="&#x3b3;" horiz-adv-x="1339" 
d="M254 291h-220v-156h203q-5 48 -1 84t18 72zM410 169q-4 21 -6 36.5t-2 28.5t1.5 26.5t4.5 30.5h-139q-9 -17 -15 -34t-9 -35.5t-2.5 -39.5t3.5 -48q23 1 43 2t39.5 4.5t39.5 10t42 18.5zM706 -2q0 5 -3.5 7.5t-8.5 2.5q-11 0 -27.5 -9t-37.5 -13q15 -2 30 -2h20
q10 0 18.5 2.5t8.5 11.5zM295 483q0 -1 -16 -7.5t-35 -17.5t-35 -26.5t-16 -34.5q0 -11 6.5 -13.5t17 1t22 12t22.5 21.5q8 10 12.5 18.5t7.5 15.5l6 15q3 7 8 16zM497 290h-67q-1 -8 -3 -20.5t-3.5 -28t-1.5 -32.5t3 -33q22 17 35 31t20.5 27.5t11 27t5.5 28.5zM1093 124
h-179q-24 -47 -56.5 -75t-82.5 -28q-42 0 -68 28.5t-32 73.5h-193l199 167h-151l-11 -30q-6 -15 -17 -31t-28.5 -33t-45.5 -35q25 -73 67 -113.5t115 -60.5q16 3 27 6.5t20 7t17.5 7.5t19.5 8q7 0 13 -5t6 -13q0 -9 -7.5 -15t-27.5 -6q-17 0 -28.5 1t-20.5 1.5t-16.5 0
t-16.5 -3.5l-41 -14v6l46 17q-34 5 -60.5 20t-47.5 34t-35.5 39.5t-23.5 38t-14 27.5l-4 11q-12 -6 -26.5 -12t-34 -11t-46 -8t-62.5 -3q12 -74 48.5 -135t90.5 -104.5t121.5 -68t142.5 -24.5q77 0 147.5 24t128.5 68.5t101 106t66 136.5zM445 382q-11 8 -32.5 8.5t-45.5 -7
t-47.5 -23.5t-38.5 -41h133q4 18 12 33t19 30zM496 320q-2 14 -5.5 25t-21.5 22q-10 -10 -16.5 -20t-14.5 -27h58zM903 123h-204q9 -38 34.5 -57t62.5 -19q31 0 60.5 21t46.5 55zM891 320q-14 33 -36.5 60t-51.5 46.5t-62.5 30.5t-69.5 11q-48 0 -95.5 -23.5t-82.5 -56.5
q16 -11 27 -30t11 -39h197l-199 -168h146q4 33 18 63.5t39.5 54t64.5 37.5t94 14zM913 151q6 36 5 63.5t-5 47t-9.5 31t-8.5 16.5q-55 0 -91.5 -14t-59 -37t-33 -51.5t-12.5 -55.5h214zM1101 308h-179q10 -48 9 -84.5t-7 -71.5h174q12 40 10 78.5t-7 77.5zM1308 153v156
h-158q3 -27 4.5 -45t1.5 -35q0 -16 -2 -34l-5 -42h159zM1337 121h-195q-22 -78 -66 -142t-104.5 -109.5t-134.5 -70.5t-156 -25q-93 0 -170.5 27t-135 74t-92.5 110t-44 136h-238v197h264q10 18 23 35.5t30.5 31t41 22t56.5 8.5q10 0 23 -3t24 -7q36 44 91 73.5t114 29.5
q43 0 82.5 -13.5t72.5 -38.5t57.5 -59.5t38.5 -76.5h181q-18 80 -59 145.5t-99 112.5t-131 72.5t-154 25.5q-50 0 -100.5 -13.5t-96 -37.5t-85 -57.5t-67.5 -74.5l28 9v-5l-31 -12q-4 0 -10.5 -17t-18.5 -38t-30 -38t-44 -17q-6 0 -10 6.5t-4 16.5q0 16 9.5 29.5t25.5 24.5
t35 20.5t39 17.5q29 47 71 85.5t91.5 66.5t104.5 43t111 15q87 0 165 -27.5t140 -77.5t105.5 -120t62.5 -155h189v-199z" />
    <glyph glyph-name="delta" unicode="&#x3b4;" horiz-adv-x="1000" 
d="M1000 297h-319l-127 -136h-139l127 136h-67l-127 -136h-140l128 136h-68l-126 -136h-140l128 136h-68h-60v100h60h68l-128 136h140l126 -136h68l-128 136h140l127 -136h67l-127 136h139l127 -136h319v-100z" />
    <glyph glyph-name="epsilon" unicode="&#x3b5;" horiz-adv-x="1000" 
d="M1000 297h-140q-11 -68 -43.5 -123.5t-80.5 -95t-108.5 -61t-127.5 -21.5q-71 0 -133.5 21.5t-111.5 61t-81.5 95t-43.5 123.5h-130v100h130q11 63 43.5 119.5t81.5 98.5t111.5 66.5t133.5 24.5q67 0 127.5 -24.5t108.5 -66.5t80.5 -98.5t43.5 -119.5h140v-100zM760 346
q0 52 -21 99.5t-56.5 83t-83 56.5t-99.5 21q-49 0 -93 -16t-79.5 -44t-61 -66t-36.5 -83h271v-100h-271q11 -45 36.5 -84t61 -67t79.5 -44t93 -16q52 0 99.5 21t83 56.5t56.5 82.5t21 100z" />
    <glyph glyph-name="zeta" unicode="&#x3b6;" horiz-adv-x="1000" 
d="M1000 348l-635 -187l126 136h-29h-462v100h463h28l-124 139z" />
    <glyph glyph-name="eta" unicode="&#x3b7;" horiz-adv-x="1000" 
d="M1000 297h-462h-29l126 -136l-635 187l633 188l-124 -139h28h463v-100z" />
    <glyph glyph-name="theta" unicode="&#x3b8;" horiz-adv-x="1000" 
d="M1000 297h-130q-11 -68 -43.5 -123.5t-81.5 -95t-111.5 -61t-133.5 -21.5q-68 0 -128 21.5t-108 61t-80.5 95t-43.5 123.5h-140v100h140q11 63 43.5 119.5t80.5 98.5t108 66.5t128 24.5q71 0 133.5 -24.5t111.5 -66.5t81.5 -98.5t43.5 -119.5h130v-100zM770 297h-271v100
h271q-11 45 -36.5 83t-61 66t-79.5 44t-93 16q-53 0 -100 -21t-82.5 -56.5t-56.5 -83t-21 -99.5q0 -53 21 -100t56.5 -82.5t82.5 -56.5t100 -21q49 0 93 16t79.5 44t61 67t36.5 84z" />
    <glyph glyph-name="iota" unicode="&#x3b9;" horiz-adv-x="1000" 
d="M1000 161h-139l-127 136h-68l128 -136h-140l-126 136h-68l128 -136h-140l-126 136h-322v100h322l126 136h140l-128 -136h68l126 136h140l-128 -136h68l127 136h139l-127 -136h68h59v-100h-59h-68z" />
    <glyph glyph-name="mu" unicode="&#x3bc;" horiz-adv-x="501" 
d="M243 -11q-60 -3 -110 25v-122q0 -4 -3 -4h-86q-4 0 -4 4v550h91v-1q5 0 4 -3v-282q7 -29 32.5 -50t61.5 -27t71 6q54 22 66 71v282l4 4h88l1 -1h2v-439l-4 -3h-88q-1 1 -1 3v15q-38 -34 -125 -28z" />
    <glyph glyph-name="sigma1" unicode="&#x3c2;" horiz-adv-x="893" 
d="M882 700l-238 -618l32 -81h-108l-124 332l-96 -250l32 -81h-108l-260 698h107l179 -469l94 243l-84 225h107l179 -469l181 470h107z" />
    <glyph glyph-name="upsilon" unicode="&#x3c5;" horiz-adv-x="550" 
d="M420 237q0 34 -12.5 60.5t-33 45t-46.5 28t-53 9.5q-30 0 -56.5 -12t-46 -31.5t-31 -46t-11.5 -54.5q2 -34 14.5 -61t32.5 -46t45.5 -29t52.5 -10q35 1 62 13.5t45.5 33t28 46t9.5 54.5zM986 -185q-45 -35 -99 -47q-56 -12 -115.5 -5.5t-119.5 27.5t-121 52.5t-120 69.5
q-41 25 -75 40.5t-62 25t-51 16t-44 15.5q-70 32 -109.5 92t-39.5 136q1 55 22 99.5t55 76.5t78 49.5t91 17.5q54 -2 99 -22.5t77 -54.5t50 -77t18 -89q-2 -66 -30 -117.5t-74 -84.5q79 -54 157 -97q159 -91 288 -85q69 3 125 40v-78z" />
    <glyph glyph-name="endash" unicode="&#x2013;" horiz-adv-x="500" 
d="M500 168h-500v100h500v-100z" />
    <glyph glyph-name="emdash" unicode="&#x2014;" horiz-adv-x="750" 
d="M750 168h-750v100h750v-100z" />
    <glyph glyph-name="quoteleft" unicode="&#x2018;" horiz-adv-x="175" 
d="M168 688q-12 -5 -22 -12.5t-18 -21.5t-12.5 -35.5t-4.5 -54.5v-108h-100v108q0 28 12 53t33.5 43t50 28.5t61.5 10.5v-11z" />
    <glyph glyph-name="quoteright" unicode="&#x2019;" horiz-adv-x="190" 
d="M179 592q0 -29 -12 -53.5t-33.5 -42.5t-50 -28.5t-61.5 -10.5v11q12 4 22 12t18 22t12.5 35.5t4.5 54.5v108h100v-108z" />
    <glyph glyph-name="quotedblleft" unicode="&#x201c;" horiz-adv-x="365" 
d="M168 688q-12 -5 -22 -12.5t-18 -21.5t-12.5 -35.5t-4.5 -54.5v-108h-100v108q0 28 12 53t33.5 43t50 28.5t61.5 10.5v-11zM356 688q-12 -5 -22 -12.5t-18 -21.5t-12.5 -35.5t-4.5 -54.5v-84h-101v84q0 28 12.5 53t33.5 43t50 28.5t62 10.5v-11z" />
    <glyph glyph-name="quotedblright" unicode="&#x201d;" horiz-adv-x="358" 
d="M169 592q0 -29 -12 -53.5t-33.5 -42.5t-50 -28.5t-61.5 -10.5v11q12 4 22 12t18 22t12.5 35.5t4.5 54.5v108h100v-108zM350 616q0 -29 -12.5 -53.5t-33.5 -42.5t-50 -28.5t-62 -10.5v11q12 4 22 12t18 22t12.5 35.5t4.5 54.5v84h101v-84z" />
    <glyph glyph-name="twodotenleader" unicode="&#x2025;" horiz-adv-x="270" 
d="M255 0h-100v97h100v-97zM120 0h-100v97h100v-97z" />
    <glyph glyph-name="ellipsis" unicode="&#x2026;" horiz-adv-x="405" 
d="M390 0h-100v97h100v-97zM255 0h-100v97h100v-97zM120 0h-100v97h100v-97z" />
    <glyph glyph-name="perthousand" unicode="&#x2030;" horiz-adv-x="1065" 
d="M1026 134q0 -30 -11.5 -57t-31.5 -46.5t-47 -31t-57 -11.5q-31 0 -58 11.5t-47.5 31.5t-32 47t-11.5 58t11.5 58t31.5 47t46.5 31.5t57.5 11.5q30 0 57.5 -12t47.5 -32.5t32 -47.5t12 -58zM948 135v5q0 27 -21.5 46t-48.5 19q-29 0 -49.5 -20.5t-20.5 -49.5t21 -49.5
t50 -20.5t49 20.5t20 49.5zM681 134q0 -30 -11.5 -57t-31.5 -46.5t-47 -31t-57 -11.5q-31 0 -58 11.5t-47.5 31.5t-32 47t-11.5 58t11.5 58t31.5 47t46.5 31.5t57.5 11.5q30 0 57.5 -12t47.5 -32.5t32 -47.5t12 -58zM603 135v5q0 27 -21.5 46t-48.5 19q-29 0 -49.5 -20.5
t-20.5 -49.5t21 -49.5t50 -20.5t49 20.5t20 49.5zM327 532q0 -30 -11.5 -57t-31 -47t-46.5 -31.5t-57 -11.5t-57 11.5t-47 31.5t-31.5 47t-11.5 57t11.5 57t31.5 46.5t46.5 31t57.5 11.5t57.5 -11.5t46 -31t31 -46t11.5 -57.5zM569 667l-334 -667h-96l336 667h94zM250 534
q0 29 -20 48t-51 19q-29 0 -49 -19.5t-20 -48.5t20.5 -49t50.5 -20q29 0 49 20.5t20 49.5z" />
    <glyph glyph-name="exclamdbl" unicode="&#x203c;" horiz-adv-x="400" 
d="M373 53l-68 -68l-72 69l68 68zM350 612l-21 -456h-56l-23 456v88h100v-88zM173 53l-68 -68l-72 69l68 68zM150 612l-21 -456h-56l-23 456v88h100v-88z" />
    <glyph glyph-name="uni2047" unicode="&#x2047;" horiz-adv-x="900" 
d="M736 59l-70 -70l-70 70l70 71zM870 540q2 -42 -10 -72t-31 -51.5t-42 -37.5l-43 -29q-20 -13 -34 -27t-15 -33q0 -14 4 -24t11 -18t14 -15l16 -15l-73 -69q-11 14 -23.5 26.5t-24.5 27.5t-20.5 34t-9.5 46q-1 28 13 51.5t34.5 44t44.5 39t44.5 37t33.5 37.5t11 42
q0 34 -27 57.5t-68 23.5q-37 0 -67.5 -19t-42.5 -65l-84 53q7 22 23 45t41.5 42t60 31.5t76.5 12.5q40 0 74 -13t58.5 -36t39 -55t16.5 -71zM286 59l-70 -70l-70 70l70 71zM420 540q2 -42 -10 -72t-31 -51.5t-42 -37.5l-43 -29q-20 -13 -34 -27t-15 -33q0 -14 4 -24t11 -18
t14 -15l16 -15l-73 -69q-11 14 -23.5 26.5t-24.5 27.5t-20.5 34t-9.5 46q-1 28 13 51.5t34.5 44t44.5 39t44.5 37t33.5 37.5t11 42q0 34 -27 57.5t-68 23.5q-37 0 -67.5 -19t-42.5 -65l-84 53q7 22 23 45t41.5 42t60 31.5t76.5 12.5q40 0 74 -13t58.5 -36t39 -55t16.5 -71z
" />
    <glyph glyph-name="uni2048" unicode="&#x2048;" horiz-adv-x="650" 
d="M623 53l-68 -68l-72 69l68 68zM600 612l-21 -456h-56l-23 456v88h100v-88zM286 59l-70 -70l-70 70l70 71zM420 540q2 -42 -10 -72t-31 -51.5t-42 -37.5l-43 -29q-20 -13 -34 -27t-15 -33q0 -14 4 -24t11 -18t14 -15l16 -15l-73 -69q-11 14 -23.5 26.5t-24.5 27.5
t-20.5 34t-9.5 46q-1 28 13 51.5t34.5 44t44.5 39t44.5 37t33.5 37.5t11 42q0 34 -27 57.5t-68 23.5q-37 0 -67.5 -19t-42.5 -65l-84 53q7 22 23 45t41.5 42t60 31.5t76.5 12.5q40 0 74 -13t58.5 -36t39 -55t16.5 -71z" />
    <glyph glyph-name="uni2049" unicode="&#x2049;" horiz-adv-x="650" 
d="M486 59l-70 -70l-70 70l70 71zM620 540q2 -42 -10 -72t-31 -51.5t-42 -37.5l-43 -29q-20 -13 -34 -27t-15 -33q0 -14 4 -24t11 -18t14 -15l16 -15l-73 -69q-11 14 -23.5 26.5t-24.5 27.5t-20.5 34t-9.5 46q-1 28 13 51.5t34.5 44t44.5 39t44.5 37t33.5 37.5t11 42
q0 34 -27 57.5t-68 23.5q-37 0 -67.5 -19t-42.5 -65l-84 53q7 22 23 45t41.5 42t60 31.5t76.5 12.5q40 0 74 -13t58.5 -36t39 -55t16.5 -71zM173 53l-68 -68l-72 69l68 68zM150 612l-21 -456h-56l-23 456v88h100v-88z" />
    <glyph glyph-name="uni2070" unicode="&#x2070;" horiz-adv-x="620" 
d="M438 353q0 50 -7.5 95t-23 78.5t-39 53.5t-56.5 20t-56.5 -20t-39 -53.5t-23 -78.5t-7.5 -95q0 -54 9 -102t25.5 -83.5t39.5 -56t52 -20.5q28 0 51.5 20.5t40 56t25.5 83.5t9 102zM538 353q0 -91 -17.5 -159t-48.5 -113t-72 -67.5t-88 -22.5t-88 22.5t-72 67.5t-48.5 113
t-17.5 159q0 80 17.5 144.5t48.5 109.5t72 69t88 24t88 -24t72 -69t48.5 -109.5t17.5 -144.5z" />
    <glyph glyph-name="uni2071" unicode="&#x2071;" 
d="M150 0h-99v474h99v-474zM171 598l-70 -70l-70 70l70 71z" />
    <glyph glyph-name="uni2074" unicode="&#x2074;" horiz-adv-x="620" 
d="M618 199h-162v-199h-100v199h-350l449 536v-436h163v-100zM356 299v162l-135 -162h135z" />
    <glyph glyph-name="uni2075" unicode="&#x2075;" horiz-adv-x="620" 
d="M537 700l-68 -100h-195l-20 -157q55 4 101.5 -12.5t80.5 -47t53.5 -72.5t19.5 -87q0 -48 -18.5 -90.5t-50.5 -74.5t-75 -50.5t-92 -18.5q-60 0 -109.5 27t-81.5 74l58 83q29 -38 60.5 -61t76.5 -23q26 0 49 9.5t40.5 26t28 39t10.5 47.5q0 27 -11 51.5t-30.5 42.5
t-45.5 28.5t-55 10.5t-56.5 -1.5t-67.5 -16.5l50 373h348z" />
    <glyph glyph-name="uni2076" unicode="&#x2076;" horiz-adv-x="620" 
d="M426 219q0 24 -8.5 44.5t-23 36.5t-34 25t-41.5 9q-38 0 -69.5 -11.5t-54.5 -32.5q-2 -12 -2 -24v-23q0 -30 10 -56.5t27 -46t40 -30.5t49 -11q22 0 41.5 9.5t34 26t23 38t8.5 46.5zM526 217q0 -45 -17 -84.5t-45.5 -69t-67.5 -47t-82 -17.5q-46 0 -86 19.5t-70 52.5
t-47.5 77.5t-17.5 94.5q0 67 18.5 135t52 130t81 115t105.5 92h114q-75 -60 -138.5 -137t-98.5 -166q22 10 45.5 15.5t46.5 5.5q42 0 80 -17t66 -46.5t44.5 -68.5t16.5 -84z" />
    <glyph glyph-name="uni2077" unicode="&#x2077;" horiz-adv-x="620" 
d="M546 700l-356 -701h-111l307 601h-303v100h463z" />
    <glyph glyph-name="uni2078" unicode="&#x2078;" horiz-adv-x="620" 
d="M424 202q0 24 -9 42.5t-25 33.5t-36.5 28t-42.5 25q-23 -12 -43.5 -24.5t-36.5 -28t-25 -34.5t-9 -43q0 -23 9 -43t24.5 -35t36.5 -23.5t44 -8.5t43.5 8.5t36 23.5t24.5 35t9 44zM524 201q0 -43 -17 -81.5t-46 -67t-67.5 -45t-82.5 -16.5t-82.5 16.5t-67.5 45t-46 67
t-17 81.5q0 33 9.5 60.5t26 51t38.5 42.5t46 36q-37 27 -61.5 63.5t-24.5 93.5q0 37 14 70t38.5 57.5t57 39t69.5 14.5t69.5 -14.5t57 -39t38.5 -57.5t14 -70q0 -57 -25.5 -94t-62.5 -64q24 -17 46 -35.5t39 -41.5t27 -50.5t10 -61.5zM390 548q0 33 -23 57t-56 24t-56 -24
t-23 -57q0 -29 22 -52t56 -46q34 22 57 45t23 53z" />
    <glyph glyph-name="uni2079" unicode="&#x2079;" horiz-adv-x="620" 
d="M443 450q0 32 -10.5 59.5t-29.5 48t-44 32t-54 11.5q-25 0 -48 -10t-40 -28t-27.5 -42t-10.5 -51q0 -23 10 -44t27.5 -37t41.5 -25.5t53 -9.5q38 0 70.5 13.5t56.5 37.5q4 11 4.5 22.5t0.5 22.5zM542 451q0 -71 -21 -136t-58 -123.5t-86 -111t-105 -97.5h-128
q33 24 69.5 57t71 72t64 81.5t47.5 85.5q-24 -12 -49.5 -19.5t-51.5 -7.5q-44 0 -83.5 18t-69 49.5t-46.5 73.5t-17 90q0 45 18 84.5t49 69t72.5 47t88.5 17.5q48 0 91 -19.5t75 -53.5t50.5 -79.5t18.5 -97.5z" />
    <glyph glyph-name="uni207A" unicode="&#x207a;" horiz-adv-x="506" 
d="M446 294h-144v-151h-98v151h-143v98h143v151h98v-151h144v-98z" />
    <glyph glyph-name="uni207C" unicode="&#x207c;" horiz-adv-x="524" 
d="M485 315h-446v83h446v-83zM485 81h-446v83h446v-83z" />
    <glyph glyph-name="uni207D" unicode="&#x207d;" 
d="M199 -235h-100q-23 54 -41 111.5t-31.5 121t-20.5 135t-7 152.5t7 152.5t20 135.5t31 122t41 112h98q-22 -54 -40 -112t-30.5 -122t-19.5 -135.5t-7 -152.5t7 -152.5t20.5 -135t31.5 -121t41 -111.5z" />
    <glyph glyph-name="uni207E" unicode="&#x207e;" 
d="M200 287q0 -82 -7.5 -153.5t-21 -135.5t-32.5 -121.5t-42 -111.5h-100q23 54 42 111.5t32.5 121.5t21 135.5t7.5 153.5q0 81 -7 152t-20.5 134.5t-32 121.5t-40.5 112h98q23 -54 42 -112t32.5 -121.5t20.5 -134.5t7 -152z" />
    <glyph glyph-name="uni207F" unicode="&#x207f;" horiz-adv-x="523" 
d="M483 0h-100v285q0 19 -8.5 36.5t-23.5 30.5t-35 20.5t-43 7.5q-38 0 -70 -12t-52 -32v-336h-100v475h100v-29q27 16 58 25t65 9q42 0 79.5 -15.5t66.5 -42.5t46 -62.5t17 -74.5v-285z" />
    <glyph glyph-name="uni2080" unicode="&#x2080;" horiz-adv-x="620" 
d="M438 353q0 50 -7.5 95t-23 78.5t-39 53.5t-56.5 20t-56.5 -20t-39 -53.5t-23 -78.5t-7.5 -95q0 -54 9 -102t25.5 -83.5t39.5 -56t52 -20.5q28 0 51.5 20.5t40 56t25.5 83.5t9 102zM538 353q0 -91 -17.5 -159t-48.5 -113t-72 -67.5t-88 -22.5t-88 22.5t-72 67.5t-48.5 113
t-17.5 159q0 80 17.5 144.5t48.5 109.5t72 69t88 24t88 -24t72 -69t48.5 -109.5t17.5 -144.5z" />
    <glyph glyph-name="uni2081" unicode="&#x2081;" horiz-adv-x="310" 
d="M205 0h-100v606l100 117v-723z" />
    <glyph glyph-name="uni2082" unicode="&#x2082;" horiz-adv-x="620" 
d="M516 -1h-410l260 421q10 22 16.5 51t6.5 55q-6 40 -34 64.5t-69 24.5q-33 0 -61.5 -16.5t-51 -39.5t-38.5 -48t-26 -42v169q34 35 80 56t99 21q43 0 80.5 -15t65.5 -41t44 -60.5t16 -72.5q1 -53 -12 -90t-35 -73l-161 -264h230v-100z" />
    <glyph glyph-name="uni2083" unicode="&#x2083;" horiz-adv-x="620" 
d="M539 209q0 -45 -19 -85t-51 -69.5t-75.5 -47t-92.5 -17.5q-71 0 -128 35.5t-88 93.5l76 64q17 -42 54.5 -67.5t85.5 -25.5q27 0 50.5 9.5t41 25.5t27.5 38t10 46q0 29 -11 54.5t-30 44t-44.5 29.5t-54.5 11q-19 0 -41.5 -1t-40.5 -3l149 257h-263v99h435l-155 -270
q36 -12 66.5 -33.5t52 -50.5t34 -64t12.5 -73z" />
    <glyph glyph-name="uni2084" unicode="&#x2084;" horiz-adv-x="620" 
d="M618 199h-162v-199h-100v199h-350l449 536v-436h163v-100zM356 299v162l-135 -162h135z" />
    <glyph glyph-name="uni2085" unicode="&#x2085;" horiz-adv-x="620" 
d="M537 700l-68 -100h-195l-20 -157q55 4 101.5 -12.5t80.5 -47t53.5 -72.5t19.5 -87q0 -48 -18.5 -90.5t-50.5 -74.5t-75 -50.5t-92 -18.5q-60 0 -109.5 27t-81.5 74l58 83q29 -38 60.5 -61t76.5 -23q26 0 49 9.5t40.5 26t28 39t10.5 47.5q0 27 -11 51.5t-30.5 42.5
t-45.5 28.5t-55 10.5t-56.5 -1.5t-67.5 -16.5l50 373h348z" />
    <glyph glyph-name="uni2086" unicode="&#x2086;" horiz-adv-x="620" 
d="M426 219q0 24 -8.5 44.5t-23 36.5t-34 25t-41.5 9q-38 0 -69.5 -11.5t-54.5 -32.5q-2 -12 -2 -24v-23q0 -30 10 -56.5t27 -46t40 -30.5t49 -11q22 0 41.5 9.5t34 26t23 38t8.5 46.5zM526 217q0 -45 -17 -84.5t-45.5 -69t-67.5 -47t-82 -17.5q-46 0 -86 19.5t-70 52.5
t-47.5 77.5t-17.5 94.5q0 67 18.5 135t52 130t81 115t105.5 92h114q-75 -60 -138.5 -137t-98.5 -166q22 10 45.5 15.5t46.5 5.5q42 0 80 -17t66 -46.5t44.5 -68.5t16.5 -84z" />
    <glyph glyph-name="uni2087" unicode="&#x2087;" horiz-adv-x="620" 
d="M546 700l-356 -701h-111l307 601h-303v100h463z" />
    <glyph glyph-name="uni2088" unicode="&#x2088;" horiz-adv-x="620" 
d="M424 202q0 24 -9 42.5t-25 33.5t-36.5 28t-42.5 25q-23 -12 -43.5 -24.5t-36.5 -28t-25 -34.5t-9 -43q0 -23 9 -43t24.5 -35t36.5 -23.5t44 -8.5t43.5 8.5t36 23.5t24.5 35t9 44zM524 201q0 -43 -17 -81.5t-46 -67t-67.5 -45t-82.5 -16.5t-82.5 16.5t-67.5 45t-46 67
t-17 81.5q0 33 9.5 60.5t26 51t38.5 42.5t46 36q-37 27 -61.5 63.5t-24.5 93.5q0 37 14 70t38.5 57.5t57 39t69.5 14.5t69.5 -14.5t57 -39t38.5 -57.5t14 -70q0 -57 -25.5 -94t-62.5 -64q24 -17 46 -35.5t39 -41.5t27 -50.5t10 -61.5zM390 548q0 33 -23 57t-56 24t-56 -24
t-23 -57q0 -29 22 -52t56 -46q34 22 57 45t23 53z" />
    <glyph glyph-name="uni2089" unicode="&#x2089;" horiz-adv-x="620" 
d="M443 450q0 32 -10.5 59.5t-29.5 48t-44 32t-54 11.5q-25 0 -48 -10t-40 -28t-27.5 -42t-10.5 -51q0 -23 10 -44t27.5 -37t41.5 -25.5t53 -9.5q38 0 70.5 13.5t56.5 37.5q4 11 4.5 22.5t0.5 22.5zM542 451q0 -71 -21 -136t-58 -123.5t-86 -111t-105 -97.5h-128
q33 24 69.5 57t71 72t64 81.5t47.5 85.5q-24 -12 -49.5 -19.5t-51.5 -7.5q-44 0 -83.5 18t-69 49.5t-46.5 73.5t-17 90q0 45 18 84.5t49 69t72.5 47t88.5 17.5q48 0 91 -19.5t75 -53.5t50.5 -79.5t18.5 -97.5z" />
    <glyph glyph-name="uni208A" unicode="&#x208a;" horiz-adv-x="506" 
d="M446 294h-144v-151h-98v151h-143v98h143v151h98v-151h144v-98z" />
    <glyph glyph-name="uni208C" unicode="&#x208c;" horiz-adv-x="524" 
d="M485 315h-446v83h446v-83zM485 81h-446v83h446v-83z" />
    <glyph glyph-name="uni208D" unicode="&#x208d;" 
d="M199 -235h-100q-23 54 -41 111.5t-31.5 121t-20.5 135t-7 152.5t7 152.5t20 135.5t31 122t41 112h98q-22 -54 -40 -112t-30.5 -122t-19.5 -135.5t-7 -152.5t7 -152.5t20.5 -135t31.5 -121t41 -111.5z" />
    <glyph glyph-name="uni208E" unicode="&#x208e;" 
d="M200 287q0 -82 -7.5 -153.5t-21 -135.5t-32.5 -121.5t-42 -111.5h-100q23 54 42 111.5t32.5 121.5t21 135.5t7.5 153.5q0 81 -7 152t-20.5 134.5t-32 121.5t-40.5 112h98q23 -54 42 -112t32.5 -121.5t20.5 -134.5t7 -152z" />
    <glyph glyph-name="uni2090" unicode="&#x2090;" horiz-adv-x="458" 
d="M317 106v94q-38 0 -72 -3t-59 -10.5t-39.5 -21.5t-14.5 -36q0 -32 27.5 -41t66.5 -9q22 0 46.5 7.5t44.5 19.5zM417 0h-100v25q-26 -17 -58.5 -26t-59.5 -9q-34 0 -63.5 10.5t-51.5 29.5t-35 43.5t-13 53.5q0 33 14.5 63t48 52t87 35t131.5 13q0 26 -4 46.5t-15 34
t-30 20.5t-48 7q-43 0 -82 -14.5t-81 -52.5h-10l38 126q28 18 66 29.5t73 11.5q26 0 59.5 -6.5t63 -27.5t50 -61.5t20.5 -107.5v-295z" />
    <glyph glyph-name="uni2091" unicode="&#x2091;" horiz-adv-x="538" 
d="M398 321q0 16 -10 31t-26.5 26t-38.5 18t-47 7q-45 0 -81 -23.5t-53 -58.5h256zM512 225h-378q6 -29 21.5 -54t38 -43t51.5 -28.5t61 -10.5q52 0 97.5 17t77.5 44v-104q-41 -26 -89.5 -41t-100.5 -15q-54 0 -101.5 21t-82.5 57t-55.5 84.5t-20.5 102.5q0 50 19.5 94
t53 77t78 52.5t95.5 19.5q48 0 94 -15t80 -48t51.5 -85t9.5 -125z" />
    <glyph glyph-name="uni2092" unicode="&#x2092;" horiz-adv-x="550" 
d="M421 237q0 29 -11.5 55t-31.5 45.5t-46 31t-56 11.5t-56.5 -11.5t-46 -31t-31 -46t-11.5 -55.5q0 -30 11.5 -57t31 -46.5t46 -31t56.5 -11.5t56 11.5t46 31.5t31.5 47t11.5 57zM521 237q0 -51 -19.5 -96t-53 -78.5t-78 -53t-94.5 -19.5q-51 0 -95.5 19.5t-77.5 53
t-52.5 78.5t-19.5 96q0 50 19.5 94t53 77t78 52.5t95.5 19.5q50 0 94.5 -19.5t77.5 -52.5t52.5 -77t19.5 -94z" />
    <glyph glyph-name="uni2093" unicode="&#x2093;" horiz-adv-x="490" 
d="M488 -2h-125l-116 157l-117 -157h-125l180 241l-177 236h124l115 -153l114 153h124l-176 -237z" />
    <glyph glyph-name="uni2095" unicode="&#x2095;" horiz-adv-x="523" 
d="M483 0h-100v285q0 19 -8.5 36.5t-23.5 30.5t-35 20.5t-43 7.5q-38 0 -70 -18.5t-52 -47.5v-314h-100v700h100v-254q27 16 58 25t65 9q42 0 79.5 -15.5t66.5 -42.5t46 -62.5t17 -74.5v-285z" />
    <glyph glyph-name="uni2096" unicode="&#x2096;" horiz-adv-x="515" 
d="M506 -1h-140l-215 227v-226h-100v700h100v-380l162 139h152l-217 -190z" />
    <glyph glyph-name="uni2097" unicode="&#x2097;" horiz-adv-x="325" 
d="M325 24q-23 -16 -53 -25.5t-56 -9.5q-36 0 -67 12t-54 33.5t-36 50.5t-13 63v550h100v-520q0 -39 20 -64t50 -25q26 0 56 9.5t53 26.5v-101z" />
    <glyph glyph-name="uni2098" unicode="&#x2098;" horiz-adv-x="835" 
d="M796 0h-100v282q0 19 -8.5 36.5t-23.5 30.5t-35 20.5t-43 7.5q-32 0 -61 -17t-52 -46v-314h-100v282q0 19 -8.5 36.5t-23.5 30.5t-35 20.5t-43 7.5q-34 0 -62.5 -11t-47.5 -30v-336h-102v475h103v-29q27 16 58 25t65 9q43 0 81 -20t66 -52q40 34 84 53t92 19
q39 0 74.5 -16t62.5 -43t43 -63t16 -76v-282z" />
    <glyph glyph-name="uni2099" unicode="&#x2099;" horiz-adv-x="523" 
d="M483 0h-100v285q0 19 -8.5 36.5t-23.5 30.5t-35 20.5t-43 7.5q-38 0 -70 -12t-52 -32v-336h-100v475h100v-29q27 16 58 25t65 9q42 0 79.5 -15.5t66.5 -42.5t46 -62.5t17 -74.5v-285z" />
    <glyph glyph-name="uni209A" unicode="&#x209a;" horiz-adv-x="555" 
d="M424 237q0 29 -11.5 55t-31.5 45.5t-46 31t-56 11.5q-39 0 -72 -13.5t-56 -35.5v-186q23 -26 56 -40.5t72 -14.5q30 0 56 11.5t46 31.5t31.5 47t11.5 57zM524 237q0 -51 -19.5 -96t-53 -78.5t-78 -53t-94.5 -19.5q-35 0 -67.5 9.5t-60.5 26.5v-251h-100v700h100v-27
q29 15 61 23.5t68 8.5q50 0 94.5 -19.5t77.5 -52.5t52.5 -77t19.5 -94z" />
    <glyph glyph-name="uni209B" unicode="&#x209b;" horiz-adv-x="440" 
d="M416 146q0 -46 -16.5 -77t-44 -50t-65 -27t-79.5 -8q-51 0 -95.5 17.5t-79.5 49.5v135q24 -48 70 -75t103 -27q8 0 26 0.5t36 6t32 17t14 34.5q0 21 -20.5 31.5t-51.5 17.5l-67 15q-36 8 -67 24t-51.5 44t-20.5 77q0 30 13.5 56.5t36.5 46.5t54 31.5t66 11.5
q45 0 86.5 -12.5t76.5 -34.5v-115q-29 28 -71 45t-92 17q-29 0 -49.5 -9t-20.5 -37q0 -24 20.5 -36t51.5 -19.5t66.5 -15t66.5 -22.5t51.5 -41t20.5 -71z" />
    <glyph glyph-name="uni209C" unicode="&#x209c;" horiz-adv-x="430" 
d="M421 375h-201v-197q0 -39 20 -64t50 -25q26 0 56 9.5t53 26.5v-101q-23 -16 -53 -25.5t-56 -9.5q-36 0 -67 12t-54 33.5t-36 50.5t-13 63v227h-99v100h99v95h100v-95h201v-100z" />
    <glyph glyph-name="Euro" unicode="&#x20ac;" horiz-adv-x="750" 
d="M710 590l-49 -104q-29 44 -82 71.5t-124 27.5q-79 0 -129.5 -32.5t-70.5 -87.5h396l-48 -100h-366q-2 -20 -2 -34q0 -11 2 -31h335l-47 -100h-260q16 -45 68.5 -78.5t126.5 -33.5q66 0 118 24t82 58v-120q-28 -23 -86 -42.5t-129 -19.5q-124 0 -203 59t-112 153h-125
l50 100h51q-1 14 -1 32q0 19 1 33h-101l50 100h75q27 97 115 158.5t215 61.5q155 0 250 -95z" />
    <glyph glyph-name="trademark" unicode="&#x2122;" horiz-adv-x="412" 
d="M165 670h-61v-168h-28v168h-61v28h150v-28zM375 502h-27v152l-69 -84l-69 84v-152h-28v196h28l69 -84l68 84h28v-196z" />
    <glyph glyph-name="arrowleft" unicode="&#x2190;" horiz-adv-x="1999" 
d="M1999 161h-139l-127 136h-68l128 -136h-140l-126 136h-68l128 -136h-140l-126 136h-812l126 -136l-635 187l633 188l-124 -139h812l126 136h140l-128 -136h68l126 136h140l-128 -136h68l127 136h139l-127 -136h127v-100h-127z" />
    <glyph glyph-name="arrowright" unicode="&#x2192;" horiz-adv-x="1997" 
d="M1997 348l-635 -187l126 136h-809l-127 -136h-139l127 136h-67l-127 -136h-140l128 136h-68l-126 -136h-140l128 136h-128v100h128l-128 136h140l126 -136h68l-128 136h140l127 -136h67l-127 136h139l127 -136h809l-124 139z" />
    <glyph glyph-name="infinity" unicode="&#x221e;" horiz-adv-x="781" 
d="M191 166q-62 0 -106.5 46.5t-44.5 111.5q0 78 46 124.5t117 46.5q54 0 94.5 -29.5t75.5 -75.5h4q90 121 194 121q75 0 123 -49.5t48 -125.5q0 -85 -48.5 -137t-123.5 -52q-60 0 -106 30t-96 92h-4q-18 -21 -31 -34t-36 -31.5t-50 -28t-56 -9.5zM407 340q45 -59 82.5 -87
t81.5 -28q48 0 77 31t29 77q0 51 -30.5 82.5t-83.5 31.5q-80 0 -156 -107zM199 229q73 0 134 92q-70 95 -136 95q-42 0 -67.5 -24t-25.5 -65q0 -42 27.5 -70t67.5 -28z" />
    <glyph glyph-name="integral" unicode="&#x222b;" horiz-adv-x="374" 
d="M82 -40q14 16 14 60v429q-2 73 17.5 123t71.5 77q67 34 179 7v-91l-5 -5q-69 35 -125 5q-29 -19 -37.5 -46.5t-6.5 -70.5v-445l-1 -1v-38q0 -41 -24 -75q-51 -72 -154 -54q-11 4 -11 7v96l34 -4q34 9 48 26z" />
    <glyph glyph-name="uni222C" unicode="&#x222c;" horiz-adv-x="748" 
d="M456 -40q14 16 14 60v429q-2 73 17.5 123t71.5 77q67 34 179 7v-91l-5 -5q-69 35 -125 5q-29 -19 -37.5 -46.5t-6.5 -70.5v-445l-1 -1v-38q0 -41 -24 -75q-51 -72 -154 -54q-11 4 -11 7v96l34 -4q34 9 48 26zM82 -41q14 17 14 61v429q-2 73 17.5 123t71.5 77q67 34 179 7
v-91l-5 -5q-69 35 -125 5q-29 -19 -37.5 -46.5t-6.5 -70.5v-445l-1 -1v-38q0 -41 -24 -75q-51 -72 -154 -54q-11 4 -11 7v96l34 -4q34 9 48 25z" />
    <glyph glyph-name="uni222D" unicode="&#x222d;" horiz-adv-x="1122" 
d="M830 -40q14 16 14 60v429q-2 73 17.5 123t71.5 77q67 34 179 7v-91l-5 -5q-69 35 -125 5q-29 -19 -37.5 -46.5t-6.5 -70.5v-445l-1 -1v-38q0 -41 -24 -75q-51 -72 -154 -54q-11 4 -11 7v96l34 -4q34 9 48 26zM456 -41q14 17 14 61v429q-2 73 17.5 123t71.5 77
q67 34 179 7v-91l-5 -5q-69 35 -125 5q-29 -19 -37.5 -46.5t-6.5 -70.5v-445l-1 -1v-38q0 -41 -24 -75q-51 -72 -154 -54q-11 4 -11 7v96l34 -4q34 9 48 25zM82 -41q14 17 14 61v429q-2 73 17.5 123t71.5 77q67 34 179 7v-91l-5 -5q-69 35 -125 5q-29 -19 -37.5 -46.5
t-6.5 -70.5v-445l-1 -1v-38q0 -41 -24 -75q-51 -72 -154 -54q-11 4 -11 7v96l34 -4q34 9 48 25z" />
    <glyph glyph-name="f_i" unicode="&#xfb01;" horiz-adv-x="366" 
d="M350 603q-28 16 -51.5 18.5t-46.5 2.5q-28 0 -46 -27t-18 -65v-73l158 2v-2v-101v-358h-99v358h-59v-357h-100v358h-80v99h80v94q0 35 13 66t35 54t51.5 36.5t63.5 13.5q23 0 50 -6t49 -14v-99z" />
    <glyph glyph-name="f_l" unicode="&#xfb02;" horiz-adv-x="641" 
d="M625 25q-23 -16 -53 -25.5t-56 -9.5q-36 0 -67 12t-54 33.5t-36 50.5t-13 63v209h-158v-356h-100v357h-80v99h80v94q0 35 13 66t35 54t51.5 36.5t63.5 13.5q23 0 50 -6t49 -14v-3h96v-520q0 -39 20 -64t50 -25q26 0 56 9.5t53 26.5v-101zM346 605q-26 14 -48 17
q-23 2 -46 2q-28 0 -46 -27t-18 -65v-73h158v146z" />
    <glyph glyph-name="u10000" unicode="&#x10000;" horiz-adv-x="280" 
 />
    <glyph glyph-name="u10001" unicode="&#x10001;" horiz-adv-x="0" 
 />
    <glyph glyph-name="u10002" unicode="&#x10002;" horiz-adv-x="250" 
 />
    <glyph glyph-name="u10003" unicode="&#x10003;" horiz-adv-x="500" 
 />
    <glyph glyph-name="NameMe.65555" horiz-adv-x="790" 
d="M570 687q0 -33 -13.5 -62.5t-38 -51t-57.5 -35t-72 -15.5q1 11 1.5 19t2.5 15q3 20 13.5 41t25.5 37q21 24 51 39q19 10 36.5 14.5t50.5 9.5v-11zM733 170q-16 -31 -28.5 -53t-24.5 -39t-24 -31t-28 -29q-47 -45 -93 -45q-14 0 -29 4t-36 13q-9 4 -15.5 6.5t-13 3.5
t-14.5 1.5t-20 0.5q-18 0 -28.5 -1.5t-19.5 -5.5l-11 -5q-39 -17 -66 -17q-26 0 -53.5 14t-51.5 40q-56 59 -88.5 136t-32.5 152q0 44 16.5 83.5t44.5 69.5t65.5 47.5t79.5 17.5q12 0 23 -1.5t24 -4.5q14 -3 22 -7q4 0 22 -7q36 -12 51 -12q8 0 17 2.5t24 7.5l32 12
q13 4 23 6t19 3t21 1q29 0 55 -5.5t49 -15.5q20 -9 34 -19t36 -32q-29 -23 -43 -38t-24 -35q-14 -30 -14 -66q0 -69 45 -115q11 -11 22 -18.5t33 -18.5z" />
  </font>
</defs>
</svg>
